<svg version="1.0" xmlns="http://www.w3.org/2000/svg" width="682.667" height="682.667" viewBox="0 0 512 512"><path d="M19 2.9c-1.9 1-4.5 3.3-5.7 5.1L11 11.3v371.4l2.2 3.3c4.9 7.1 4.1 7 53.9 7h44.6l1.7 9.2c4.9 26.5 18.5 52.1 38 71.3 17.7 17.4 37.1 28.4 62.6 35.3 8.9 2.5 10.8 2.6 32.5 2.6s23.5-.1 32.6-2.6c52.1-14.2 89.4-53.3 99.9-104.8 1.1-5.4 2-10.1 2-10.4 0-.3 9.5-.6 21-.6 23.1 0 24.6-.3 29.3-5.9 3.6-4.3 69.7-202.7 69.7-209.2 0-5.6-2.9-10.4-8-13-3.1-1.7-6-1.9-24.7-1.9h-21.2l-.3-39.3-.3-39.2-2.3-3.3c-5.1-7.1 1.9-6.6-104-7.2l-95.2-.5-26.3-34c-14.5-18.7-27.8-35-29.7-36.3L185.7 1h-81.6C26.6 1 22.3 1.1 19 2.9zm443.8 193.3c-.3.7-12.8 38.1-27.8 83L407.7 361h-13.4c-7.3 0-13.3-.2-13.3-.4s-.7-4.1-1.6-8.6c-5-26.4-17.8-50.4-37.4-70.1-27.5-27.6-62.1-41.2-101-39.6-35.5 1.5-64.8 14.4-90.1 39.6-19.9 20-32.2 43-37.4 69.9l-1.8 9.2H80.9c-24.2 0-30.7-.3-30.4-1.3.2-.6 9-34.5 19.5-75.2s20-77.5 21.2-81.8l2-7.7h185c147.6 0 184.9.3 184.6 1.2zM255.3 303.5c6.5 4.5 6.7 5.5 6.7 32.9v24.5l24.8.3c22.8.3 25 .5 28.2 2.4 10.1 5.9 10.4 19.5.6 26.8-2.6 2-4.5 2.1-27.9 2.6l-25.2.5-.5 25.7-.5 25.7-3 3.2c-3.4 3.6-8.2 5.9-12.2 5.9-4.4 0-11-3.8-13.5-7.8-2.2-3.6-2.3-4.7-2.6-28.5l-.4-24.7h-24c-22.5 0-24.3-.1-27.7-2.1-5.8-3.3-7.6-6.5-7.6-13.6 0-7.4 2-10.7 8.5-14.1 4.2-2.1 5.5-2.2 27.6-2.2h23.3l.3-24.3c.3-22.3.5-24.5 2.4-27.7 4.7-8.1 15.1-10.6 22.7-5.5z"/></svg>