<svg version="1.0" xmlns="http://www.w3.org/2000/svg" width="682.667" height="682.667" viewBox="0 0 512 512"><path d="M84.1 49.6c-16.9 4.5-30.1 18-34.6 35.1-2.2 8.5-2.2 110.1 0 118.6 4.5 17.3 17.8 30.7 35 35.2 8.8 2.2 110.2 2.2 119 0 17.2-4.5 30.5-17.9 35-35.2 2.2-8.5 2.2-110.1 0-118.6-4.5-17.3-17.8-30.7-35-35.2-8.5-2.2-111.2-2.1-119.4.1zM308.1 49.6c-16.9 4.5-30.1 18-34.6 35.1-2.2 8.5-2.2 110.1 0 118.6 4.5 17.3 17.8 30.7 35 35.2 8.8 2.2 110.2 2.2 119 0 17.2-4.5 30.5-17.9 35-35.2 2.2-8.5 2.2-110.1 0-118.6-4.5-17.3-17.8-30.7-35-35.2-8.5-2.2-111.2-2.1-119.4.1zM84.1 273.6c-16.9 4.5-30.1 18-34.6 35.1-2.2 8.5-2.2 110.1 0 118.6 4.5 17.3 17.8 30.7 35 35.2 8.8 2.2 110.2 2.2 119 0 17.2-4.5 30.5-17.9 35-35.2 2.2-8.5 2.2-110.1 0-118.6-4.5-17.3-17.8-30.7-35-35.2-8.5-2.2-111.2-2.1-119.4.1zM351.3 273.5c-20.1 3.6-38.3 13.4-52.4 28.3-35.9 37.5-35.7 95.6.5 133 16.9 17.6 39.3 27.6 64.1 28.9 45.5 2.3 85.3-27.3 97.7-72.6 3.1-11 3.1-35.2 0-46.2-10.3-37.7-39.7-64.9-76.9-71.4-10.2-1.8-23.2-1.8-33 0z"/></svg>