<svg version="1.0" xmlns="http://www.w3.org/2000/svg" width="682.667" height="682.667" viewBox="0 0 512 512"><path d="M244.9.7c-1.8.4-2.1 1.5-4 15.1-1.5 11-2.9 12.5-14.2 15.7-9.7 2.8-19.5 7-26.9 11.5-7.3 4.5-10 4.1-20.4-3.3-4.9-3.5-9.5-6.6-10.2-7.1-1.4-.8-18.2 14.8-18.2 16.8.1.6 3.2 5.4 7 10.6 4.5 6.1 7 10.4 7 12.1 0 1.4-2.4 7.3-5.4 13.1-3 5.8-6.6 14.5-8.1 19.4-4.8 15.9-4.4 15.6-20.5 18.1l-11.5 1.8-.3 12.3c-.2 9.8 0 12.3 1.2 12.8.7.3 6.4 1.3 12.6 2.3 7.9 1.3 11.7 2.3 13 3.7 1.1 1 3.1 5.9 4.5 10.9 1.3 4.9 5.2 14.4 8.5 21s6 13.2 6 14.6c0 1.6-2.5 6.2-6.6 12-3.7 5.1-6.8 9.8-7 10.4-.2.5 3.5 4.9 8.3 9.7l8.8 8.7 9.9-7.4c6.4-4.9 10.9-7.5 12.5-7.5 1.5 0 8.3 2.8 15.1 6.3 7.1 3.6 16.3 7.3 21.2 8.6 4.9 1.4 9.5 3.2 10.5 4.3 1.1 1.2 2.5 6.3 3.8 14.1l2.1 12.2 12.6.3 12.6.3 1.7-12.2c1.2-7.8 2.5-12.9 3.6-14.3 1.2-1.5 4.2-2.9 8.6-4.1 8.8-2.3 20.1-6.9 28.5-11.7 3.7-2.1 8-3.8 9.6-3.8 1.8 0 6 2.3 12.5 7 5.3 3.8 10.1 7 10.5 7 1.2 0 17.2-16.2 17.2-17.3 0-.5-3.1-5.2-7-10.4-4.5-6.1-7-10.5-7-12.2 0-1.4 2.7-8 6-14.6s7.2-16.1 8.5-21c1.4-5 3.4-9.8 4.4-10.9 1.4-1.3 5.6-2.5 14.3-4l12.3-2.1v-25l-12.3-2.1c-8.8-1.4-12.8-2.6-14.2-4-1.1-1-3.1-6-4.5-10.9-1.4-5-5.2-14.4-8.5-21s-6-13.2-6-14.6c0-1.7 2.6-6.2 7-12.3 3.9-5.3 7-10 7-10.4 0-1-16.3-17.2-17.3-17.2-.4 0-5 3.1-10.3 7-11.3 8.2-13.7 8.6-21.2 4-7.4-4.5-16.8-8.6-26.7-11.4-12-3.4-12.8-4.4-15-18.9-1.6-10-2.1-11.6-3.9-12.1-2.4-.7-19.3-.6-21.7.1zm26.7 46.4c34.2 6 60.5 29.4 72 63.9 2.6 8 2.8 9.6 2.8 25.5.1 19.8-.9 24.4-8.3 40-23.7 49.8-85.5 67-132.4 36.9-19.4-12.4-34.5-35-39.2-58.3-2.3-11.4-1.6-32.5 1.4-42.6C178 79 204.4 54.4 238 47.5c8-1.6 25.6-1.9 33.6-.4z"/><path d="M241.5 65.4c-28.9 6.7-49.9 27.2-56.6 55.4-2.9 12-2.3 27.3 1.5 38.7 7.5 22.3 24.4 39.3 47.1 47.2 7.4 2.6 9.2 2.8 22.5 2.8 13.7 0 15-.2 23.3-3.2 11.9-4.2 18.8-8.5 27.8-17.3 22.6-22.3 28.3-54.9 14.4-83.5-9.3-19.2-24.2-31.9-45-38.5-8.9-2.8-26.3-3.6-35-1.6zm32 20c14.4 5.2 24 13.5 30.9 26.5 11.3 21.6 7.5 46.3-9.9 63.6-8.2 8.2-14.4 11.8-25.1 14.5-9.8 2.5-17 2.5-26.8 0-10.3-2.6-17.7-6.9-25.6-14.9-13.1-13.3-18.4-31.1-14.6-49.2 4.7-21.8 22.3-38.8 44.6-42.9 7-1.4 19.3-.2 26.5 2.4z"/><path d="M244.8 102.4c-26.8 9.6-33.9 42.6-13.3 61.5 11.7 10.6 28 12.7 41.8 5.3 6.7-3.6 14.1-12 16.7-18.9 2.6-7.1 2.9-18.1.6-25-3.4-9.9-12.3-18.8-22.4-22.5-5.7-2.1-18.1-2.3-23.4-.4zM247 306.5V320l-86.2.2-86.3.3-4.1 2.2c-10.1 5.4-14.6 12.9-15.2 25.5l-.4 8.8H73v-5.5c0-3 .5-6.6 1.2-8 2.6-5.7-.4-5.5 89.8-5.5h83v19h18v-19h83c90.2 0 87.2-.2 89.8 5.5.7 1.4 1.2 5 1.2 8v5.5h18.2l-.4-8.8c-.6-12.6-5.1-20.1-15.2-25.5l-4.1-2.2-86.2-.3-86.3-.2v-27h-18v13.5zM10.5 376.7c-7.3 3.8-10.4 9.5-10.5 19v6.3h128v-6c0-9.6-3.2-15.5-10.2-19.1-3.5-1.8-6.6-1.9-54-1.9-43.9.1-50.7.3-53.3 1.7zM202.5 376.7c-7.3 3.8-10.4 9.5-10.5 19v6.3h128v-6c0-9.6-3.2-15.5-10.2-19.1-3.5-1.8-6.6-1.9-54-1.9-43.9.1-50.7.3-53.3 1.7zM394.5 376.7c-7.3 3.8-10.4 9.5-10.5 19v6.3h128v-6c0-9.6-3.2-15.5-10.2-19.1-3.5-1.8-6.6-1.9-54-1.9-43.9.1-50.7.3-53.3 1.7zM.2 460.3l.3 39.3 2.7 4.1c1.6 2.4 4.4 4.9 7 6.2 4.3 2.1 5.5 2.1 53.8 2.1s49.5 0 53.8-2.1c2.6-1.3 5.4-3.8 7-6.2l2.7-4.1.3-39.3.3-39.3H-.1l.3 39.3zm32-20.2c1.1.6 2.6 2.6 3.4 4.5 1.2 2.9 1.2 3.9 0 6.8-3.1 7.4-12.4 7.7-16.2.5-4-7.9 4.8-16.1 12.8-11.8zm73.4.4c3.4 2.3 4.9 6.9 3.4 10.5-2.4 5.8-3.4 6-26.8 6H60.8l-2.9-2.9c-2-2-2.9-3.9-2.9-6.1 0-2.2.9-4.1 2.9-6.1l2.9-2.9h21.4c17.1 0 21.8.3 23.4 1.5zm-71.7 38c5.4 5.2 1.2 14.9-6.4 14.9-7.3 0-11.7-9.1-7-14.5 4-4.3 9.1-4.5 13.4-.4zm54.7-.2c3.2 3.7 3.2 8.7 0 12.4-2.3 2.7-2.8 2.8-13.6 3.1-15 .5-20-1.8-20-9.1 0-7.7 4.5-9.8 19.8-9.5 11.1.3 11.5.4 13.8 3.1zM192.2 460.3l.3 39.3 2.7 4.1c1.6 2.4 4.4 4.9 7 6.2 4.3 2.1 5.5 2.1 53.8 2.1s49.5 0 53.8-2.1c2.6-1.3 5.4-3.8 7-6.2l2.7-4.1.3-39.3.3-39.3H191.9l.3 39.3zm32-20.2c1.1.6 2.6 2.6 3.4 4.5 1.2 2.9 1.2 3.9 0 6.8-3.1 7.4-12.4 7.7-16.2.5-4-7.9 4.8-16.1 12.8-11.8zm73.4.4c3.4 2.3 4.9 6.9 3.4 10.5-2.4 5.8-3.4 6-26.8 6h-21.4l-2.9-2.9c-2-2-2.9-3.9-2.9-6.1 0-2.2.9-4.1 2.9-6.1l2.9-2.9h21.4c17.1 0 21.8.3 23.4 1.5zm-71.7 38c5.4 5.2 1.2 14.9-6.4 14.9-7.3 0-11.7-9.1-6.9-14.5 3.9-4.3 9-4.5 13.3-.4zm54.7-.2c3.2 3.7 3.2 8.7 0 12.4-2.3 2.7-2.8 2.8-13.6 3.1-15 .5-20-1.8-20-9.1 0-7.7 4.5-9.8 19.8-9.5 11.1.3 11.5.4 13.8 3.1zM384.2 460.3l.3 39.3 2.7 4.1c1.6 2.4 4.4 4.9 7 6.2 4.3 2.1 5.5 2.1 53.8 2.1s49.5 0 53.8-2.1c2.6-1.3 5.4-3.8 7-6.2l2.7-4.1.3-39.3.3-39.3H383.9l.3 39.3zm32-20.2c1.1.6 2.6 2.6 3.4 4.5 1.2 2.9 1.2 3.9 0 6.8-3.1 7.4-12.4 7.7-16.2.5-4-7.9 4.8-16.1 12.8-11.8zm73.4.4c3.4 2.3 4.9 6.9 3.4 10.5-2.4 5.8-3.4 6-26.8 6h-21.4l-2.9-2.9c-2-2-2.9-3.9-2.9-6.1 0-2.2.9-4.1 2.9-6.1l2.9-2.9h21.4c17.1 0 21.8.3 23.4 1.5zm-71.7 38c5.4 5.2 1.2 14.9-6.4 14.9-7.3 0-11.7-9.1-6.9-14.5 3.9-4.3 9-4.5 13.3-.4zm54.7-.2c3.2 3.7 3.2 8.7 0 12.4-2.3 2.7-2.8 2.8-13.6 3.1-15 .5-20-1.8-20-9.1 0-7.7 4.5-9.8 19.8-9.5 11.1.3 11.5.4 13.8 3.1z"/></svg>