<svg version="1.0" xmlns="http://www.w3.org/2000/svg" width="682.667" height="682.667" viewBox="0 0 512 512"><path d="M243.9 17.7c-1 .2-3.8 6-7.3 14.9-3.3 8.2-6.6 14.8-7.6 15.4-.9.5-6 2.3-11.2 3.9-5.2 1.7-13.9 5.3-19.3 8.1-5.4 2.7-10.5 5-11.4 5-.9 0-7.9-2.7-15.5-6l-13.9-5.9-2.6 1.8c-4.2 3-16.1 15.8-16.1 17.3 0 .7 2.5 7.2 5.5 14.3 3 7 5.5 13.9 5.5 15.2 0 1.3-2.3 6.9-5 12.4-2.8 5.5-6.5 14.3-8.1 19.5-1.7 5.2-3.9 10.3-5 11.2-1 .9-7.8 4.1-15.2 7l-13.4 5.3-.6 8.2c-.3 4.5-.2 10.7.1 13.6l.7 5.5 13.5 5.4c7.4 3 14.3 6.1 15.2 6.9.9.8 3.1 5.9 4.7 11.2 1.7 5.3 5.3 14.1 8.1 19.5 2.7 5.5 5 10.9 5 12.2 0 1.3-2.5 8-5.5 15s-5.5 13.5-5.5 14.3c0 1.5 16.8 19.1 18.2 19.1.4 0 7.3-2.7 15.3-6.1l14.6-6 12.7 5.9c7 3.3 16.1 7 20.2 8.2 4.1 1.3 8.4 3.1 9.4 4.1 1.1 1 4.4 8 7.5 15.6l5.6 13.8h27l5.6-13.8c3.1-7.6 6.4-14.6 7.5-15.6 1-1 5.3-2.8 9.4-4 4.1-1.2 13.2-4.9 20.2-8.2l12.6-6.1 14.7 6.1c8 3.4 14.9 6.1 15.3 6.1 1.4 0 18.2-17.6 18.2-19.1 0-.8-2.5-7.3-5.5-14.3-3-7-5.5-13.7-5.5-15 0-1.3 2.2-6.6 4.9-11.8 2.6-5.3 6.3-14.1 8-19.6 1.8-5.5 4-10.7 4.9-11.5.9-.9 7.8-3.9 15.2-6.9l13.5-5.4.7-5.5c.3-2.9.4-9.1.1-13.6l-.6-8.2-13.4-5.3c-7.4-2.9-14.2-6.1-15.2-7-1-.9-3.3-6.1-5.1-11.5-1.8-5.4-5.4-14.2-8.1-19.5-2.7-5.4-4.9-10.8-4.9-12.1 0-1.3 2.5-8.1 5.5-15.1s5.5-13.4 5.5-14.1c0-1.6-11.8-14.5-16-17.5l-2.7-1.9-13.9 5.9c-7.6 3.3-14.7 6-15.7 6-.9 0-5.4-2-10-4.4-4.5-2.5-13.1-6.1-19.2-8.2-6-2-11.7-4-12.6-4.5-1-.5-4.3-7.4-7.4-15.3-4.5-11.1-6.3-14.6-7.9-15-2.4-.6-21.3-.6-23.7.1zm31.2 43.8c22.4 3.9 42.9 14.6 59.2 30.9 29.4 29.4 40.1 73.7 27.2 112.4-22 66-97.2 96.1-158 63.3-10.3-5.5-17.7-11.2-26.8-20.2-42.3-42.6-41.8-112.6 1-155.5 20.9-20.9 47.7-32.1 77.4-32.3 6.4-.1 15.4.6 20 1.4z"/><path d="M240.7 78c-37.9 6.9-67.6 35-76.1 72-4.8 20.8-2.4 41.6 7.3 61.5 15.6 32.5 47.3 52.5 83 52.5 12.9 0 20.3-1 30.1-4.2 39.9-12.8 67.5-53.1 64.6-94.3-2.8-40.7-29.1-73.5-68.3-85.1-7.1-2.1-11.4-2.7-22.3-2.9-7.4-.2-15.7 0-18.3.5zm20.8 35.2c3.1 2.7 3.6 7.5 1.1 11.2-1.7 2.7-1.9 2.8-12.9 4.4-13.9 2.1-25.2 10.3-31.1 22.5-2 4-3.8 9-4.2 11.2-.7 3.9-.6 4 1.3 2.3 3.5-3.2 7.6-3.3 11.1-.3 2.5 2.1 3.2 3.5 3.2 6.3 0 3.2-1.1 4.7-10.8 14.4-14.5 14.5-14 14.5-28.7-.2-9.8-9.8-10.9-11.3-10.9-14.5 0-7.2 7.2-10.5 13.7-6.1l3.7 2.5v-3.4c0-5.5 4.6-18.5 9-25.2 8.2-12.4 20.8-21.5 35.2-25.3 10.3-2.7 17-2.6 20.3.2zm59.7 42.5c12.5 12.5 13.6 15 9.3 20.1-3.2 3.8-7.8 4.3-11.8 1.2-1.4-1.1-2.7-2-3-2-.2 0-.7 2.2-1 4.8-2.4 20.3-18.9 40.1-39.4 47.3-3.2 1.1-9.5 2.3-14.1 2.6-7.7.5-8.4.4-10.7-1.7-2.5-2.3-3.3-6.8-1.9-10.5.9-2.3 5.8-4.5 10.2-4.5 15.8 0 32.8-13.5 37.6-29.9 2.3-7.8 2.1-8.7-1-6.2-5.8 4.5-13.4.8-13.4-6.5 0-3.3 1-4.7 8.8-12.7 4.8-4.9 10.1-9.8 11.7-10.8 5.5-3.4 7-2.7 18.7 8.8z"/><path d="M71.6 244.9C37.1 259 20.1 266.4 18.8 268c-2.4 3-2.3 7.4.5 10.4 1.6 1.8 34.1 15.4 118.1 49.5 63.7 25.9 117.1 47.1 118.7 47.1 1.5 0 54.9-21.2 118.6-47 84.7-34.4 116.4-47.8 118.1-49.6 2.8-3.2 2.8-7.6 0-10.8-1.6-1.7-18-8.8-53.1-23-27.9-11.3-51.1-20.6-51.5-20.6-.4 0-2.5 3.7-4.5 8.2l-3.7 8.3 5.1 12c5.9 13.6 6.5 18.6 3.2 25-2.5 4.7-21.4 23.5-26 25.9-5.6 2.8-11 2.1-23.8-3.4-6.4-2.8-12.3-5-13-5-.7 0-5.5 2-10.6 4.4-5.2 2.4-11.9 5.2-14.9 6.1l-5.6 1.7-4.9 12.4c-5.2 13.3-8.5 17.8-14.7 20-4.4 1.7-33.2 1.7-37.6 0-6.2-2.2-9.5-6.7-14.7-19.9l-4.9-12.3-8-2.8c-4.5-1.5-11.2-4.3-14.9-6.2-3.7-1.9-7.4-3.4-8-3.4-.7 0-6.6 2.3-13.1 5-19.3 8.2-22.3 7.3-40.2-11.1-14.6-15.1-14.9-17.2-5.9-38l4.6-10.3-3.8-8.3c-2-4.6-4.2-8.3-4.8-8.2-.5 0-23.9 9.4-51.9 20.8z"/><path d="M37 318.6c-19.5 8.1-22.4 10.9-18.5 18.3 1.1 2.1 3.4 3.7 8.7 5.9 4 1.7 56.8 23.1 117.2 47.7 87.3 35.5 110.6 44.6 113 44.2 3.7-.6 230.8-92.9 234.2-95.2 1.4-.9 2.6-2.9 3-5.1 1.1-6.1-1.2-8-19.5-15.6l-16.2-6.7-97.2 39.5c-53.4 21.7-99 39.9-101.3 40.3-2.3.4-5.7.6-7.5.3-1.9-.2-47.6-18.4-101.7-40.3-54-21.9-98.3-39.8-98.5-39.8-.1.1-7.2 3-15.7 6.5z"/><path d="M37 378.5c-19.1 7.8-22.1 10.7-18.9 17.9.7 1.4 2.6 3.2 4.3 4 8 3.8 230.4 93.9 232.6 94.3 1.6.3 18-5.9 47-17.7 24.5-10 75.6-30.8 113.5-46.2 38-15.4 70.9-28.8 73.1-29.9 6.6-3.1 8.3-10.2 3.4-14.6-1-1-9-4.6-17.7-8.1l-15.8-6.3-25.5 10.4c-14 5.7-57.9 23.6-97.5 39.8l-72 29.4h-15L168 418.6C57.1 373.3 53.8 372 53.1 372c-.3.1-7.6 3-16.1 6.5z"/></svg>