<svg version="1.0" xmlns="http://www.w3.org/2000/svg" width="682.667" height="682.667" viewBox="0 0 512 512"><path d="M50.5 18.5 48 20.9v422.2l2.5 2.4 2.4 2.5h221.8l1.2 4.1c1.4 4.7 13.2 17.7 20 22.1 5.8 3.7 11.8 3.8 17.7.3l4.2-2.5 7.8 3.3c7.4 3.2 7.9 3.6 8.6 7.1 1.1 5.3 4.4 9.5 9.2 11.7 5.9 2.7 27.3 2.7 33.2 0 4.8-2.2 8.1-6.4 9.2-11.7.7-3.5 1.2-3.9 8.6-7.1l7.8-3.3 4.2 2.5c9.1 5.3 16.4 2.7 28.9-10.3 10.2-10.6 12.1-17.5 7.2-25.8l-2.5-4.2 3.3-7.8c3.2-7.4 3.6-7.9 7.1-8.6 5.3-1.1 9.5-4.4 11.7-9.2 2.7-5.9 2.7-27.3 0-33.2-2.2-4.8-6.4-8.1-11.7-9.2-3.5-.7-3.9-1.2-7.1-8.6l-3.3-7.8 2.5-4.2c4.9-8.3 3-15.2-7.2-25.8-12.5-13-19.8-15.6-28.9-10.3l-4.2 2.5-7.8-3.3c-7.4-3.2-7.9-3.6-8.6-7.1-.5-2.1-1.8-5.2-3-6.8-2.2-3.2-8.8-6.7-12.5-6.8H368V20.9l-2.5-2.4-2.4-2.5H52.9l-2.4 2.5zM352 160v128h-2.2c-3.8.1-10.4 3.6-12.6 6.8-1.2 1.6-2.5 4.7-3 6.8-.7 3.5-1.2 3.9-8.6 7.1l-7.8 3.3-4.2-2.5c-5-2.9-11.2-3.3-15.9-.8-4.4 2.2-16.4 13.9-19.8 19.2-3.7 5.8-3.9 11.9-.5 17.8l2.4 4.2-3.2 7.8c-3.1 7.3-3.5 7.8-7 8.5-5.3 1.1-9.5 4.4-11.7 9.2-2.7 5.9-2.7 27.3 0 33.2 2.2 4.8 6.6 8.3 11.7 9.1 3.3.5 3.9 1.1 6.5 7 1.6 3.6 2.9 6.7 2.9 6.9 0 .2-48.4.4-107.5.4H64V32h288v128zm18.8 148.4c1.4 5.5 5 9.8 9.9 11.9 2.1.9 7.1 3 11.2 4.8 8.7 3.7 14.8 3.7 20.1-.1l3.2-2.3 7 7.1 7.1 7-2.3 3.2c-3.8 5.3-3.8 11.4-.1 20.1 1.8 4.1 3.9 9.1 4.8 11.2 2.1 4.9 6.4 8.5 11.9 9.9l4.4 1.2v19.2l-4.4 1.2c-5.5 1.4-9.8 5-11.9 9.9-.9 2.1-3 7-4.6 11-3.8 8.7-3.9 13.4-.5 19.2l2.5 4.5-6.9 6.9-7 7-3.2-2.3c-5.3-3.8-11.4-3.8-20.1-.1-4.1 1.8-9.1 3.9-11.2 4.8-4.9 2.1-8.5 6.4-9.9 11.9l-1.2 4.4h-19.4l-1.1-4.5c-1.4-5.6-5.8-10.6-10.7-12.4-2.2-.7-7-2.7-10.8-4.3-8.2-3.6-14.4-3.5-19.6.2l-3.2 2.3-7-7.1-7.1-7 2.3-3.2c3.8-5.3 3.8-11.4.1-20.1-1.8-4.1-3.9-9.1-4.8-11.2-2.1-4.9-6.4-8.5-11.9-9.9l-4.4-1.2v-19.2l4.4-1.2c5.5-1.4 9.8-5 11.9-9.9.9-2.1 3-7.1 4.8-11.2 3.7-8.7 3.7-14.8-.1-20.1l-2.3-3.2 7.1-7 7-7.1 3.2 2.3c5.2 3.7 11.4 3.8 19.6.2 3.8-1.6 8.6-3.6 10.8-4.3 4.9-1.8 9.3-6.8 10.8-12.5l1.2-4.4h19.2l1.2 4.4z"/><path d="M134.8 119.7 115 139.5l-5.8-5.8-5.8-5.7-5.7 5.8-5.7 5.7 8.8 8.7c9.2 9.2 12.8 11.3 16.5 9.9 1.2-.5 12.5-11.3 25.2-24l23-23.1-5.5-5.5-5.5-5.5-19.7 19.7zM192 128v8h136v-16H192v8zM134.8 223.7 115 243.5l-5.8-5.8-5.8-5.7-5.7 5.8-5.7 5.7 8.8 8.7c9.2 9.2 12.8 11.3 16.5 9.9 1.2-.5 12.5-11.3 25.2-24l23-23.1-5.5-5.5-5.5-5.5-19.7 19.7zM192 232v8h136v-16H192v8zM134.8 327.7 115 347.5l-5.8-5.8-5.8-5.7-5.7 5.8-5.7 5.7 8.8 8.7c9.2 9.2 12.8 11.3 16.5 9.9 1.2-.5 12.5-11.3 25.2-24l23-23.1-5.5-5.5-5.5-5.5-19.7 19.7zM192 336v8h64v-16h-64v8zM348.5 337.1c-9 1.8-20.8 8.3-27.7 15.2-11.2 11.2-16.3 23.5-16.3 39.7 0 16 5.1 28.5 16.1 39.4 10.9 11 23.4 16.1 39.4 16.1s28.5-5.1 39.4-16.1c11-10.9 16.1-23.4 16.1-39.4 0-11.5-1.4-17-6.8-27.2-3.5-6.7-13-16.7-19.4-20.5-11.7-6.8-28.2-9.7-40.8-7.2zm27.9 18.7c9.1 4.2 14.9 10 19.4 19 3.5 7.2 3.7 8.1 3.7 17.2s-.2 10-3.7 17.2c-4.5 9.1-10.3 14.7-19.6 19.1-6.1 2.9-7.6 3.2-16.2 3.2s-10.1-.3-16.2-3.2c-9.3-4.4-15.1-10-19.6-19.1-3.5-7.2-3.7-8.1-3.7-17.1 0-8.7.3-10.2 3.2-16.3 4-8.5 9.7-14.7 17.2-18.6 7.8-4.2 12.2-5.2 21.3-4.8 6.1.3 9.2 1.1 14.2 3.4z"/></svg>