<svg version="1.0" xmlns="http://www.w3.org/2000/svg" width="682.667" height="682.667" viewBox="0 0 512 512"><path d="M114.3 33.4C95.2 38.2 79.2 54.2 75 72.5c-1.5 6.4-1.5 18.6 0 25 4.2 18.2 20.2 34.3 39.1 39.1 21.5 5.5 48.1-6.6 58.9-26.8 4.4-8.1 6-14.7 6-24.3 0-23.5-13.7-42.9-35.6-50.6-7.5-2.6-21.9-3.4-29.1-1.5zM296.8 33.4c-8.3 3-13.9 9.3-15.7 17.7-1.5 7-1.5 150.9 0 157.9 1.4 6.4 6.1 12.7 11.9 16l4.5 2.5h162.2l4.9-3c3-1.9 6-4.9 7.9-7.9l3-4.9V48.3l-3-4.9c-1.9-3-4.9-6-7.9-7.9l-4.9-3-79.6-.2c-64.7-.2-80.3 0-83.3 1.1zm70.7 74.6c5.5 5.5 10.5 10 11 10s5.5-4.5 11-10c11.1-10.8 13-11.7 17.9-7.9 2 1.5 2.6 2.9 2.6 5.7 0 3.3-1 4.7-10.2 13.9L389.5 130l10.3 10.3c8.8 8.8 10.2 10.7 10.2 13.5 0 4.1-3.8 8.2-7.6 8.2-2.1 0-5.1-2.3-12.9-10-5.5-5.5-10.5-10-11-10s-5.5 4.5-11 10c-11.2 11-13.3 11.8-18.1 7.7-1.9-1.7-2.7-3.3-2.7-5.6 0-2.8 1.5-4.7 10.4-13.7l10.4-10.4-10.4-10.4c-8.9-9-10.4-10.9-10.4-13.7 0-2.3.8-3.9 2.7-5.6 4.8-4.1 6.9-3.3 18.1 7.7z"/><path d="M68.9 140.7c-12.3 9-24.1 22.9-29.6 34.9-9.2 20.1 1.4 43.8 22.6 50.4 6 1.9 9.3 2 64.6 2 53.9 0 58.8-.1 64.3-1.8 11.9-3.8 20.5-12.2 24.2-24.1 3.8-12 1.9-22.2-6.5-35.2-8.3-12.9-27.6-30.9-33.1-30.9-1.3 0-4.7 1.8-7.5 3.9-6.6 5-16.2 9.7-24.2 11.9-9.6 2.6-27.1 2.3-36.7-.7-8.4-2.5-18.4-7.8-23.4-12.2-1.9-1.6-4.5-2.9-5.9-2.9-1.4 0-5.3 2-8.8 4.7zM114.3 285.4C95.5 290 79.2 306.1 75 324.5c-1.5 6.3-1.5 18.6-.1 24.8 4.5 19.2 22.3 36.3 41.6 39.8 26.1 4.8 54.3-12.9 61.1-38.5 1.8-6.8 1.8-19.8-.1-27.1-7.2-27.3-35.9-44.7-63.2-38.1zM296.8 285.4c-8.3 3-13.9 9.3-15.7 17.7-1.5 7-1.5 150.9 0 157.9 1.4 6.4 6.1 12.7 11.9 16l4.5 2.5h162.2l4.9-3c3-1.9 6-4.9 7.9-7.9l3-4.9V300.3l-3-4.9c-1.9-3-4.9-6-7.9-7.9l-4.9-3-79.6-.2c-64.7-.2-80.3 0-83.3 1.1zm122.7 67.1c1.7 1.6 2.5 3.5 2.5 5.7 0 3-2.4 5.8-26.3 29.6C373.5 410 369 414 366.5 414c-2.4 0-5.4-2.5-17.3-14.4-12.8-12.7-14.5-14.8-14.5-17.6 0-2.4.8-4 2.7-5.7 4.8-4.1 6.9-3.3 18.1 7.7 5.5 5.5 10.5 10 11 10s10.9-9.9 23-22c24-23.9 25-24.6 30-19.5z"/><path d="M68.9 392.7c-12.3 9-24.1 22.9-29.6 34.9-9.2 20.1 1.4 43.8 22.6 50.4 6 1.9 9.3 2 64.6 2 53.9 0 58.8-.1 64.3-1.8 11.9-3.8 20.5-12.2 24.2-24.1 3.8-12 1.9-22.2-6.5-35.2-8.3-12.9-27.6-30.9-33.1-30.9-1.3 0-4.7 1.8-7.5 3.9-6.6 5-16.2 9.7-24.2 11.8-8.4 2.3-26 2.3-34.7 0-8.1-2.1-19.7-7.9-24.9-12.3-2.2-1.9-5-3.4-6.4-3.4-1.4 0-5.3 2.1-8.8 4.7z"/></svg>