<svg version="1.0" xmlns="http://www.w3.org/2000/svg" width="682.667" height="682.667" viewBox="0 0 512 512"><path d="M140.1 36.2c4.3 13.4 7.9 25.3 7.9 26.4 0 2.5-3.2 6.9-6.2 8.5-1.5.8-80.7 30.9-90.6 34.4-.8.3 3.6 7.7 12.6 21.2 7.7 11.5 15.3 23.5 17 26.8 7.2 14.4 12.1 33.1 14.1 53.9.7 7.1 1.1 56.9 1.1 142 0 125.6.1 131.3 1.9 135.1 7.6 16.4 33.2 20.4 46.9 7.2 7.3-6.9 6.6 6.4 7.3-151.2.6-150.2.4-146.6 5.4-165.9 3.3-13.2 7.6-23.5 15.3-37.1 8.1-14.2 13.4-26.3 16.4-37.1 2.9-10.7 3.2-34.6.5-44.4-3.1-10.9-8.4-20.9-14.6-27.1-8.9-8.8-27.3-16.9-38.7-16.9h-4.2l7.9 24.2zM159 94.8c5.7 4.3 6.3 10.4 1.7 17.3-2 3-4.9 4.3-29.1 13.6-14.8 5.7-28.3 10.3-30 10.3-4.8 0-11.8-4-12.9-7.3-1.2-3.7-.2-8.7 2.6-12.7 2-2.9 5.1-4.5 28.7-13.6 23.9-9.4 27-10.3 31.5-9.9 2.7.2 6.1 1.3 7.5 2.3zm-22.8 93 3.3 3.2v242l-3.3 3.2c-3.2 3.2-3.4 3.3-12.2 3.3-8.8 0-9-.1-12.2-3.3l-3.3-3.2V191.2l2.5-2.7c3.6-3.9 5.6-4.5 14.2-4.2 7.3.2 8 .4 11 3.5zm-5.9 265.6c10.3 4.3 12.8 17.7 4.8 25.7-11.2 11.3-29.6 1.2-26.7-14.6 1.8-9.4 12.8-15 21.9-11.1z"/><path d="M122.8 109.9c-22.4 8.7-24.9 9.9-26 12.5-1 2.5-.9 3 .7 4.2 1 .8 2.8 1.4 3.9 1.4 1 0 13.3-4.4 27.2-9.7 23.1-8.9 25.5-10 26.6-12.7 1-2.5.9-3.1-.7-4.2-1-.8-3-1.3-4.4-1.3-1.4.1-13.7 4.5-27.3 9.8zM117.2 193.2c-1.7 1.7-1.7 235.9 0 237.6 1.6 1.6 12 1.6 13.6 0 1.7-1.7 1.7-235.9 0-237.6-1.6-1.6-12-1.6-13.6 0zM74.5 37C66 49.8 61.2 64.5 60.4 80.5c-.3 5.5-.1 10.6.4 11.3 1.2 1.7 39.8-12.8 39.4-14.9C99.6 74 80.5 30 79.8 30c-.3 0-2.7 3.1-5.3 7zM326.7 33.2c-3.6 14.5-4.3 54.1-1.3 74.3 1.7 12.3 5.5 30.6 8.1 39.3l1.5 4.9 5.6-2.9c3.1-1.5 6.3-2.8 7.1-2.8.7 0 1.6-.6 1.9-1.4.5-1.2-21.2-112.5-22.1-113.4-.1-.2-.5.7-.8 2zM381.1 87c-6.2 30.9-11 56.8-10.7 57.6.3.8 1.2 1.4 1.9 1.4.8 0 4 1.3 7.1 2.8l5.6 2.9 1.5-4.9c2.6-8.8 6.4-27 8.1-39.3 3-20.8 2.1-65-1.5-74.9-.5-1.1-5.1 19.7-12 54.4zM314.1 40.2c-10.2 22.2-15 47.6-13.8 72.8 1 18.6 3.7 32.3 10.4 52.2 4 11.9 5.9 13.6 8.2 7.3.6-1.9 3-6.1 5.1-9.3l4-5.9-4-15.5c-6.7-26.4-8.4-40.5-8.3-68.8 0-17 .5-27 1.5-32.8.8-4.5 1.3-8.2 1.1-8.2-.3 0-2.1 3.7-4.2 8.2zM402.6 39.7c.8 4.3 1.6 15.2 2 24.3 1.1 26.1-1.8 51.1-9.1 79.7l-3.5 13.5 3.9 5.9c2.2 3.2 4.5 7.5 5.1 9.4.7 2.2 1.8 3.5 2.9 3.5 1.4 0 2.7-2.8 5.9-12.3 12-35.9 13.2-70.2 3.7-103.1-2.4-8.4-9.6-26.1-11.3-27.8-.5-.5-.3 2.6.4 6.9zM350.5 153.4c-10.7 3.4-18.6 10.2-23.2 20.1-2.4 5.1-2.8 7.3-2.8 14.5s.4 9.4 2.8 14.6c3.6 7.7 10.4 14.5 18.2 18.1 5.1 2.4 7.3 2.8 14.5 2.8s9.4-.4 14.5-2.8c7.8-3.6 14.6-10.4 18.2-18.1 2.4-5.2 2.8-7.4 2.8-14.6 0-7.2-.4-9.4-2.8-14.5-3-6.5-8.1-12.4-13.8-16-7.8-5-19.9-6.8-28.4-4.1zm16.9 11.8c8.6 2.6 16.6 13.6 16.6 22.8 0 12.4-11.6 24-24 24-6.3 0-11.4-2.3-16.5-7.5-10.2-10.1-10.2-22.9 0-33 7-7.1 14.5-9 23.9-6.3z"/><path d="M353.5 173.4c-10.1 4.4-12.5 17.8-4.6 25.7 11.2 11.3 29.6 1.2 26.7-14.6-1.8-9.4-13.1-15.1-22.1-11.1zM318.4 206.2c-6.1 9.3-14 24.4-13 24.9 1.7.9 27.6 7.2 28 6.8.1-.2 1.2-2.9 2.5-5.9l2.2-5.5-3.8-3c-5.7-4.5-9.2-8.4-12.3-13.8-2-3.6-3-4.5-3.6-3.5zM400 205.7c0 2.5-8.5 13.5-13 16.8l-4.9 3.6 2 5.2c1.1 2.9 2.4 5.6 2.8 6 .7.7 23.2-4.3 27.2-6.1 1.4-.6.7-2.5-5.1-12.6-6.9-12-9-15-9-12.9zM287.8 237.7c-.9 1-2.5 3.7-3.7 6L282 248h-9.8c-15.6 0-16 2.4-2.9 15.9 15 15.5 15 16.9 2.3 51.8-13.5 37.3-14.4 41.7-15.3 73.3-.5 20.7-.4 22.8 3.6 56.5 2.2 19.2 4.5 36.6 5.1 38.5 3.3 11.8 19 19.2 30.3 14.2 5.6-2.5 9-7.3 11.4-16.3l1.7-6.6-4.7-34.4c-8-58.4-7-70 11.2-128.4 5.5-17.6 12.2-39.5 14.9-48.8l4.9-16.7-3.6-.9c-10.7-2.9-40.1-10.1-40.9-10.1-.5 0-1.6.8-2.4 1.7zM406 241.5c-17.9 4.6-20.5 5.5-20.2 7.2.4 2.2 9.7 33.1 20.4 67.8 9 29.2 12.1 42.8 13.9 59.4 1.7 16 .8 29.9-4.2 66.9l-4.3 32.4 1.7 6.6c2.3 8.6 5.8 13.6 11.4 16.3 10.6 5.1 26.5-1.9 30.1-13.3.6-1.8 3-19.3 5.3-38.8 4-34.2 4.1-36.3 3.6-57-.8-31.4-1.8-35.9-15.3-73.3-12.7-34.9-12.7-36.2 2.3-51.9 13-13.5 12.6-15.6-3.2-16l-9.9-.3-3.1-5.5c-2.3-4.2-3.6-5.5-5.5-5.6-1.4-.1-11.7 2.2-23 5.1z"/></svg>