<svg version="1.0" xmlns="http://www.w3.org/2000/svg" width="682.667" height="682.667" viewBox="0 0 512 512"><path d="M239 .6c-43.1 5.3-72.7 19.8-92.4 45.4-21.1 27.4-25.9 64.5-14.4 111l2.1 8.6-3.1 5.4c-15.8 28.7 8.7 63.7 40.8 58.2 9.4-1.6 11.6-1.5 12.6.5.5 1 1.1 11.2 1.4 22.8.5 18.7.8 21.5 2.7 25.6 2.7 6 9.2 12.5 15.2 15.3 4.5 2.1 5.6 2.1 52.1 2.1s47.6 0 52.1-2.1c6-2.8 12.5-9.3 15.3-15.3 1.9-4.1 2.1-6.6 2.4-24.6.1-11 .5-21.1.8-22.4l.5-2.4 11.7.7c13.2.7 19.1-.4 26.9-5 19-11.1 25.6-34.3 15.1-53.4l-3.1-5.4 2.1-8.6c13-52.7 5.2-92.9-23.5-121.1-17.3-17-39-27.6-67.7-33C278.8 1 247.4-.4 239 .6zm45.5 21.9c34.8 6.2 60.4 22.9 72.5 47.4 7.4 14.9 10.1 32.2 8.2 52.9-1.3 14.1-4 28.6-7.1 37.6-2.8 8-2.7 9.6 1.5 15 1.9 2.5 4.2 6.2 5 8.1 3.9 9.3-1.1 20.2-11.4 24.7-3.8 1.7-5.3 1.8-15.1.9-14-1.3-17.1-.8-22.5 4-8.1 7.1-8.9 10.2-9.6 35.1l-.5 21.8-2.7 2.7c-2.4 2.3-3.8 2.8-9.7 3.1l-7 .4-.3-20.2-.3-20.2-3.4-3c-2.8-2.5-3.9-2.9-7-2.4-2.3.3-4.6 1.7-6.3 3.6l-2.8 3v39h-19.9l-.3-20.1-.3-20.1-3.4-3c-2.8-2.5-3.9-2.9-7-2.4-2.3.3-4.6 1.7-6.3 3.6l-2.8 3v39.2l-7-.4c-6-.3-7.4-.8-9.8-3.1l-2.7-2.7-.5-21.3c-.4-18.8-.7-21.7-2.6-25.7-6.1-13.2-15.7-17.3-32.3-13.9-7.8 1.6-13.3 0-18.7-5.5-8.4-8.3-8.4-17.2 0-28.2 4.2-5.4 4.3-7 1.5-15-3.1-9-5.8-23.5-7.1-37.6-3.9-42 11.5-71.9 46-89.2 13-6.5 28.2-10.6 48.2-13 7.3-.9 34.9.3 43.5 1.9z"/><path d="M189.9 111.5c-15.6 5-24.7 19-23.7 36.6 1.1 18.1 13.6 31.2 31.2 32.6 5.3.5 7.8 0 18.9-3.7 11.3-3.8 13.5-4.9 18.2-9.2 7.9-7.2 11-14.1 11-24.3 0-13.6-6.3-23.8-18.3-29.7-6.4-3.2-7.2-3.3-19.7-3.5-9.2-.2-14.3.2-17.6 1.2zM289.9 111.5c-19.5 6.2-29.2 28.1-20.4 46 1.5 3.1 4.9 7.5 8 10.3 4.7 4.3 6.9 5.4 18.2 9.2 11.1 3.7 13.6 4.2 18.9 3.7 7.2-.5 15.4-4 20.7-8.6 2-1.8 5.1-6.3 6.9-9.9 3.1-6.2 3.3-7.4 3.3-16.7 0-8.7-.3-10.7-2.6-15.5-3.7-8-8.1-12.5-15.7-16.2-6.4-3.2-7.2-3.3-19.7-3.5-9.2-.2-14.3.2-17.6 1.2zM232.4 191c-3.2 1.3-6.4 5.9-6.4 9.1 0 4 4.6 8.8 9.1 9.5 3.1.5 4.2.1 7-2.4s3.4-3.7 3.4-7.2-.6-4.7-3.3-7.1c-3.3-2.9-6-3.5-9.8-1.9zM272.4 191c-3.2 1.3-6.4 5.9-6.4 9.1 0 4 4.6 8.8 9.1 9.5 3.1.5 4.2.1 7-2.4s3.4-3.7 3.4-7.2-.6-4.7-3.3-7.1c-3.3-2.9-6-3.5-9.8-1.9zM96.1 253.5c-14.7 4.1-24.7 14.3-28.5 29-.9 3.2-1.6 8-1.6 10.6 0 4.3-.3 4.9-3.5 6.9-4.7 2.9-9.9 9.4-13.2 16.6-2.4 5.1-2.8 7.1-2.8 15.4.1 11.9 2.5 18.7 9.5 26.3 15.5 17 41.9 17.9 58.1 2.1l4.6-4.6 30.2 12.9c16.5 7 30.1 13 30.1 13.3 0 .3-13.6 6.3-30.1 13.3l-30.1 12.8-4.9-4.6c-2.7-2.5-8-6.1-11.7-7.8-5.9-2.8-7.8-3.2-15.2-3.2-13.6 0-24.3 4.9-32 14.7-6 7.5-8.4 14.7-8.4 25.3-.1 7.8.3 9.8 2.7 14.9 3.2 7 8.2 13.3 13 16.6 3.3 2.2 3.5 2.7 4 9.4 1.3 17 10.4 29.6 25.7 35.8 4.2 1.6 7.7 2.2 14.5 2.2 8.1.1 9.7-.2 15.7-3.1 9.2-4.3 14.8-9.8 19.4-19 3.7-7.3 3.9-8 3.9-17.5V462l55.2-23.7 55.3-23.7 55.3 23.7 55.2 23.7v9.9c0 9.4.1 10.1 3.9 17.5 4.6 9 9.9 14.1 19.5 18.9 6 2.9 7.4 3.2 15.6 3.1 6.8 0 10.3-.6 14.5-2.2 15.4-6.2 24.4-18.8 25.7-36 .6-6.9.7-7.3 3.9-9.3 4.6-2.8 9.8-9.3 13.1-16.5 2.4-5.1 2.8-7.1 2.8-15.4-.1-11.9-2.5-18.7-9.5-26.3-15.5-17-41.9-17.9-58.1-2.1l-4.6 4.6-30.2-12.9c-16.5-7-30.1-13-30.1-13.3 0-.3 13.6-6.3 30.1-13.3l30.1-12.8 4.9 4.6c2.7 2.5 8 6.1 11.7 7.8 6 2.9 7.6 3.2 15.7 3.1 10.6 0 17.8-2.4 25.3-8.4 9.8-7.7 14.7-18.4 14.7-32-.1-7.1-.5-9.5-2.8-14.4-3.2-7-8.2-13.3-13-16.6-3.3-2.2-3.5-2.7-4-9.4-1.3-17-10.4-29.6-25.7-35.8-4.2-1.6-7.7-2.2-14.5-2.2-8.1-.1-9.7.2-15.6 3-8.2 3.9-14 9-17.8 15.8-4.5 7.9-6.5 15.8-5.8 23.7l.6 6.7-55.5 23.8-55.4 23.8-55.3-23.7-55.2-23.7v-9.9c0-9.4-.1-10.1-3.9-17.4-4.6-9.1-9.7-14.2-18.8-18.6-8-4-18.2-5-26.7-2.6zm16.1 19.7c7 2.1 13.8 11.1 13.8 18.2 0 .9-.9 4.2-2 7.3-2.7 7.6-2.6 11.8.3 14.6 1.2 1.3 25.2 12.1 53.2 24.1 28.1 12 51.3 22.1 51.7 22.5.4.4-4.8 3-11.6 6l-12.4 5.2-44.5-19C136.2 341.6 115.2 333 114 333c-3.9 0-7.6 2.8-10.4 8-6.6 12.2-22 14.6-31.7 4.9-5.1-5.1-6.6-10.4-5.1-17.5 1.5-7.6 4.3-10.9 12.1-14.9 8.4-4.2 10-7 8.3-14.7-1.7-7.2-1.5-9.8 1.3-15.5 4.6-9.2 13.7-13.1 23.7-10.1zm299.9 0c5.4 1.8 8.7 4.8 11.4 10.2 2.8 5.6 3 8.2 1.3 15.4-1.7 7.5-.1 10.5 7.5 14.3 7.3 3.7 11.1 7.8 12.7 13.5 4.1 14.7-9.1 28.4-23.7 24.5-5.4-1.5-10.6-5.7-13.4-10.9-2.3-4.4-6.1-7.2-9.9-7.2-3.4 0-271.2 115.1-273.7 117.7-2.9 2.8-3 7.1-.3 14.1 2.6 6.8 2.5 9.8-.5 15.8-7 14.1-25.2 15.2-34.1 2-3.1-4.6-3.9-9.7-2.4-16.6 1.8-8.5.5-11.2-7.3-15.1-7.3-3.7-11.1-7.8-12.7-13.5-4.1-14.7 9.1-28.4 23.7-24.5 5.4 1.5 10.6 5.7 13.4 10.9 2.3 4.4 6.1 7.2 9.9 7.2 3.4 0 271.2-115.1 273.8-117.7 2.8-2.8 2.9-7.1.2-14.1-2.6-6.9-2.5-9.8.5-15.9 4.6-9.1 14.3-13.3 23.6-10.1zM351.5 412c24.4 10.4 45.3 19 46.5 19 3.9 0 7.6-2.8 10.4-8 6.6-12.2 22-14.6 31.7-4.9 5.1 5.1 6.6 10.4 5.1 17.5-1.5 7.6-4.3 10.9-12.1 14.9-8.4 4.2-10 7-8.3 14.7 1.7 7.2 1.5 9.8-1.3 15.4-8.3 16.7-31.8 14.2-36.6-3.8-1.1-4-1-5.3.9-11 2.8-8.3 2.8-12.3 0-15.1-1.3-1.3-25.2-12.1-53.3-24.1-28-12-51.3-22.1-51.7-22.5-.7-.6 21.1-10.7 23.5-11 .5-.1 20.8 8.4 45.2 18.9z"/></svg>