<svg version="1.0" xmlns="http://www.w3.org/2000/svg" width="682.667" height="682.667" viewBox="0 0 512 512"><path d="M32 17.3c-4.9 1.6-13.3 10.2-14.8 15.3-1.8 6-1.8 440.8 0 446.8 1.6 5.5 9.9 13.8 15.4 15.4 6 1.8 440.8 1.8 446.8 0 5.5-1.6 13.8-9.9 15.4-15.4 1.8-6 1.8-440.8 0-446.8-1.6-5.5-9.9-13.8-15.4-15.4-5.7-1.7-442.1-1.6-447.4.1zm445.5 17.2c2.5 2.4 2.5 2.4 2.5 24V80H32V58.5c0-21.6 0-21.6 2.5-24l2.4-2.5h438.2l2.4 2.5zm2.5 251v189.6l-2.5 2.4-2.4 2.5H36.9l-2.4-2.5-2.5-2.4V96h448v189.5z"/><path d="M50.5 50.5C48.9 52 48 54.1 48 56s.9 4 2.5 5.5c2.1 2.2 3.3 2.5 9.5 2.5s7.4-.3 9.5-2.5c3.3-3.2 3.3-7.8 0-11-2.1-2.2-3.3-2.5-9.5-2.5s-7.4.3-9.5 2.5zM90.5 50.5C88.9 52 88 54.1 88 56s.9 4 2.5 5.5c2.1 2.2 3.3 2.5 9.5 2.5s7.4-.3 9.5-2.5c3.3-3.2 3.3-7.8 0-11-2.1-2.2-3.3-2.5-9.5-2.5s-7.4.3-9.5 2.5zM130.5 50.5c-1.6 1.5-2.5 3.6-2.5 5.5s.9 4 2.5 5.5c2.1 2.2 3.3 2.5 9.5 2.5s7.4-.3 9.5-2.5c1.6-1.5 2.5-3.6 2.5-5.5s-.9-4-2.5-5.5c-2.1-2.2-3.3-2.5-9.5-2.5s-7.4.3-9.5 2.5zM218.5 50.5c-1.6 1.5-2.5 3.6-2.5 5.5s.9 4 2.5 5.5l2.4 2.5h198.2l2.4-2.5c1.6-1.5 2.5-3.6 2.5-5.5s-.9-4-2.5-5.5l-2.4-2.5H220.9l-2.4 2.5zM442.5 50.5c-1.6 1.5-2.5 3.6-2.5 5.5s.9 4 2.5 5.5c2.1 2.2 3.3 2.5 9.5 2.5s7.4-.3 9.5-2.5c1.6-1.5 2.5-3.6 2.5-5.5s-.9-4-2.5-5.5c-2.1-2.2-3.3-2.5-9.5-2.5s-7.4.3-9.5 2.5zM138 129.4c-21.6 4.6-40.4 18.9-49.9 37.8-6.1 12.3-7.6 19-7.5 33.8.1 10.7.5 13.7 2.7 20.5 3.8 11.5 9 19.8 18.2 29 13.1 13.1 27.7 19.9 45.4 21.2 43.4 3 79.6-33 76.7-76.5-.6-10.7-4.3-22.8-9.7-32-4.9-8.2-18-21.1-26.2-25.7-14.8-8.2-34.3-11.3-49.7-8.1zm6 44.8v29.2l20.6 20.7 20.7 20.8-4.9 3.1c-8.1 5.1-17.4 7.5-28.9 7.5-24.9-.1-44.8-14.9-53.1-39.5-2.6-7.6-2.6-24.4 0-32 4.5-13.4 13.8-25.5 24.3-31.7 5.5-3.2 15.9-7.2 19.1-7.2l2.2-.1v29.2zm25.8-27.1c16 5.4 29.7 19.1 35.1 35.1 3.6 10.7 5.5 9.8-21.4 9.8H160v-23.5c0-26.9-.9-25 9.8-21.4zm37.2 62.3c0 3.2-4.1 14.4-6.9 18.8-1.7 2.7-3.2 4.8-3.3 4.8-.2 0-5.9-5.6-12.8-12.5L171.5 208h17.8c14.5 0 17.7.3 17.7 1.4zM274.5 130.5c-1.6 1.5-2.5 3.6-2.5 5.5s.9 4 2.5 5.5c2.1 2.2 3.3 2.5 9.5 2.5s7.4-.3 9.5-2.5c1.6-1.5 2.5-3.6 2.5-5.5s-.9-4-2.5-5.5c-2.1-2.2-3.3-2.5-9.5-2.5s-7.4.3-9.5 2.5zM314.5 130.5c-1.6 1.5-2.5 3.6-2.5 5.5s.9 4 2.5 5.5l2.4 2.5h126.2l2.4-2.5c1.6-1.5 2.5-3.6 2.5-5.5s-.9-4-2.5-5.5l-2.4-2.5H316.9l-2.4 2.5zM274.5 162.5c-1.6 1.5-2.5 3.6-2.5 5.5s.9 4 2.5 5.5l2.4 2.5h166.2l2.4-2.5c1.6-1.5 2.5-3.6 2.5-5.5s-.9-4-2.5-5.5l-2.4-2.5H276.9l-2.4 2.5zM274.5 194.5c-1.6 1.5-2.5 3.6-2.5 5.5s.9 4 2.5 5.5l2.4 2.5h166.2l2.4-2.5c1.6-1.5 2.5-3.6 2.5-5.5s-.9-4-2.5-5.5l-2.4-2.5H276.9l-2.4 2.5zM274.5 226.5c-1.6 1.5-2.5 3.6-2.5 5.5s.9 4 2.5 5.5l2.4 2.5h166.2l2.4-2.5c1.6-1.5 2.5-3.6 2.5-5.5s-.9-4-2.5-5.5l-2.4-2.5H276.9l-2.4 2.5zM274.5 258.5c-1.6 1.5-2.5 3.6-2.5 5.5s.9 4 2.5 5.5l2.4 2.5h126.2l2.4-2.5c1.6-1.5 2.5-3.6 2.5-5.5s-.9-4-2.5-5.5l-2.4-2.5H276.9l-2.4 2.5zM426.5 258.5c-1.6 1.5-2.5 3.6-2.5 5.5s.9 4 2.5 5.5c2.1 2.2 3.3 2.5 9.5 2.5s7.4-.3 9.5-2.5c1.6-1.5 2.5-3.6 2.5-5.5s-.9-4-2.5-5.5c-2.1-2.2-3.3-2.5-9.5-2.5s-7.4.3-9.5 2.5zM66.5 306.5c-1.6 1.5-2.5 3.6-2.5 5.5s.9 4 2.5 5.5c2.1 2.2 3.3 2.5 9.5 2.5s7.4-.3 9.5-2.5c3.3-3.2 3.3-7.8 0-11-2.1-2.2-3.3-2.5-9.5-2.5s-7.4.3-9.5 2.5zM106.5 306.5c-1.6 1.5-2.5 3.6-2.5 5.5s.9 4 2.5 5.5l2.4 2.5h126.2l2.4-2.5c1.6-1.5 2.5-3.6 2.5-5.5s-.9-4-2.5-5.5l-2.4-2.5H108.9l-2.4 2.5zM274.5 306.5l-2.5 2.4v134.2l2.5 2.4 2.4 2.5h166.2l2.4-2.5 2.5-2.4V308.9l-2.5-2.4-2.4-2.5H276.9l-2.4 2.5zM432 342.7l-.1 22.8-9.2-18c-7.6-14.9-9.7-18.2-11.9-18.9-5.8-2-7.4-.4-19.7 20.2L379.5 368h-10.7c-5.8 0-11.3.3-12.2.6-.8.3-5.9 6.4-11.2 13.5-5.3 7.1-9.9 12.9-10.2 12.9-.3 0-3.1-2.5-6.3-5.5-8.9-8.5-9.4-8.3-25.7 7.7-7.4 7.3-13.8 14.2-14.2 15.3-.5 1.1-.9-18.8-.9-45.3L288 320h144v22.7zM419.9 375c3.3 1.7 7.1 1.1 9.6-1.5l2.5-2.4V432H288v-7.8c0-6.9.2-7.4 1.3-5.2 1.8 3.6 5.8 5.3 9.4 4 1.5-.6 6.9-5.2 12-10.2l9.2-9.2 6.5 6.2c7 6.7 10.5 7.8 14.4 4.4 1.1-.9 6.8-8.1 12.6-16l10.7-14.2h11.3c9.4 0 11.7-.3 13.4-1.8 1.1-.9 5.7-8 10.2-15.6l8.3-13.9 5.3 10.6c3 5.8 6.3 11.1 7.3 11.7zM66.5 338.5c-1.6 1.5-2.5 3.6-2.5 5.5s.9 4 2.5 5.5l2.4 2.5h166.2l2.4-2.5c3.3-3.2 3.3-7.8 0-11l-2.4-2.5H68.9l-2.4 2.5zM66.5 370.5c-1.6 1.5-2.5 3.6-2.5 5.5s.9 4 2.5 5.5l2.4 2.5h166.2l2.4-2.5c3.3-3.2 3.3-7.8 0-11l-2.4-2.5H68.9l-2.4 2.5zM66.5 402.5c-1.6 1.5-2.5 3.6-2.5 5.5s.9 4 2.5 5.5l2.4 2.5h166.2l2.4-2.5c3.3-3.2 3.3-7.8 0-11l-2.4-2.5H68.9l-2.4 2.5zM66.5 434.5c-1.6 1.5-2.5 3.6-2.5 5.5s.9 4 2.5 5.5l2.4 2.5h126.2l2.4-2.5c1.6-1.5 2.5-3.6 2.5-5.5s-.9-4-2.5-5.5l-2.4-2.5H68.9l-2.4 2.5zM218.5 434.5c-1.6 1.5-2.5 3.6-2.5 5.5s.9 4 2.5 5.5c2.1 2.2 3.3 2.5 9.5 2.5s7.4-.3 9.5-2.5c1.6-1.5 2.5-3.6 2.5-5.5s-.9-4-2.5-5.5c-2.1-2.2-3.3-2.5-9.5-2.5s-7.4.3-9.5 2.5z"/></svg>