<svg version="1.0" xmlns="http://www.w3.org/2000/svg" width="682.667" height="682.667" viewBox="0 0 512 512"><path d="M10.5 1.4c-3.7 1.7-8 6.2-9.4 9.9-1.5 4-1.5 485.4 0 489.4 1.4 3.8 5.7 8.3 9.6 9.9 4.8 2.1 485.7 2.1 490.6 0 4.3-1.7 9.5-7.8 10.2-11.8.3-1.8.4-112.2.3-245.4l-.3-242-2.5-3.7c-1.4-2.1-4.3-4.6-6.6-5.7-4-2-6.6-2-246.5-2C55.6.1 13 .3 10.5 1.4zM495 256v239H17V17h478v239z"/><path d="M44.5 35.9c-4.8 2.2-6.9 4.4-9 9.4-1.3 3.1-1.5 9.9-1.5 43.9 0 23.4.4 41.8 1 43.8 1.1 4.1 6.1 9.4 10.3 10.9 1.9.8 26.3 1.1 74.3 1.1 77.7 0 75.2.2 80.5-5.6 4.7-5.2 4.9-7.1 4.9-50.1 0-34.1-.2-40.9-1.5-44-2.1-5-4.2-7.2-9-9.4-3.8-1.7-8.2-1.9-75-1.9s-71.2.2-75 1.9zM188 89.5V128H51V51h137v38.5zM465.5 35.2c-3.7 2.1-4.4 4.1-4.5 12 0 7.4.1 7.7 3.2 10.3 3.8 3.2 8.1 2.9 11.6-1.1 1.8-2.1 2.2-3.7 2.2-9.5 0-6.5-.2-7.3-2.9-10-3.1-3-6.3-3.6-9.6-1.7zM463.5 79.5c-4.7 4.6-2.4 12.5 4.2 14.1 3.3.9 7.2-1.2 9.2-4.7 4.4-8-6.9-16-13.4-9.4zM244.5 175.6c-32.1 5.2-57.8 27.9-66.7 59.1-3.2 11.2-3.2 31.4 0 42.6 8 28.2 29.7 49.4 58.2 57.3 10 2.8 31 2.6 41.3-.4 28.2-8.1 49.4-29.7 57.3-58.2 2.5-9.1 2.5-30.9 0-40-7.8-28.3-29.2-50.2-56.8-58-7.2-2.1-26.5-3.4-33.3-2.4zm25 17.9C298 199.4 320 226.6 320 256c0 29.7-21.8 56.5-51 62.6-27.7 5.8-57.5-8.5-69.9-33.7-12.6-25.5-8-54.1 11.8-74 15.6-15.5 37-21.9 58.6-17.4z"/><path d="M244 210.8c-17.7 4.6-31.1 19.5-34.2 37.9-5.2 30.8 22.7 58.7 53.4 53.5 20.4-3.5 35.5-18.6 39-39 2.4-14.3-2.5-29.6-13.1-40.1-12.3-12.2-28.5-16.6-45.1-12.3zm24.5 18.1c5.6 2.5 11.5 8.5 14.6 14.7 1.8 3.8 2.3 6.5 2.3 12.4 0 8.8-2.5 15.1-8.4 21s-12.2 8.4-21 8.4c-8.9 0-15.1-2.5-21.3-8.7-15.7-15.7-8.3-43.3 13.3-49.4 5.7-1.6 14.9-.9 20.5 1.6zM249.7 359.4c-7.5 2-12.7 6.3-16.2 13.1l-3 5.9v80.1l3 5.5c10.1 18.3 34.9 18.3 45 0l3-5.5.3-36.8c.4-40.7 0-44.9-5.1-52.4-5.6-8.3-17.3-12.5-27-9.9zm12.4 19.2 2.4 2.6.3 34.6c.4 39.1.1 41.3-5.4 43.9-3.2 1.6-3.6 1.6-6.8 0-5.5-2.6-5.8-4.8-5.4-43.9l.3-34.6 2.4-2.6c1.8-1.9 3.5-2.6 6.1-2.6 2.6 0 4.3.7 6.1 2.6z"/></svg>