<svg xmlns="http://www.w3.org/2000/svg" width="512" height="512" style="shape-rendering:geometricPrecision;text-rendering:geometricPrecision;image-rendering:optimizeQuality;fill-rule:evenodd;clip-rule:evenodd"><path style="opacity:.966" d="M188.5-.5h134c9.714 7.2 10.047 14.7 1 22.5a1181.558 1181.558 0 0 1-68 1.5c-22.728.151-45.395-.349-68-1.5-9.047-7.8-8.714-15.3 1-22.5Z"/><path style="opacity:.932" d="M191.5 45.5c42.668-.167 85.335 0 128 .5 6.633 1.258 10.3 5.258 11 12-.7 6.742-4.367 10.742-11 12-42.667.667-85.333.667-128 0-6.633-1.258-10.3-5.258-11-12 .804-6.822 4.471-10.988 11-12.5ZM190.5 92.5c43.335-.167 86.668 0 130 .5 9.45 3.975 11.784 10.475 7 19.5-2.217 3.047-5.217 4.547-9 4.5-42 .667-84 .667-126 0-11.449-3.231-14.283-10.064-8.5-20.5 2.095-1.625 4.261-2.958 6.5-4Z"/><path style="opacity:.987" d="M260.5 511.5h-10A39735.893 39735.893 0 0 0 98 362.5c-4.643-8.451-2.81-14.951 5.5-19.5 24.331-.5 48.664-.667 73-.5-.167-62.668 0-125.334.5-188 1.664-7.51 6.164-12.343 13.5-14.5 43.333-.667 86.667-.667 130 0 2.315 1.109 3.815 2.943 4.5 5.5a6606.235 6606.235 0 0 1 1.5 197c27.002-.167 54.002 0 81 .5 8.44 4.454 10.274 10.954 5.5 19.5a39735.893 39735.893 0 0 0-152.5 149Z"/></svg>