<svg xmlns="http://www.w3.org/2000/svg" viewBox="0 0 512 512" fill="#971c09">
  <path d="M251.4 1.3c-2.3 1.3-147.2 142.8-151.8 148.2-3.4 4-3.9 9.9-1.2 14.1 3.4 5.1 5.5 5.4 44.1 5.4H178l.2 95.3.3 95.3 2.7 4.1c5.4 8.1 2.2 7.8 73.8 8 49.8.2 64 0 66-1 1.4-.7 3-2.8 3.7-4.7.9-2.6 1.2-28 1.2-100.3l.1-96.7h39.5c42.9 0 44.6-.2 48.1-5.4 2.7-4.2 2.2-10.1-1.2-14.1-4.5-5.2-148.3-145.8-151.3-147.7-3-2.1-6.7-2.2-9.7-.5zM188.3 396.6c-3.3 1.6-6.3 6.6-6.3 10.4 0 3.1 2.5 7.5 5.4 9.4 2.3 1.4 8.9 1.6 68.6 1.6 72.7 0 69.2.3 72.6-6.1 1.8-3.6 1.8-6.3-.2-10.4-3.1-6.7-1.2-6.5-72.6-6.5-56.3 0-64.7.2-67.5 1.6zM187.9 443.5c-2.7 1.4-5.9 6.9-5.9 9.9 0 .9.6 3.2 1.4 5.1 2.8 6.7.4 6.5 72.6 6.5 72.2 0 69.8.2 72.6-6.5 1.8-4.4 1.8-5.9-.2-10.1-3.2-6.6-.5-6.4-72.6-6.4-54.5.1-65.7.3-67.9 1.5zM186.8 491.3c-5 4.2-5.9 8.5-3.2 14.2 3.1 6.7 1.2 6.5 72.4 6.5s69.3.2 72.4-6.5c2-4.1 2-6.8.2-10.4-3.4-6.4.1-6.1-72.8-6.1h-66.3l-2.7 2.3z"/>
</svg>
