<svg xmlns="http://www.w3.org/2000/svg" viewBox="0 0 512 512" fill="#00445b;">
  <path d="M28.2 84.1c-10.8 1.8-20.9 9.6-25.5 19.7C.6 108.4.5 109.6.5 150v41.5l2.6 5.5c3.7 8 8.1 12.5 15.7 16.2l6.7 3.3h461l5.5-2.6c8-3.7 12.5-8.1 16.2-15.7l3.3-6.7V150c0-40.4-.1-41.6-2.2-46.2-2.8-6.2-9.7-13.4-15.4-16.3-2.6-1.4-7.5-2.9-11-3.5-8-1.2-446.9-1.2-454.7.1zM23.9 296.6c-6.8 2.1-14 7.2-17.7 12.8-6.1 9.2-6.3 11.2-6 54.8.3 44.6.2 43.9 8.9 53.3 5.3 5.8 11.7 9.1 20 10.5 8.9 1.4 444.9 1.4 453.8 0 3.5-.6 8.4-2.1 11-3.5 5.7-2.9 12.6-10.1 15.4-16.3 2.1-4.6 2.2-5.8 2.2-46.2v-41.5l-3.3-6.7c-3.7-7.6-8.2-12-16.2-15.7l-5.5-2.6-229-.2c-196.1-.1-229.7 0-233.6 1.3z"/>
  </svg>
