<?xml version="1.0" encoding="UTF-8"?>
<!DOCTYPE svg PUBLIC "-//W3C//DTD SVG 1.1//EN" "http://www.w3.org/Graphics/SVG/1.1/DTD/svg11.dtd">
<svg xmlns="http://www.w3.org/2000/svg" version="1.1" width="512px" height="512px" style="shape-rendering:geometricPrecision; text-rendering:geometricPrecision; image-rendering:optimizeQuality; fill-rule:evenodd; clip-rule:evenodd" xmlns:xlink="http://www.w3.org/1999/xlink">
<g><path style="opacity:0.966" fill="#000000" d="M 511.5,138.5 C 511.5,149.833 511.5,161.167 511.5,172.5C 507.429,201.551 498.596,229.218 485,255.5C 461.225,298.378 432.558,337.712 399,373.5C 354.88,420.479 307.046,462.813 255.5,500.5C 186.858,450.699 125.691,392.699 72,326.5C 49.2003,297.255 30.2003,265.588 15,231.5C 7.45566,212.316 2.28899,192.649 -0.5,172.5C -0.5,161.167 -0.5,149.833 -0.5,138.5C 10.7122,73.1158 48.3789,31.6158 112.5,14C 169.329,3.77515 216.995,19.9418 255.5,62.5C 294.005,19.9418 341.671,3.77515 398.5,14C 462.621,31.6158 500.288,73.1158 511.5,138.5 Z M 132.5,45.5 C 173.339,43.1763 206.506,57.8429 232,89.5C 240.085,102.669 247.919,116.002 255.5,129.5C 263.081,116.002 270.915,102.669 279,89.5C 314.319,47.9536 357.819,36.1203 409.5,54C 458.789,78.0604 480.955,117.56 476,172.5C 469.631,207.231 456.631,239.231 437,268.5C 401.019,321.146 358.853,368.646 310.5,411C 292.604,426.733 274.271,441.899 255.5,456.5C 191.147,407.647 134.647,350.981 86,286.5C 65.9469,259.063 50.6135,229.063 40,196.5C 25.9962,151.534 34.8295,111.867 66.5,77.5C 85.1463,59.8431 107.146,49.1765 132.5,45.5 Z"/></g>
</svg>
