<svg version="1.0" xmlns="http://www.w3.org/2000/svg" width="682.667" height="682.667" viewBox="0 0 512 512"><path d="M263.6 1c-6.3 1.6-15.3 7-19.7 11.7-2.2 2.4-5.5 7.4-7.2 11.1-2.9 6.1-3.2 7.6-3.2 16.3 0 9 .2 9.9 3.7 17.1 4.5 9.1 10.3 14.7 19.6 19.1 6.1 2.9 7.6 3.2 16.2 3.2s10.1-.3 16.2-3.2c9.3-4.4 15.1-10 19.6-19.1 3.5-7.2 3.7-8.1 3.7-17.2s-.2-10-3.7-17.2C302 9.2 290 1.1 275.2.4c-4.2-.2-9.4.1-11.6.6zM382.5 3c-19.8 4.4-35.2 18-41.7 36.8-1.8 5.3-2.3 8.9-2.3 17.2 0 8.3.5 11.9 2.3 17.2 5.6 16.4 18 28.8 34.8 35 8.5 3.1 26.3 3.1 34.8 0 16.8-6.2 29.2-18.6 34.8-35 3.2-9.5 3.2-24.9 0-34.4-5.7-16.4-18.3-29.1-34.8-34.9-6.7-2.3-21.5-3.3-27.9-1.9zM162.9 26.8c-10.2 3.4-17.5 9.7-22.7 19.6-2.5 4.6-2.7 6.1-2.7 16.1 0 10.1.2 11.4 2.7 16.2 3.6 6.8 7.8 11.4 13.6 15.1 18.8 12 43.7 5.2 53.4-14.6 3.1-6.3 3.3-7.3 3.3-17.2 0-10.1-.1-10.8-3.4-16.8-6.6-12.2-17.6-19.1-31.6-19.8-5-.3-8.6.1-12.6 1.4zM89.3 91.4C79 94.8 71.7 101.2 67.1 111c-2.2 4.6-2.6 6.9-2.6 14 0 7.6.4 9.3 3.3 15.2 3.8 7.7 9.2 13 17.1 16.7 4.7 2.2 7 2.6 14.1 2.6s9.4-.4 14.1-2.6c7.9-3.7 13.3-9 17.1-16.7 2.9-5.9 3.3-7.6 3.3-15.2 0-7.1-.4-9.4-2.6-14.1-5.8-12.4-16.9-19.9-30.2-20.5-4.3-.3-8.9.2-11.4 1zM270.1 103.1c-50.5 5.3-99.6 31.3-121.5 64.3-13.3 19.8-20.6 41.8-25.2 75.1-1.5 10.5-1.8 19.6-1.8 47.5 0 63.1 4.8 105 15.8 138.2 11.4 34.7 28.9 56.8 56 70.5 17.2 8.7 41.9 14.1 59.6 13 41.2-2.6 71.1-34.9 71.2-76.7.1-19.6-2.9-29.1-19.8-64-7.1-14.8-12.1-26.4-13.4-31.4-6.4-25.2 2.7-42.6 33.9-64.7 32.7-23.2 43.7-32.5 54.2-45.7 20.6-25.7 25.3-55.3 12.8-80.9-5.1-10.7-16.8-23-27.3-28.8-24.9-13.8-60.3-19.9-94.5-16.4z"/></svg>