<svg version="1.0" xmlns="http://www.w3.org/2000/svg" width="682.667" height="682.667" viewBox="0 0 512 512"><path d="M40 1.5C34 3.4 27.6 9 24.2 15.4l-2.7 5.1V406.2l2.4 1.9c3 2.5 6.2 2.4 9.5-.2l2.6-2V215.7c0-179.1.1-190.4 1.8-193.7 1-2 3.2-4.2 5.2-5.2 3.3-1.7 11.8-1.8 134.3-1.8H308v36.3c0 43 .2 44 8.4 52.3 8.3 8.2 9.3 8.4 52.3 8.4H405v21.4c0 23.8.3 25 6.7 26.2 2.6.5 3.7.1 5.7-1.9l2.6-2.6v-23.4c0-18.8-.3-24.3-1.6-28.3-1.5-4.4-6.3-9.6-49.3-52.6-45.8-45.8-47.8-47.7-53-49.2C311.2.2 296.1 0 177.6.1 66.6.1 43.7.4 40 1.5zm323.9 95.3C320 97.1 323 100.1 323 56V25.5L358.5 61 394 96.5l-30.1.3z"/><path d="M76.3 33c-3.8 1.6-4.3 4.1-4.3 23.3 0 16.7.2 18.7 1.9 20.8l1.9 2.4h91c88.1 0 91.1-.1 93.1-1.9 2-1.8 2.1-2.9 2.1-21.6 0-18.7-.1-19.8-2.1-21.6-2-1.8-5.2-1.9-91.8-2.1-50.4-.1-90.6.2-91.8.7zM247 56v9H87V47h160v9zM74.6 99.1c-3.6 2.8-3.6 8 0 10.8 2.5 2 4 2.1 21.1 2.1 18.2 0 18.4 0 20.8-2.5 1.4-1.3 2.5-3.6 2.5-5s-1.1-3.7-2.5-5c-2.4-2.5-2.6-2.5-20.8-2.5-17.1 0-18.6.1-21.1 2.1zM140.2 97.7c-.7.3-1.9 1.8-2.8 3.5-1.3 2.5-1.3 3.5-.3 5.9.6 1.7 2 3.4 3 3.9 1.1.6 24.5 1 59.6 1 56.9 0 58 0 60.1-2 1.4-1.4 2.2-3.3 2.2-5.5s-.8-4.1-2.2-5.5c-2.1-2-3.1-2-60.2-1.9-32 0-58.7.3-59.4.6zM87.2 138.5c-6 1.8-10.6 5.7-13.1 10.8-2.1 4.4-2.1 5-1.9 67.5l.3 63 3 4.4c1.7 2.3 5.1 5.4 7.5 6.8l4.5 2.5H140c57.7 0 55 .3 61.4-6.1 6.1-6.2 6.1-6.1 6.4-40.1l.3-31.3-2.5-2.5c-3.2-3.2-7-3.2-10.1 0l-2.5 2.4v58.2l-2.5 2.4-2.4 2.5h-48.6c-47.2 0-48.6-.1-50.5-2-2-2-2-3.3-2-61.4v-59.5l2.7-2.1c2.6-2 3.2-2.1 51.1-1.8l48.4.3 1.9 2.4c1.7 2 1.9 4 1.9 16.6 0 12.9.2 14.5 2.1 16.9 2.8 3.6 8 3.6 10.8 0 1.9-2.4 2.1-4 2.1-17.3 0-8-.5-16.3-1.1-18.5-1.6-5.8-8.1-12.3-14.2-14.1-7-2.1-98.8-2.1-105.5 0z"/><path d="M250.5 137.9c-6.9 1.7-11.6 5.5-15.1 12.1-1.8 3.3-1.9 7.1-2.2 62.4-.2 40.8.1 60.6.8 64.3.9 4.2 2.1 6.4 5.3 9.7 2.3 2.4 5.1 4.8 6.1 5.3 1.8 1 1.8 1.2.2 3.4-.9 1.3-1.6 3.6-1.6 5.2 0 3 .9 4.1 11.9 13.9l6.4 5.8-1.2 4c-.8 2.7-1.9 4.1-3.4 4.5-1.2.3-5.6 1.2-9.7 2-9.9 2-12.5 3.1-13.9 6.1-.6 1.4-1.1 7.8-1.1 14.9 0 16.3.3 16.7 15.1 19.9 5.9 1.3 11.1 2.6 11.7 3 .5.3 1.3 2.2 1.7 4.2.6 3.5.4 3.9-5.2 8.7-10.3 9.1-12.3 11.4-12.3 14 0 3.9 13 25.7 16 26.9 2 .8 4.8.2 13.9-2.7l11.3-3.7 3 3 3 3-3.6 11c-2.5 7.5-3.5 11.8-3 13.6.5 2.1 3.2 4.2 12.5 9.6 6.6 4 12.9 7 14.4 7 2.8 0 4.5-1.4 14.2-12.3 5-5.5 5.4-5.8 8.8-5.1 1.9.3 3.8 1.1 4.1 1.6.4.6 1.7 5.8 3 11.7 3.2 14.8 3.6 15.1 20 15.1 12 0 15.8-.7 17.7-3.4.8-1.3 1.9-5.4 4.2-15.8 1.6-7.7 1.7-7.8 5.5-8.9l4-1.2 5.9 6.4 6 6.4.1 11.8c0 13.3-1 16.5-6.3 19.7-3.1 2-6.4 2-177.7 2-164.1 0-174.7-.1-178-1.8-6.6-3.2-7-5.4-7-34.9v-26.2l-2.6-2c-3.3-2.6-6.5-2.7-9.5-.2l-2.4 1.9v57.7l2.7 5.1c1.5 2.9 4.6 6.8 7 8.8 8.2 7-4.8 6.6 189.8 6.6 199.2 0 181.3.8 190.6-8.4 6.8-6.9 8.4-11.8 8.4-26.2v-11.2l9.1-5.2c5.4-3.1 9.5-6.2 10.1-7.6.9-2 .5-4.6-2.5-14.2l-3.7-11.7 2.9-2.9 2.9-2.8 11.5 3.8c9.6 3.1 12 3.6 14 2.7 3-1.4 15.7-23.1 15.7-26.9 0-2.7-2.4-5.4-13.3-15.2-4.7-4.3-4.7-4.3-3.7-8.2.8-2.8 1.7-4.1 3.3-4.5 1.2-.3 5.6-1.2 9.7-2 14.7-3 15-3.4 15-20.8 0-17.6.5-17-19.2-21.2-7.8-1.7-7.8-1.7-8.8-5.6l-1.1-4 5.3-4.7c10.6-9.4 12.8-11.9 12.8-14.7 0-3.9-12.6-25.4-15.7-26.8-2-.9-4.4-.4-14 2.7l-11.5 3.8-3-3-3-3 3.8-11.5c3.2-9.6 3.6-12 2.7-14-.7-1.5-4.7-4.5-10.2-7.7l-9.1-5.2v-25.7c0-25.6 0-25.8-2.3-27.9-3.3-3.1-8-2.9-10.6.4-2 2.5-2.1 3.9-2.1 29V238l-5.1 5.7c-2.9 3.2-5.5 6.2-5.9 6.6-.4.5-2.6.4-4.8-.2-4-1.1-4.1-1.2-5.6-7.9-.8-3.7-1.8-8.5-2.1-10.7-1.1-6.1-3-8.4-7.4-9.1l-4-.6-.3-34.2c-.3-31-.5-34.4-2.2-37.6-2.6-4.9-5.5-7.9-10.1-10.3-3.9-2.2-4.9-2.2-54-2.4-27.5-.1-51.3.2-53 .6zm102.2 16.4c1.6 1.6 1.8 4.7 2.1 34.7l.3 33h-2.5c-3.9 0-7.4 2-8.5 4.9-.5 1.4-1.7 6.2-2.6 10.6-2.4 11.7-2.3 11.4-6.5 12.5-3.9 1-3.9 1-8.7-4.2-10.2-11.2-12-12.8-14.7-12.8-3.8 0-25.5 12.7-26.9 15.7-.9 2-.4 4.4 2.7 14l3.8 11.5-2.9 2.9-2.9 2.9-10.9-3.5c-6.1-1.9-11.8-3.5-12.8-3.5-1.1 0-3.2 1.4-4.8 3.1-2.4 2.6-3.1 2.9-4.9 1.9-1.2-.6-2.5-2.2-3-3.6-1.3-3.4-1.3-114.4 0-117.9.5-1.4 2-3 3.2-3.5 1.3-.5 22.8-.8 50.5-.7 44.8.2 48.4.3 50 2zm16.9 94.1c1.3 6 2.9 11.5 3.6 12.3 1.4 1.3 19.8 6.3 23.4 6.3 1.5 0 4.8-2.9 10.1-8.6l7.9-8.7 4.2 2.7c2.3 1.4 4.2 3 4.2 3.4 0 .5-1.3 4.8-3 9.7-1.6 4.9-3 10-3 11.4 0 3.7 15.4 19.1 19 19.1 1.5 0 6.6-1.4 11.5-3 4.9-1.7 9.2-3 9.7-3 .4 0 2 1.9 3.4 4.2l2.7 4.2-8.7 7.9c-5.7 5.3-8.6 8.6-8.6 10.1 0 3.6 5 22 6.3 23.4.8.7 6.3 2.3 12.3 3.6l10.9 2.2.3 5.2c.3 4.7.1 5.2-2 5.7-1.3.3-6.3 1.4-11.2 2.5-4.9 1-9.5 2.5-10.2 3.2-1.4 1.4-6.4 19.7-6.4 23.4 0 1.5 2.8 4.7 8.5 9.9l8.4 7.7-1.9 3.8c-1.1 2.1-2.4 4.1-2.9 4.4-.5.4-5.1-.7-10.2-2.4-5.1-1.6-10.5-3-11.8-3-3.7 0-19.1 15.4-19.1 19 0 1.5 1.4 6.6 3 11.5 1.7 5 2.8 9.5 2.6 10.2-.3.7-2.3 2.1-4.4 3.2l-3.9 2-7.8-8.5c-7.7-8.5-7.9-8.6-11.9-8.1-6.1.6-19.9 4.5-21.4 6-.7.8-2.3 6.3-3.6 12.3l-2.2 10.9-5.2.3c-4.7.3-5.2.1-5.7-2-.3-1.3-1.4-6.3-2.4-11.2-1.1-4.9-2.6-9.5-3.4-10.3-1.6-1.6-13.7-5.1-20.8-5.9l-4.5-.6-7.9 8.6-7.8 8.6-4-2.3c-2.2-1.2-4.1-2.7-4.3-3.2-.3-.6.9-5 2.6-10 4.4-12.9 4.3-12.9-5.1-22.4-9.5-9.4-9.5-9.5-22.4-5.1-5 1.7-9.4 2.9-10 2.6-.5-.2-2-2.1-3.2-4.3l-2.3-4 8.6-7.8 8.6-7.9-.6-4.5c-1-8.3-4.5-19.5-6.5-21.2-1.1-.9-5.9-2.4-10.8-3.3-13.1-2.6-12.3-2-12.3-7.6 0-4.3.3-5 2.3-5.5 1.2-.3 6.2-1.4 11.1-2.5 4.9-1 9.5-2.5 10.3-3.3 1.6-1.6 5.1-13.8 5.9-20.8l.6-4.6-8.6-7.8-8.5-7.9 2.2-3.9c1.2-2.2 2.7-4.1 3.2-4.3.6-.3 5 .9 10 2.6 4.9 1.6 10 3 11.4 3 3.7 0 19.1-15.4 19.1-19 0-1.5-1.4-6.6-3-11.5-1.7-5-2.9-9.4-2.6-10 .2-.5 2.2-2 4.4-3.2l4-2.3 7.7 8.5c5.2 5.7 8.4 8.5 9.9 8.5 3.7 0 22-5 23.4-6.4.8-.7 2.2-5.3 3.3-10.2 1-4.9 2.1-9.9 2.4-11.2.5-2.1 1-2.3 5.7-2l5.2.3 2.2 10.9z"/><path d="M268 172c-2.7 2.7-2.6 8.1.1 10.6 1.8 1.6 4 1.9 15.1 2.2 14.5.4 17 0 19.8-2.8 2.6-2.6 2.5-6-.1-9.4l-2-2.6h-15.5c-14.1 0-15.6.2-17.4 2zM268.6 204.1c-3.4 2.7-3.6 7.7-.3 10.7 2.3 2.1 3 2.2 29.9 2.2 26.3 0 27.6-.1 30.2-2.1 1.9-1.5 2.6-3 2.6-5.4 0-2.4-.7-3.9-2.6-5.4-2.6-2-3.9-2.1-29.9-2.1s-27.3.1-29.9 2.1zM346.5 279.4c-22.5 5.1-40.5 19.7-50.5 40.8-11.6 24.6-8.4 53.3 8.5 75.6 12.8 16.9 35.8 28.2 57.5 28.2 7.9 0 19.9-2.2 26.9-5 19.5-7.6 35.6-24.8 42.8-45.5 2.5-7.3 2.7-9.2 2.7-22.5s-.2-15.2-2.7-22.5c-4.1-11.7-9.9-21-18.6-29.5-9.1-8.9-16-13.2-27.8-17.3-7.5-2.6-10.6-3-20.8-3.3-7.8-.3-14.1.1-18 1zm27.7 14.7c16.4 3.4 32.4 15.9 39.7 31.2 5 10.3 6.5 18.2 5.8 29.5-2.3 36.1-36.7 61.2-71.7 52.3-35.1-8.9-53.9-48-38.6-80.6 11.3-24.1 38.6-37.8 64.8-32.4z"/><path d="M354 320.3c-13.6 3.8-23.2 16-23.4 29.7-.1 9.7 2.5 16.3 9.3 23.1 6.8 6.8 13.3 9.4 23.3 9.3 11.8-.2 22.9-7.8 28.1-19.2 3-6.6 2.9-17.8-.2-24.8-2.7-6.3-10.1-13.6-16.3-16.4-5.9-2.6-15-3.3-20.8-1.7zm14.6 15.6c10.9 5 13.4 18.3 5 26.7-14.5 14.5-37.1-5.9-24.4-22.1 2.4-3.1 9.1-6.5 12.8-6.5 1.4 0 4.3.9 6.6 1.9zM106.1 172.6c-2.6 3.4-2.7 6.8-.1 9.4 2.8 2.8 5.3 3.2 20 2.8 12.4-.3 13.3-.4 15.1-2.7 2.5-3 2.4-7.6-.1-10.1-1.8-1.8-3.3-2-17.4-2h-15.5l-2 2.6zM106.5 204.5c-1.4 1.3-2.5 3.6-2.5 5s1.1 3.7 2.5 5l2.4 2.5h30.6c17.7 0 31.4-.4 32.4-1 1-.5 2.4-2.2 3-3.9 1-2.4 1-3.4-.3-5.9-.8-1.6-2.3-3.2-3.1-3.6-.9-.3-15.4-.6-32.1-.6h-30.5l-2.4 2.5zM108.5 235.1c-4.9 2.8-5.8 7-2.4 11.3l2 2.6h31.8c30.6 0 31.9-.1 33.6-2 2.5-2.8 2.3-7.6-.4-10.3-2.1-2.2-2.8-2.2-32.4-2.4-20.8-.2-30.8.1-32.2.8zM106.5 330.1c-4.9 2.8-5.8 7-2.4 11.3 2 2.6 2.2 2.6 15.5 2.6 12.1 0 13.6-.2 15.4-2 2.5-2.5 2.6-7.1.1-10.1-1.8-2.3-2.7-2.4-14.3-2.7-7.8-.1-13 .2-14.3.9zM157.7 331c-3.4 2.7-3.7 8-.7 11 1.9 1.9 3.3 2 28.4 2h26.5l2-2.6c2.6-3.3 2.7-6.5.2-9.5-1.9-2.4-2-2.4-27.8-2.7-25.1-.3-26-.2-28.6 1.8zM74 364c-2.5 2.5-2.6 7.1-.1 10.1l1.9 2.4 65.9.3c36.2.1 66.8 0 68.1-.3 6-1.5 8.1-8.3 3.9-12.3l-2.3-2.2h-67.7c-66.4 0-67.7 0-69.7 2zM74.2 396.3c-3.1 3.3-2.9 8 .4 10.6 2.6 2 3.7 2.1 42.6 2.1 45.7 0 45.7 0 45.8-7.7 0-2-.8-4-2.2-5.3-2.1-1.9-3.3-2-43.3-2H76.3l-2.1 2.3zM183.6 396.1c-1.9 1.5-2.6 3-2.6 5.4 0 2.4.7 3.9 2.6 5.4 2.4 1.9 4 2.1 15.1 2.1 11.8 0 12.5-.1 14.8-2.5 1.4-1.3 2.5-3.6 2.5-5s-1.1-3.7-2.5-5c-2.3-2.4-3-2.5-14.8-2.5-11.1 0-12.7.2-15.1 2.1zM76.3 433c-3.8 1.6-4.3 4.1-4.3 23.3 0 16.7.2 18.7 1.9 20.8l1.9 2.4 65.9.3c36.2.1 66.8 0 68.1-.3 1.2-.3 3.1-1.4 4.2-2.5 1.8-1.8 2-3.4 2-20.4 0-10.1-.3-19.2-.6-20.1-1.7-4.5-2.5-4.5-71.6-4.4-35.9 0-66.3.4-67.5.9zM201 456v9H87v-18h114v9z"/></svg>