<svg version="1.0" xmlns="http://www.w3.org/2000/svg" width="682.667" height="682.667" viewBox="0 0 512 512"><path d="M228 28.5c-93.8 12.2-169.8 78.6-193.5 169-6.1 23.1-6.9 30.2-6.9 58.5s.8 35.4 6.9 58.5c4.2 16.2 8.8 28.4 16.8 44.5 8.8 17.7 8.7 18.8-1.8 46.5l-8 21v10c0 9.5.2 10.3 3.4 16.3 4.1 7.5 10.3 13.5 17.9 17 5 2.4 6.9 2.7 15.2 2.6 9 0 10.7-.4 32.5-7.4 29.9-9.7 31.1-9.7 48-1.8 19.6 9.2 40.2 15.7 61.5 19.3 14.8 2.6 47.5 3.1 64.3 1.1 66.1-8.1 125.5-44.7 162.9-100.6 9.1-13.5 21.6-39.2 26.7-54.7 7.9-24.1 11.4-46.2 11.4-72.3-.1-26.7-3.5-47.8-11.9-73-19.2-57.7-61.9-106.4-116.9-133-21-10.2-38.7-15.9-62.5-20.2-14.9-2.6-50.4-3.4-66-1.3zM279 60c36.9 4.6 73.3 20 101.2 42.7 83.9 68.4 97.2 192 29.8 276.2-37.6 47-94 74.1-154 74.1-30.2 0-56.8-6.2-87.6-20.3-21.9-10.1-29.6-10.1-61.6-.1-26.6 8.4-30.1 9.2-32.2 7.5-.9-.8-1.6-2.4-1.6-3.7 0-1.3 3.3-11.2 7.4-22.1 7.9-21.4 9.6-27.5 9.6-35.7 0-9.9-2-16.8-9.5-32.6-10.4-22.1-15.8-38.4-19.7-60-1.8-10.1-1.8-49.9 0-60 3.8-21.2 8.9-37.2 17.7-55.5 29-60.4 86.5-101.8 153.1-110.4 9.9-1.2 37.5-1.3 47.4-.1z"/><path d="M248.8 150.3c-17.2 4.9-25 26.4-14.7 40.6 9.8 13.6 27.5 15.6 39.8 4.5 11.5-10.3 11.5-28.5-.1-38.9-7-6.4-16.2-8.6-25-6.2zM249.5 225.4c-3.7 1.7-7 5.2-8.4 8.9-.7 1.9-1.1 24.1-1.1 67.3 0 62.2.1 64.6 2 68.3 5.7 11.3 22.3 11.2 28.1 0 1.9-3.8 1.9-5.7 1.7-69.8-.3-64.8-.3-66-2.4-68.7-1.1-1.5-3.2-3.7-4.6-4.7-3.4-2.5-11.3-3.2-15.3-1.3z"/></svg>