<svg version="1.1" xmlns="http://www.w3.org/2000/svg" viewBox="0 0 512 512" style="fill: #00445b"><path d="M242 15.6c-55.3 7-98.2 41.8-114.9 93.1-5.5 16.7-6.3 24.5-6.8 64.8l-.6 37.1-6.7 1.1c-16.3 2.5-28.7 12.7-35.1 28.8l-2.4 6-.3 103c-.2 72.3 0 104.9.8 109.5 3 17.5 16.3 32 33.5 36.5 5.2 1.3 23.4 1.5 146.5 1.5s141.3-.2 146.5-1.5c15.2-4 26.8-15 32.1-30.5 1.8-5.3 1.9-10.2 1.9-111.5v-106l-2.4-6.5c-5.9-16.2-18.5-26.7-35.1-29.3l-6.7-1.1-.6-37.1c-.5-40.3-1.3-48.1-6.8-64.8-11.1-34.1-35.1-62.4-66.5-78.4-11.4-5.9-24.6-10.5-36.5-12.8-8.2-1.6-32.9-2.8-39.9-1.9zm35.8 31.8c33.8 7.2 62 30.5 75.5 62.6 6.8 16 7 17.7 7.4 61.2l.4 39.8H150.9l.4-39.8c.3-36.9.5-40.2 2.5-47.3 5.8-20.6 15.1-36 30.2-50.3 16.9-15.9 35.3-24.3 61.5-28 5.6-.8 25 .3 32.3 1.8zm-10.9 240.1c27.4 6.5 42 37.2 29.8 62.9-4.2 8.9-11.5 16.4-19.6 20.3l-6 2.8-.1 18.5c0 15.6-.3 19.1-1.8 22-4.9 9.9-21.5 9.9-26.4 0-1.5-2.9-1.8-6.4-1.8-22l-.1-18.5-6-2.8c-3.3-1.6-8.3-5.2-11.1-8-17.3-17.3-17-46.7.8-64 5.4-5.3 11.8-8.9 19.4-10.9 8.1-2.1 14.7-2.2 22.9-.3z"/></svg>
