<svg width="32" height="32" xmlns="http://www.w3.org/2000/svg" fill="#00445b"><path d="M14.86.27C11.03.73 8.05 3.02 6.9 6.4c-.38 1.1-.44 1.61-.47 4.27l-.04 2.44-.46.07c-1.13.16-1.99.84-2.43 1.9l-.17.4-.02 6.79c-.01 4.76 0 6.91.06 7.21.21 1.15 1.13 2.11 2.32 2.4.36.09 1.62.1 10.15.1s9.79-.01 10.15-.1c1.05-.26 1.86-.99 2.22-2.01.12-.35.13-.67.13-7.34v-6.98l-.17-.43c-.41-1.07-1.28-1.76-2.43-1.93l-.46-.07-.04-2.44c-.03-2.65-.09-3.17-.47-4.27a8.969 8.969 0 00-4.61-5.16c-.79-.39-1.71-.69-2.53-.84-.57-.11-2.28-.18-2.77-.13zm2.48 2.09c2.34.47 4.3 2.01 5.23 4.12.47 1.05.49 1.17.51 4.03l.03 2.62H8.54l.03-2.62c.02-2.43.03-2.65.17-3.12.4-1.36 1.05-2.37 2.09-3.31 1.17-1.05 2.45-1.6 4.26-1.84.39-.05 1.73.02 2.24.12zm-.76 15.82c1.9.43 2.91 2.45 2.07 4.14-.29.59-.8 1.08-1.36 1.34l-.42.18-.01 1.22c0 1.03-.02 1.26-.12 1.45-.34.65-1.49.65-1.83 0-.1-.19-.12-.42-.12-1.45l-.01-1.22-.42-.18c-.23-.11-.58-.34-.77-.53-1.2-1.14-1.18-3.08.06-4.22.37-.35.82-.59 1.34-.72a3.29 3.29 0 011.59-.02z"/></svg>
