<svg xmlns="http://www.w3.org/2000/svg" xmlns:xlink="http://www.w3.org/1999/xlink" viewBox="0 0 205.9 186.7" xml:space="preserve"><path d="M0 0h205.9v186.7H0z" fill="#fff"/><defs><path id="a" d="M24.3 24.3h157.2v138.1H24.3z"/></defs><clipPath id="b"><use xlink:href="#a" overflow="visible"/></clipPath><path d="M24.4 60.8H30c4 0 6.5 2.1 6.5 5.5 0 2.2-1.1 3.8-2.9 4.7l5.8 8.1H35l-5-7.4h-1.9v7.4h-3.7V60.8zm3.7 3.2v4.6h2.1c1.6 0 2.5-.8 2.5-2.3 0-1.4-.9-2.2-2.5-2.2l-2.1-.1z" clip-path="url(#b)"/><defs><path id="c" d="M24.3 24.3h157.2v138.1H24.3z"/></defs><clipPath id="d"><use xlink:href="#c" overflow="visible"/></clipPath><path d="M41.6 60.8h10.7V64h-7v4.2h5.9v3.2h-5.9V76h7v3.2H41.6V60.8zm3.6-1.6 3-3.5H52l-3.4 3.5h-3.4z" clip-path="url(#d)"/><defs><path id="e" d="M24.3 24.3h157.2v138.1H24.3z"/></defs><clipPath id="f"><use xlink:href="#e" overflow="visible"/></clipPath><path d="M56.6 60.8h6c4 0 6.5 2.1 6.5 5.5s-2.5 5.4-6.5 5.4h-2.3v7.4h-3.7V60.8zm3.7 3.2v4.6h2.5c1.6 0 2.5-.8 2.5-2.3 0-1.4-.9-2.2-2.5-2.2l-2.5-.1z" clip-path="url(#f)"/><defs><path id="g" d="M24.3 24.3h157.2v138.1H24.3z"/></defs><clipPath id="h"><use xlink:href="#g" overflow="visible"/></clipPath><path d="M83 60.8h3.7v11.1c0 4.8-2.8 7.7-7.4 7.7s-7.4-2.9-7.4-7.7V60.8h3.7v11.5c0 2.5 1.4 3.9 3.7 3.9 2.3 0 3.7-1.4 3.7-3.9V60.8z" clip-path="url(#h)"/><defs><path id="i" d="M24.3 24.3h157.2v138.1H24.3z"/></defs><clipPath id="j"><use xlink:href="#i" overflow="visible"/></clipPath><path d="M91.3 60.8h5.2c3.8 0 6.1 1.9 6.1 5 0 1.5-.7 2.7-1.9 3.6 1.9.9 3 2.4 3 4.3 0 3.3-2.6 5.4-6.8 5.4h-5.6V60.8zm3.8 3.2v4h1.6c1.4 0 2.2-.7 2.2-2 0-1.2-.8-2-2.2-2h-1.6zm0 7.2V76h2.1c1.7 0 2.8-.9 2.8-2.4s-1-2.4-2.8-2.4h-2.1z" clip-path="url(#j)"/><defs><path id="k" d="M24.3 24.3h157.2v138.1H24.3z"/></defs><clipPath id="l"><use xlink:href="#k" overflow="visible"/></clipPath><path d="M107.5 60.8h3.7v14.9h7v3.4h-10.7z" clip-path="url(#l)"/><defs><path id="m" d="M24.3 24.3h157.2v138.1H24.3z"/></defs><clipPath id="n"><use xlink:href="#m" overflow="visible"/></clipPath><path d="M121.5 60.8h3.7v18.3h-3.7z" clip-path="url(#n)"/><defs><path id="o" d="M24.3 24.3h157.2v138.1H24.3z"/></defs><clipPath id="p"><use xlink:href="#o" overflow="visible"/></clipPath><path d="M149.5 80.4c.4 0 .9-.1 1.3-.2v3.1c-.6.2-1.1.3-1.9.3-2 0-3.9-.8-5.7-2.4l-2.2-1.9c-.8.2-1.6.3-2.5.3-5.8 0-9.7-4.4-9.7-9.7 0-5.2 4-9.7 9.7-9.7 5.8 0 9.7 4.4 9.7 9.7 0 3.1-1.4 5.9-3.6 7.6l1.1 1c1.4 1.4 2.7 1.9 3.8 1.9M144.4 70c0-3.5-2.5-6.2-5.9-6.2-3.5 0-5.9 2.7-5.9 6.2s2.5 6.2 5.9 6.2 5.9-2.7 5.9-6.2" clip-path="url(#p)"/><defs><path id="q" d="M24.3 24.3h157.2v138.1H24.3z"/></defs><clipPath id="r"><use xlink:href="#q" overflow="visible"/></clipPath><path d="M162.6 60.8h3.7v11.1c0 4.8-2.8 7.7-7.4 7.7-4.6 0-7.4-2.9-7.4-7.7V60.8h3.7v11.5c0 2.5 1.4 3.9 3.7 3.9s3.7-1.4 3.7-3.9V60.8z" clip-path="url(#r)"/><defs><path id="s" d="M24.3 24.3h157.2v138.1H24.3z"/></defs><clipPath id="t"><use xlink:href="#s" overflow="visible"/></clipPath><path d="M170.9 60.8h10.7V64h-7v4.2h5.9v3.2h-5.9v4.5h7v3.2h-10.7z" clip-path="url(#t)"/><defs><path id="u" d="M24.3 24.3h157.2v138.1H24.3z"/></defs><clipPath id="v"><use xlink:href="#u" overflow="visible"/></clipPath><path d="M24.4 87.2h10.7v3.2h-7v4.2H34v3.2h-5.9v7.7h-3.7z" clip-path="url(#v)"/><defs><path id="w" d="M24.3 24.3h157.2v138.1H24.3z"/></defs><clipPath id="x"><use xlink:href="#w" overflow="visible"/></clipPath><path d="M38.3 87.2h5.6c4 0 6.5 2.1 6.5 5.5 0 2.2-1.1 3.8-2.9 4.7l5.8 8.1h-4.4L44 98.1h-2v7.4h-3.7V87.2zm3.7 3.2V95h2.1c1.6 0 2.5-.8 2.5-2.3 0-1.4-.9-2.2-2.5-2.2l-2.1-.1z" clip-path="url(#x)"/><defs><path id="y" d="M24.3 24.3h157.2v138.1H24.3z"/></defs><clipPath id="z"><use xlink:href="#y" overflow="visible"/></clipPath><path d="M61 87.2h4.9l6.9 18.3h-3.9l-1.8-4.8h-7.3l-1.8 4.8h-3.9L61 87.2zm4.9 10.4-2.5-6.9-2.5 6.9h5z" clip-path="url(#z)"/><defs><path id="A" d="M24.3 24.3h157.2v138.1H24.3z"/></defs><clipPath id="B"><use xlink:href="#A" overflow="visible"/></clipPath><path d="M75.6 87.2h4.8l8.2 13.1V87.2h3.7v18.3h-4.8l-8.2-13.1v13.1h-3.7z" clip-path="url(#B)"/><defs><path id="C" d="M24.3 24.3h157.2v138.1H24.3z"/></defs><clipPath id="D"><use xlink:href="#C" overflow="visible"/></clipPath><path d="m110.4 100.1 2.9 2.2c-1.4 1.9-3.6 3.3-6.3 3.6l-2.3 3.8h-3.3l2.3-3.8c-4.8-.8-7.9-4.9-7.9-9.5 0-5.2 4-9.7 9.7-9.7 3.3 0 6 1.5 7.7 3.7l-2.9 2.3c-1-1.5-2.7-2.5-4.8-2.5-3.5 0-5.9 2.7-5.9 6.2s2.5 6.2 5.9 6.2c2.2 0 3.8-1.1 4.9-2.5" clip-path="url(#D)"/><g><defs><path id="E" d="M24.3 24.3h157.2v138.1H24.3z"/></defs><clipPath id="F"><use xlink:href="#E" overflow="visible"/></clipPath><path d="M121 87.2h4.9l6.9 18.3h-4l-1.8-4.8h-7.3l-1.8 4.8H114l7-18.3zm5 10.4-2.5-6.9-2.5 6.9h5z" clip-path="url(#F)"/></g><g><defs><path id="G" d="M24.3 24.3h157.2v138.1H24.3z"/></defs><clipPath id="H"><use xlink:href="#G" overflow="visible"/></clipPath><path d="M135.6 87.2h3.7v18.3h-3.7z" clip-path="url(#H)"/></g><g><defs><path id="I" d="M24.3 24.3h157.2v138.1H24.3z"/></defs><clipPath id="J"><use xlink:href="#I" overflow="visible"/></clipPath><path d="M145.5 100.5c1.1 1.4 2.6 2.2 4.1 2.2s2.4-.8 2.4-2.1c0-3.3-8.4-2.5-8.4-8.6 0-2.9 2.4-5.3 5.9-5.3 2.7 0 4.9 1.2 6.4 3.1l-2.7 2.4c-1.1-1.4-2.3-2.3-3.7-2.3-1.3 0-2.1.8-2.1 1.9 0 3.3 8.4 2.5 8.4 8.7-.1 3.4-2.7 5.5-6.1 5.5-3.1 0-5.2-1.1-6.8-3.1l2.6-2.4z" clip-path="url(#J)"/></g><g><defs><path id="K" d="M24.3 24.3h157.2v138.1H24.3z"/></defs><clipPath id="L"><use xlink:href="#K" overflow="visible"/></clipPath><path d="M159.6 87.2h10.7v3.2h-7v4.2h5.9v3.2h-5.9v4.6h7v3.1h-10.7z" clip-path="url(#L)"/></g><g><defs><path id="M" d="M24.3 24.3h157.2v138.1H24.3z"/></defs><clipPath id="N"><use xlink:href="#M" overflow="visible"/></clipPath><path d="M84 156.1c.5 0 .9.4.7 1.3l-2.3.5c.4-1 1-1.8 1.6-1.8m1.3 3.7h-.5c-.6.7-1.2 1.2-1.8 1.2-.6 0-1-.4-1-1.2 0-.3 0-.7.1-1l3.7-1.2c.7-1.7-.1-2.5-1.2-2.5-1.8 0-3.8 2.9-3.8 5.5 0 1.2.6 1.8 1.4 1.8 1.1 0 2.2-1 3.1-2.6m-.8-5.4 2.6-2.4v-.3h-1.4l-1.6 2.7h.4zm-8 1.7h1.2l-2 5.4c-.2.5.1.9.5.9 1.1 0 2.9-1.1 3.5-2.6h-.3c-.5.5-1.5 1.2-2.3 1.4l1.8-5h1.8l.2-.8h-1.8l.7-1.9h-.7l-1.3 1.9-1.5.2v.5h.2zm-1.7-.2c.1-.5-.2-.8-.4-.8-1.1 0-2.3 1-2.9 2.3h.3c.3-.5.9-1 1.5-1.1l-2.1 5.3c-.2.5.2.8.4.8 1 0 2.2-1 2.7-2.3H74c-.3.5-.9 1-1.5 1.1l2.3-5.3zm.4-2.7c.5 0 .9-.4.9-.9s-.4-.9-.9-.9-.9.4-.9.9.4.9.9.9m-11.8 8.2c-.3.6 0 1 .6 1 .4 0 .5-.1.7-.5l1.4-3.8c.7-.8 2-1.7 2.6-1.7.4 0 .3.3.1.8l-2.2 4.2c-.2.4.1.9.5.9 1.1 0 2.4-1 2.9-2.3h-.3c-.3.5-.9 1-1.5 1.1l1.9-3.8c.2-.5.4-.9.4-1.3 0-.6-.3-1-1-1-.9 0-1.9 1-3 2.3v-1c0-.7-.2-1.3-.9-1.3-.4 0-.8.3-1.2.8v.1c.7 0 1 1 .5 2.1l-1.5 3.4zm-.1-4.7c.3-.9.1-1.6-.6-1.6-.8 0-1 .6-1.8 2.3v-1c0-.7-.2-1.3-.9-1.3-.8 0-1.4 1.2-2 2.3h.3c.4-.5.7-.8 1-.8s.5.5 0 1.6l-1.5 3.2c-.3.6 0 1 .6 1 .4 0 .5-.1.7-.5l1.4-3.8c.4-.5.8-.9 1.2-1.4h1.6zm-8.2-.6c.5 0 .9.4.7 1.3l-2.3.5c.4-1 1.1-1.8 1.6-1.8m1.3 3.7h-.5c-.6.7-1.2 1.2-1.8 1.2s-1-.4-1-1.2c0-.3 0-.7.1-1l3.7-1.2c.7-1.7-.1-2.5-1.2-2.5-1.8 0-3.8 2.9-3.8 5.5 0 1.2.6 1.8 1.4 1.8 1.2 0 2.2-1 3.1-2.6m-8.8-3.7h1.2l-2 5.4c-.2.5.1.9.5.9 1.1 0 2.9-1.1 3.5-2.6h-.3c-.5.5-1.5 1.2-2.3 1.4l1.8-5h2l.2-.8h-1.8l.7-1.9h-.7l-1.3 1.9-1.5.2v.5zm-6.8 4.2c0-1.7 1.8-3.9 2.9-3.9.2 0 .4 0 .6.1l-1.1 2.9c-.6.8-1.6 1.7-2 1.7-.2-.1-.4-.3-.4-.8m5.7-5.5h-.6l-.6.6h-.1c-3.1 0-5.7 3.4-5.7 5.9 0 .7.4 1.1 1.1 1.1.8 0 1.6-1.1 2.4-2.3v.4c-.1 1.2.3 1.9.9 1.9.8 0 1.4-1.2 2-2.3h-.3c-.4.5-.7.8-1 .8s-.5-.5 0-1.6l1.9-4.5zm-6.6 1.9c.3-.9.1-1.6-.6-1.6-.8 0-1 .6-1.8 2.3v-1c0-.7-.2-1.3-.9-1.3-.8 0-1.4 1.2-2 2.3h.3c.4-.5.7-.8 1-.8s.5.5 0 1.6l-1.5 3.2c-.3.6 0 1 .6 1 .4 0 .5-.1.7-.5l1.4-3.8c.4-.5.8-.9 1.2-1.4h1.6zm-10.2 5.4.1-.4c-1.8-.3-2-.3-1.3-2.3l.7-2h2c.9 0 .9.4.8 1.3h.5l1.2-3.2h-.5c-.4.8-.8 1.3-1.8 1.3h-1.9l1-2.8c.3-.9.5-1.1 1.7-1.1h.8c1.2 0 1.4.3 1.4 1.6h.5l.4-2.2h-7.4l-.1.4c1.4.3 1.6.4.9 2.3l-1.6 4.4c-.7 1.8-1 2-2.6 2.3l-.1.4h5.3z" clip-path="url(#N)"/></g><g><defs><path id="O" d="M24.3 24.3h157.2v138.1H24.3z"/></defs><clipPath id="P"><use xlink:href="#O" overflow="visible"/></clipPath><path d="M66 139.3c.5 0 .9.4.7 1.3l-2.3.5c.4-1 1.1-1.8 1.6-1.8m1.3 3.7h-.5c-.6.7-1.2 1.2-1.8 1.2-.6 0-1-.4-1-1.2 0-.3 0-.7.1-1l3.7-1.2c.7-1.7-.1-2.5-1.2-2.5-1.8 0-3.8 2.9-3.8 5.5 0 1.2.6 1.8 1.4 1.8 1.2 0 2.2-1 3.1-2.6m-.8-5.4 2.6-2.4v-.3h-1.4l-1.6 2.7h.4zm-8 1.7h1.2l-2 5.4c-.2.5.1.9.5.9 1.1 0 2.9-1.1 3.5-2.6h-.3c-.5.5-1.5 1.2-2.3 1.4l1.8-5h1.8l.2-.8h-1.8l.7-1.9h-.7l-1.3 1.9-1.5.2v.5h.2zm-1.7-.2c.1-.5-.2-.8-.4-.8-1.1 0-2.3 1-2.9 2.3h.3c.3-.5.9-1 1.5-1.1l-2.1 5.3c-.2.5.2.8.4.8 1 0 2.2-1 2.7-2.3H56c-.3.5-.9 1-1.5 1.1l2.3-5.3zm.4-2.7c.5 0 .9-.4.9-.9s-.4-.9-.9-.9-.9.4-.9.9.4.9.9.9m-7.1 8 3.7-9.8-.1-.1-2.3.3v.3l.5.3c.4.3.3.6-.1 1.6l-2.9 7.7c-.2.4.1.9.5.9 1.1 0 2.2-1 2.7-2.3h-.3c-.5.5-1.2 1-1.7 1.1m-7.1-.9c0-1.7 1.8-3.9 2.9-3.9.2 0 .4 0 .6.1l-1.1 2.9c-.6.8-1.6 1.7-2 1.7-.3-.1-.4-.3-.4-.8m5.6-5.5H48l-.6.6h-.1c-3.1 0-5.7 3.4-5.7 5.9 0 .7.4 1.1 1.1 1.1.8 0 1.6-1.1 2.4-2.3v.4c-.1 1.2.3 1.9.9 1.9.8 0 1.4-1.2 2-2.3h-.3c-.4.5-.7.8-1 .8s-.5-.5 0-1.6l1.9-4.5zm-13.7 8.9c0-.7.7-1.2 1.7-1.5.3.2.8.3 1.4.6 1 .3 1.4.5 1.4.8 0 .7-1.1 1.2-2.6 1.2-1.2-.1-1.9-.4-1.9-1.1m2.8-4.3c-.4 0-.6-.4-.6-.8 0-1.2.6-3 1.7-3 .4 0 .6.4.6.8 0 1.2-.7 3-1.7 3m2.9 3.7c0-.9-.8-1.2-2-1.5-1.1-.3-1.6-.4-1.6-.8 0-.3.2-.6.7-.9 1.8-.1 2.9-1.7 2.9-3 0-.3-.1-.5-.1-.7H42l.2-.8h-2.4c-.3-.2-.6-.3-1-.3-1.9 0-3.1 1.6-3.1 3 0 1 .6 1.6 1.4 1.8-.9.4-1.4.8-1.4 1.4 0 .3.1.5.4.7-2 .6-2.8 1.3-2.8 2.2s1.2 1.3 2.7 1.3c2.6 0 4.6-1.3 4.6-2.4m-9.4-5.8c.9 0 .9.4.8 1.3h.5l1.2-3.2h-.5c-.4.8-.8 1.3-1.8 1.3h-1.9l1-2.7c.3-.9.5-1.1 1.7-1.1h.8c1.2 0 1.4.3 1.4 1.6h.5l.4-2.2h-7.4l-.1.4c1.4.3 1.6.4.9 2.3l-1.6 4.4c-.7 1.8-1 2-2.6 2.3l-.1.4h8.2l1.5-2.3h-.6c-.9.9-2.1 1.7-3.8 1.7-2.2 0-2-.1-1.3-2.1l.8-2.1h2zm1.1-5.6 2.6-1.8v-.3h-1.6l-1.4 2.1h.4z" clip-path="url(#P)"/></g><g><defs><path id="Q" d="M24.3 24.3h157.2v138.1H24.3z"/></defs><clipPath id="R"><use xlink:href="#Q" overflow="visible"/></clipPath><path d="M65.1 122.5c.5 0 .9.4.7 1.3l-2.3.5c.4-1 1.1-1.8 1.6-1.8m1.3 3.7h-.5c-.6.7-1.2 1.2-1.8 1.2-.6 0-1-.4-1-1.2 0-.4 0-.7.1-1L67 124c.7-1.7-.1-2.5-1.2-2.5-1.8 0-3.8 2.9-3.8 5.5 0 1.2.6 1.8 1.4 1.8 1.1 0 2.1-.9 3-2.6m-.7-5.4 2.6-2.4v-.3h-1.4l-1.6 2.7h.4zm-7.7 1.8h1l-2 5.4c-.2.5.1.9.5.9 1.1 0 2.9-1.1 3.5-2.6h-.3c-.5.5-1.4 1.2-2.3 1.4l1.8-5H62l.2-.8h-1.8l.7-1.9h-.7l-1.3 1.9-1.1.1v.6zm-1 .6c.3-.9.1-1.6-.6-1.6-.8 0-1 .6-1.8 2.3v-1c0-.7-.2-1.3-.9-1.3-.8 0-1.4 1.2-2 2.3h.3c.4-.5.7-.8 1-.8s.5.5 0 1.6l-1.4 3.2c-.3.6 0 1 .6 1 .4 0 .5-.1.7-.5l1.4-3.8c.4-.5.8-.9 1.2-1.4H57zm-8.2-.7c.5 0 .9.4.7 1.3l-2.3.5c.3-1 1-1.8 1.6-1.8m1.2 3.7h-.5c-.6.7-1.2 1.2-1.8 1.2s-1-.4-1-1.2c0-.4 0-.7.1-1l3.7-1.2c.7-1.7-.1-2.5-1.2-2.5-1.8 0-3.8 2.9-3.8 5.5 0 1.2.6 1.8 1.4 1.8 1.2 0 2.3-.9 3.1-2.6m-9.1 1.5c-.4 0-.9-.3-.9-.6 0-.1.2-.5.4-1l.6-1.6c.6-.8 1.6-1.6 2.2-1.6.3 0 .6.2.6.7 0 1.5-1.4 4.1-2.9 4.1m4.2-4.7c0-1.1-.4-1.5-1.2-1.5-.9 0-1.8 1-2.7 2.2l2.2-5.9-.1-.1-2.3.3v.3l.5.3c.4.3.3.7-.1 1.6l-2.4 6.2c-.2.5-.4 1-.4 1.1 0 .6.9 1.2 1.7 1.2 1.8.1 4.8-3.2 4.8-5.7m-7.3-.7c.1-.5-.2-.8-.4-.8-1.1 0-2.3 1-2.9 2.3h.3c.3-.5.9-1 1.5-1.1l-2.1 5.3c-.2.5.2.8.4.8 1 0 2.2-1 2.7-2.3H37c-.3.5-.9 1-1.5 1.1l2.3-5.3zm.4-2.7c.5 0 .9-.4.9-.9s-.4-.9-.9-.9-.9.4-.9.9.4.9.9.9m-5.4-.8h-4.9l-.1.4c1.4.3 1.6.4.9 2.3l-1.6 4.4c-.7 1.8-1 2-2.6 2.3l-.1.4h7.4l1.6-2.9h-.6c-.9 1-2 2.3-3.6 2.3-1.2 0-1.4-.2-.7-2.1l1.6-4.4c.7-1.8 1-2 2.6-2.3l.1-.4z" clip-path="url(#R)"/></g><g><defs><path id="S" d="M24.3 24.3h157.2v138.1H24.3z"/></defs><clipPath id="T"><use xlink:href="#S" overflow="visible"/></clipPath><path d="m52 45.8.8-.8c.5-.6 1-1.1 1.5-1.6.2-.2.3-.3.5-.4 0 0 0-.1.1-.2-.2.1-.4.3-.6.4 0 0-.1 0 0-.1.2-.1.3-.2.5-.4v-.1c-.6-.1-1.1.3-1.5.7h-.2c-.7.2-1.2.8-1.9 1.1v-.1c-.3.1-.5.3-.8.3-.4.1-.8 0-1.1 0-.6.1-1.1.2-1.7.3l-.9.3s0 .1-.1.1l-.3.3c-.3.1-.5.4-.8.6h-.1l-.7.7h-.1c0-.1.1-.1.1-.2s.1-.1.1-.2c.1-.1.1-.2.2-.3v-.1h-.1c.2-.2.5-.4.8-.6h-.1l.1-.1c-.1 0-.2.1-.2.2-.1.1-.2.3-.4.3H45v-.1s0-.1.1-.1v-.2l.3-.3c.2-.1.4-.2.5-.3 0 0 .1 0 .1-.1-.3.1-.5.2-.7.4h-.2c0-.1.2-.1.3-.2h.1c1.5-1.1 3.5-.9 5.2-1.5.1-.1.3-.2.4-.3.2-.1.4-.3.7-.5.4-.3.6-.6.8-1.1v-.1c-.6.6-1.3 1.1-2 1.5-1 .5-2 .4-3 .6 0-.1.1-.1.2-.1 0-.1.1-.2.2-.3 0 0 0-.1.1-.1h.2c-.1-.2-.4.1-.6 0 .1-.1 0-.2.1-.3h.2c0-.1.1-.2.1-.2.7-.4 1.3-.7 2-1.1-.1 0-.2.1-.4 0 .1 0 0-.1.1-.1.5-.1.9-.4 1.4-.6-.2 0-.3.1-.5 0 .1 0 .1-.1.3-.1v-.1h.1-.1c0-.1.2 0 .3-.1h-.1c.1-.2.4-.2.6-.3 0-.1-.2 0-.2-.1h.1-.1c-.1 0 0-.1 0-.2.3-.3.3-.7.4-1.1h-.1c-.5.5-1.2.7-1.9.9h-.2c-.2.1-.6.1-.8 0s-.3-.2-.5-.4c-.4-.2-.7-.4-1.1-.6-1.1-.4-2.3-.6-3.5-.5.5-.3 1.1-.3 1.6-.5.8-.2 1.5-.5 2.3-.5h-.5c-.6 0-1.3.1-2 .3-.5.1-.9.3-1.3.4-.3.1-.4.4-.7.3v-.1c.5-.6 1-1.1 1.7-1.1.8-.1 1.6 0 2.4.1.6 0 1.1.2 1.7.3.2 0 .3.4.5.4.3.1.6 0 .8.2v-.3c.2-.2.4 0 .6 0 .4-.2-.3-.6-.5-1v-.1c.4.3.6.7 1.1.9.2.1.8.2.7 0-.2-.5-.7-.9-1.1-1.4v-.2c-.1 0-.1 0-.1-.1v-.2c-.2-.1-.1-.3-.2-.4-.1-.2 0-.6-.1-.8-.1-.3-.1-.5-.2-.8-.1-.8-.3-1.5-.4-2.2-.1-.9.5-1.6.9-2.3.3-.6.7-1.1 1.3-1.5.1-.6.5-1 .9-1.5.4-.4 1-.7 1.4-.9.6-.3 1.2-.5 1.2-.5H24.3V49h22.3c.9-.6 1.7-.9 3-1.5.6-.7 1.9-1.3 2.4-1.7m-7.1-3.3h-.2c0-.2.4-.2.6-.3.1 0 .2-.1.3-.1.1.1.2.1.3.2-.3.2-.7 0-1 .2m-7-1s-.1-.1 0 0c.6-.9 1-1.6 1.4-2.4.6-.3 1.1-.8 1.6-1.3.8-.8 1.6-1.6 2.6-2 .4-.1.8-.1 1.2 0-.1.2-.4.1-.6.3H44V36c-.5.5-1.1.7-1.5 1.3-.3.5-.5 1.1-1.1 1.2-.2 0 0-.1 0-.1-1.4.8-2.4 1.8-3.5 3.1m3.8-3.1c0 .1-.1.1-.1.2s-.1.1-.2.2h-.1c0-.2.2-.4.4-.4 0-.1 0 0 0 0m2.1 6.9c0 .1-.1.1 0 0v.2c-.1.1-.2.2-.3.2h-.1l-.2.2c-.1 0-.3 0-.2-.1l.3-.3.2-.2.1-.1c0 .1.3 0 .2.1m-.8-.4c-.2.1-.4.3-.5.4l-.6.3h-.1c-.2.1-.3.2-.5.4l-.1.1-.1.1-.1.1-.1.1h-.3c-.1 0-.1.1-.2.1l-.3.3v-.1c0-.1.1-.1.1-.2v-.1l.1-.1c.1-.1.1-.1.1-.2 0 0 0-.1.1-.1 0 0 0-.1.1-.1v-.3c.1-.1.1-.2.2-.2-.1 0-.1.1-.2.1 0 0-.1 0-.1-.1l.1-.1c.1-.1.1-.2.2-.2s.1-.1.1-.1l.1-.1c.4-.4 1.2-.4 1.8-.7.2-.1.5 0 .7 0 .1 0 .3 0 .4.1-.1.1-.5.4-.9.6m.9-3.2s.1 0 .2-.1h-.4v-.1c-.2 0-.5.1-.7.2-.3.1-.6.3-1 .4-.5.2-.9.6-1.5.8v-.1c0-.1.2-.2.3-.3v-.1c.4-.5.9-.8 1.3-1.2v-.1c.1-.2.4-.3.5-.5 0-.1.2-.3.5-.4 0 0-.1 0-.1-.1-.2 0-.4.1-.6 0 .1-.1.2-.1.3-.2 0 0-.1 0-.1-.1s.1-.2.2-.2c.2 0 .4 0 .6-.2-.3 0-.7.1-1-.1.2-.6.6-1.1 1.2-1.4h.1c0 .2-.1.4-.4.5.4.1.7.1 1.1.3 0 .1-.1 0-.2 0 .2.1.5 0 .7.2-.1.1-.3 0-.4 0 1.4.4 2.9.7 4.1 1.7-1 .5-2.1.7-3.2 1H45v.1c-.2 0-.3 0-.5.1-.2 0-.4.1-.6-.1" clip-path="url(#T)" fill="#273375"/></g><g><defs><path id="U" d="M24.3 24.3h157.2v138.1H24.3z"/></defs><clipPath id="V"><use xlink:href="#U" overflow="visible"/></clipPath><path d="M91.2 24.3H65l.2.1c.2.1.5.3.7.4.3.2.7.4.9.7.1.1.2.4.1.6s-.1.6-.4.7-.6.1-1 .1c-.2 0-.4 0-.6-.1.7.3 1.3.6 1.8 1.2 0 .1.2.1.4.1v.1c-.1.1-.2.1-.1.3h.1c.2-.1.2-.6.5-.4.2.1.3.5.2.7-.2.2-.4.3-.6.5v.3c.1.2.2.4.2.6.1.3.2.7.3 1 .2.7.4 1.4.3 2.1 0 .4-.2.7 0 1.1.1.4.3.6.5 1 .2.3.4.5.5.7.3.5.8.9.6 1.5-.1.3-.6.3-1 .5-.3.2 0 .6.1.8.2.4-.3.7-.6.8.1.1.3.1.3.2 0 .2.3.4.1.6-.2.3-.7.4-.5.8.2.3.1.7 0 1-.1.4-.5.6-.8.7-.3.1-.6.1-.9 0-.1 0-.2-.1-.3-.1-.8-.1-1.6-.3-2.3-.3-.2 0-.5.1-.6.2-.2.2-.4.3-.6.5l-.1.1-.1.1c-.1.2-.3.3-.4.5v.1c-.2.3-.3.6-.3.8-.3 1.1-.2 2 0 2.2.1.1 1.5.5 2.5 1 .5.2.8.4 1.1.5h25.7V24.3h.3z" clip-path="url(#V)" fill="#e30613"/></g><g><defs><path id="W" d="M24.3 24.3h157.2v138.1H24.3z"/></defs><clipPath id="X"><use xlink:href="#W" overflow="visible"/></clipPath><path d="M66.6 33.2c.2 0 .5 0 .5.1-.1.4-.6.5-.9.8H66c-.1.1-.1.3-.2.3h-.4c.2.2.4.3.7.3 0 0 .1.1.1.2h.2v.2c-.1.2-.4.1-.6.1.4.1.7.1 1.1 0 .3-.1 0-.6.2-.8-.1 0 0-.1-.1-.1l.3-.3c.1 0 .2 0 .3-.1 0-.1-.2-.1-.1-.2.3-.2.5-.5.4-.7 0-.1-.4-.1-.6-.2-.2-.1-.5 0-.8 0-.2 0-.5.1-.7.2-.3.1-.6.3-.9.5.3-.1.6-.2 1-.3.2 0 .4-.1.7 0" clip-path="url(#X)" fill="#9d9d9c"/></g></svg>