<svg xmlns="http://www.w3.org/2000/svg" class="logo-svg"><path style="opacity:.997" fill="#00445a" d="M123.5-.5h20c9.569 2.619 18.236 7.119 26 13.5 18.406 18.42 32.906 39.588 43.5 63.5a616.609 616.609 0 0 1 24 62c11.51-34.017 26.51-66.35 45-97 8.769-13.101 19.269-24.601 31.5-34.5a171.449 171.449 0 0 1 16-7.5h20c17.9 4.716 32.734 14.383 44.5 29 15.974 21.275 28.307 44.609 37 70 16.87 48.35 27.87 98.017 33 149a1499.573 1499.573 0 0 1 9 135c.5 213.666.667 427.333.5 641h-130c.167-190.667 0-381.334-.5-572a381.75 381.75 0 0 0-5-60 48.727 48.727 0 0 0-6-15c-5.748-6.559-11.414-6.559-17 0-6.588 14.601-10.255 29.934-11 46a749.16 749.16 0 0 0-2 37c-.5 188-.667 376-.5 564h-130c.167-187.334 0-374.667-.5-562a398.866 398.866 0 0 0-6-72c-1.497-6.498-4.663-11.998-9.5-16.5-5.675-2.427-10.175-.927-13.5 4.5-4.87 10.811-7.87 22.144-9 34a444.787 444.787 0 0 0-3 42c-.5 190-.667 380-.5 570H-.5v-670c2.338-68.201 11.838-135.534 28.5-202 9.354-36.735 23.02-71.736 41-105C78.738 29.428 91.904 15.595 108.5 5c4.947-2.308 9.947-4.141 15-5.5z"/><path style="opacity:.997" fill="#00435a" d="M673.5-.5h20c15.814 4.847 28.981 13.847 39.5 27 12.347 16.01 22.68 33.344 31 52a651.774 651.774 0 0 1 23 60c13.394-40.122 32.061-77.456 56-112A111.489 111.489 0 0 1 865.5 6a130.43 130.43 0 0 1 14-6.5h20c18.383 4.797 33.55 14.797 45.5 30 19.381 27.099 33.714 56.765 43 89 16.25 54.86 26.25 110.86 30 168 2.34 30.462 4.17 60.795 5.5 91v646h-130c.167-192 0-384-.5-576a312.377 312.377 0 0 0-6-60c-1.174-5.833-4.007-10.666-8.5-14.5-4.856-2.496-9.022-1.662-12.5 2.5a48.222 48.222 0 0 0-7 16 373.526 373.526 0 0 0-7 74c-.5 186-.667 372-.5 558h-130c.167-189.667 0-379.334-.5-569a398.893 398.893 0 0 0-5-61c-1.051-8.196-4.551-15.029-10.5-20.5-3-2-6-2-9 0-5.78 5.978-9.28 13.145-10.5 21.5a372.584 372.584 0 0 0-6 62c-.5 189-.667 378-.5 567h-130c-.167-222.334 0-444.667.5-667 1.72-80.041 14.053-158.374 37-235a391.363 391.363 0 0 1 31-73c8.928-16.005 20.761-29.505 35.5-40.5 6.43-3.724 13.096-6.557 20-8.5z"/></svg>
