<?xml version="1.0" standalone="no"?>
<!DOCTYPE svg PUBLIC "-//W3C//DTD SVG 20010904//EN"
 "http://www.w3.org/TR/2001/REC-SVG-20010904/DTD/svg10.dtd">
<svg version="1.0" xmlns="http://www.w3.org/2000/svg"
 width="192.000000pt" height="189.000000pt" viewBox="0 0 192.000000 189.000000"
 preserveAspectRatio="xMidYMid meet">

<g transform="translate(0.000000,189.000000) scale(0.100000,-0.100000)"
fill="#00445b" stroke="none">
<path d="M117 1772 c-16 -17 -17 -89 -17 -829 0 -772 1 -811 18 -826 17 -16
90 -17 844 -17 786 0 826 1 841 18 16 17 17 89 17 829 0 772 -1 811 -18 826
-17 16 -90 17 -844 17 -786 0 -826 -1 -841 -18z m448 -246 c18 -19 41 -58 51
-86 l19 -52 26 59 c29 63 69 113 93 113 51 0 93 -49 125 -145 38 -115 45 -218
45 -690 l1 -450 -77 -3 -76 -3 -4 400 c-2 300 -6 403 -15 412 -7 7 -16 9 -20
5 -5 -4 -10 -188 -13 -409 l-5 -402 -77 -3 -76 -3 -4 400 c-2 300 -6 403 -15
412 -7 7 -16 9 -20 5 -5 -4 -10 -188 -13 -409 l-5 -402 -77 -3 -78 -3 0 468
c1 495 5 552 50 688 24 74 75 135 110 135 13 0 37 -15 55 -34z m670 0 c18 -19
41 -58 51 -86 l18 -51 28 59 c30 63 71 112 95 112 30 0 69 -30 91 -68 64 -114
85 -338 80 -867 l-3 -350 -77 -3 -76 -3 -4 400 c-2 300 -6 403 -15 412 -7 7
-16 9 -20 5 -5 -4 -10 -188 -13 -409 l-5 -402 -77 -3 -76 -3 -4 400 c-2 300
-6 403 -15 412 -7 7 -16 9 -20 5 -5 -4 -10 -188 -13 -409 l-5 -402 -77 -3 -78
-3 0 468 c1 495 5 552 50 688 24 74 75 135 110 135 13 0 37 -15 55 -34z"/>
</g>
</svg>
