<svg version="1.0" xmlns="http://www.w3.org/2000/svg" width="682.667" height="682.667" viewBox="0 0 512 512">
  <path d="M136 71v56h37.3l-.6 4.9c-.9 7.7-4.3 14.5-10.1 19.9-8.2 7.8-11.8 8.7-33.6 8.7-18.2 0-18.6 0-24.1-2.8-6.6-3.2-13.2-9.9-16.2-16.5-2.1-4.5-2.2-6.4-2.5-36.4L85.9 73l-9.1 6.1C47.4 98.9 31 126.8 29.3 160c-1.1 22 4.6 42.3 17.2 61.5 5.3 8 18.4 21.1 26.8 26.5l6.7 4.4V497h99l.2-39.3.3-39.2 151.8-.3L483 418V307h-54v-34h54V161h-54v-34h54V15H136v56zm332 .5V112H215.3l-5.1-6.8c-6.8-9.1-17-18.6-27.5-25.5-4.7-3.1-8.8-5.7-9.1-5.7-.4 0-.6 8.5-.6 19v19h-22V31h317v40.5zm-394 73c6 15.7 20 27.5 35.9 30.5 7.2 1.3 32.2 1.3 39.7-.1 12.7-2.3 25.4-11.1 31.9-22.3 5-8.6 6.5-16.2 6.5-34.1l.1-16 5.2 5.6c14.7 16 22.6 38.5 21.4 60.9-1.6 30.2-17.8 56.1-43.9 70.5l-6.8 3.7-.2 119.1-.3 119.2h-68l-.3-119.2L95 243l-4.3-2.1c-29.8-15.2-48.4-47.6-46.4-80.9 1.2-19.9 9.7-39.6 23.1-53.8l3.1-3.3.6 17.8c.5 15.3.9 18.6 2.9 23.8zm340-.5v17H230.4l-1.2-8.9c-1-7.5-3.5-17.5-5.9-23.7-.4-1.2 14.1-1.4 95.1-1.4H414v17zm54 73v41H179l.1-2.8c0-2.2 1.2-3.5 6.9-7.1 8.1-5.2 19.5-16.2 25.5-24.6 8.1-11.3 15.1-27.7 17-39.5.3-2.5.9-5.3 1.1-6.3.5-1.6 7.1-1.7 119.5-1.7H468v41zm-278 73v17h-11v-34h11v17zm224 0v17H205v-34h209v17zm54 73v41l-144.2-.2-144.3-.3-.3-40.8-.2-40.7h289v41z"/>
  <path d="M387 71.5V79h60V64h-60v7.5zM119.5 405.3c-12.9 5.1-19.9 15-19.9 28.2 0 9.5 2.9 16 10.1 22.5 6.7 6.1 13.7 8.5 22.5 7.7 26.1-2.4 36.9-35.2 17.2-52.6-2.5-2.2-6.6-4.7-9.1-5.5-5.4-1.8-16.4-2-20.8-.3zm18.3 15.4c4.9 3.7 6.7 7.1 6.7 12.8 0 9-6 15-15 15s-14.9-5.9-14.9-14.9c0-9.4 7.1-16.1 16.3-15.2 2.4.2 5.5 1.2 6.9 2.3zM387 216.5v7.5h60v-15h-60v7.5zM387 362.5v7.5h60v-15h-60v7.5z"/>
</svg>
