<svg version="1.0" xmlns="http://www.w3.org/2000/svg" width="1840" height="620" viewBox="0 0 1380 465"><path d="M222.5 39.6c-42.6 5.7-81 24.8-111.6 55.3-28.5 28.6-46.6 63.5-54.1 104.1-3.1 16.6-3.1 50.4 0 67 10.3 55.7 42.1 102.8 89.5 132.2 56.6 35.2 129.6 38.4 189.7 8.3 74-37.2 116.4-117.3 105.5-199.7-9.4-71.5-57.7-131.9-125.5-157.1-27.7-10.3-63.6-14.2-93.5-10.1zm57 31.4c34.8 6.9 64.2 23.2 88.9 49.1 20.9 22 35 48.9 41.8 80.2 2 8.9 2.3 13.1 2.3 32.7s-.3 23.8-2.3 32.3c-14.9 66.6-63.1 114.5-129.5 128.9-13.9 3-48.3 3.3-62.2.5-12.3-2.5-29.1-8.1-40.5-13.4-31.8-14.8-61.9-44.5-77.5-76.6-5.5-11.4-11.8-30.5-14.2-42.8-2.5-13.5-2.5-44.7.1-58.4 4.2-22.5 14.5-47.3 27.3-65.5 8.5-11.9 28-31.5 39.8-39.9 10.8-7.6 31.6-17.9 44.2-22 8.3-2.7 24.8-6.3 34.3-7.5 9.1-1.1 36.8.3 47.5 2.4z"/><path d="M317 113.5c0 .3 1.4 3.2 3.2 6.5 3.5 6.8 3.8 9.8 1.4 15.4l-1.6 3.9-2.5-2.7c-1.7-1.8-3.4-2.6-5.7-2.6-3.6 0-7.8 2.3-7.8 4.3-.1.7-1.5 2.1-3.2 3.2-4.5 2.8-7 7.7-7 13.4 0 2.6.2 5.7.6 6.7.6 1.9.1 2-6.9 1.9H280l-3.4-5.1c-3.4-5-3.5-5.3-3.3-14.7.2-8.8-.4-11.9-1.9-10.4-.3.3-1.3 5-2.2 10.3-1.5 9.5-1.5 9.9.5 15.6 1.2 3.2 1.9 5.8 1.7 5.8-.3 0-1.8-.7-3.4-1.5-2.2-1.1-3.3-2.9-5-8.2-3.7-11.4-8-18.8-8-13.9 0 2.2 2.7 14.4 4.4 19.9 1.4 4.7 1.4 4.8-.7 4.2-1.2-.4-4.4-3.1-7.2-6.1-2.7-3-5.4-5.4-5.9-5.4s-1.8-.8-2.9-1.8c-3.9-3.5-1.4 1.4 4.7 9.2 5.3 6.7 6.7 7.8 13.2 10.7 4.1 1.7 7.4 3.6 7.4 4.1 0 .5-.8.7-1.7.4-7-2.1-53.8-9.3-76.3-11.8-13.9-1.5-70.7-1.7-76.5-.2-4.8 1.2-5.6 3.6-2.3 7.1 4.1 4.5 19.7 14.2 34.1 21.4 12.2 6 15.9 7.4 26.2 9.4 12.9 2.7 26 3.1 31 1.2 1.7-.7 6-2.9 9.7-5 7.8-4.5 11.4-5.2 36.1-7.5l18.9-1.7 1.4 3.4c.8 1.8 1.4 3.4 1.4 3.5 0 0-3 .1-6.8.1-10.8.1-19.5 5.9-40.8 27-14.5 14.4-23.3 26.6-36.1 50-8.1 14.7-17.8 35.4-17 36.2.8.7 17.3-6.8 32.7-15 23.8-12.7 38.9-23.4 53-37.6 20.6-20.8 28.7-33.4 27.8-43.2-.3-2.7-.4-4.9-.3-4.9.1 0 1.6.5 3.4 1.1 3.7 1.3 3.7.5 1.6 23.4-2.1 23-2.8 25.9-8.3 35.1l-4.7 7.9.1 11.5c.1 13.4 2.8 27.5 7 37.2 4.3 9.7 13.1 25.4 19.5 34.8 9.6 14.1 12.3 14.1 13.9-.1 2.3-19.5.9-57-3.1-87.9-1.9-14.5-8.2-53.2-9.5-58.6-1.3-5.1 1.5-2 4.6 5.2 3 6.8 4.1 8.1 10.9 13.5 6.5 5 10.1 7 10.1 5.6 0-1.9-3.7-7-7-9.6-4.3-3.4-7.6-7.8-6.7-8.7.3-.3 5.6.6 11.7 2.1 18 4.3 18 1.1.1-4.6-5.9-1.9-7.8-3-9.3-5.4-2.6-4.4-2.3-4.6 2.8-2.5 5.2 2.3 9.4 2.5 18 .9 8-1.4 9.4-1.9 9.4-3.1 0-.8-3.3-.9-10.6-.5l-10.6.6-5.2-3.5-5.1-3.4-.1-7.3v-7.2l6.6.3c8 .5 12.2-1.3 15.2-6.4 1.1-1.9 2.4-3.4 2.9-3.4s1.8-.9 2.9-2c2.9-2.9 2.7-8.4-.5-11.6l-2.5-2.5 4.2-1.9c5.8-2.6 6.6-2.5 14.4 1.5 5.9 3.1 7 3.4 8.2 2.1 1.3-1.2.9-1.7-2.5-3.9-2.2-1.4-6.1-3.2-8.7-4.1-4.6-1.6-4.9-1.5-12.3 1l-7.5 2.6-1.6-2.4c-2.2-3.1-7.3-8.2-9.6-9.5-1.8-1-1.8-1.3.8-7.6 1.4-3.6 2.6-7.4 2.6-8.4s-1.6-5.1-3.5-9.1c-2.6-5.4-3.9-7.2-5.5-7.2-1.1 0-2 .2-2 .5zM526.2 148c-20.9 2.7-32.9 9.3-38.3 21.3l-2.4 5.2-.3 54.8c-.2 47-.1 55.7 1.3 61 3.6 14.5 13.6 21.8 35.3 25.9 10.7 2.1 48.6 1.7 59.1-.5 15.9-3.4 26.1-9.9 30.2-19.2 3.4-7.8 3.8-17.1 3.1-70.5-.8-51.1-.8-51.5-3.1-56.7-4.3-9.6-14.8-16.5-30.1-19.8-8.9-1.9-43.8-2.8-54.8-1.5zm46.6 16.6c14.8 3 19.5 7.8 21.3 21.5 1.3 10.3.3 92.4-1.3 98.4-1.5 5.8-8 11.9-14.8 13.9-3 .9-11 2.2-17.7 2.8-13.9 1.3-31.4 0-40.4-2.9-6.6-2.2-12.3-7.6-14.1-13.5-1.8-6-1.7-97.2.1-103.8 3.7-13.3 14.5-17.8 42.9-17.9 11.1-.1 18.7.4 24 1.5zM916.6 148.1c-25.5 3.5-36.7 11.7-39.6 29-.6 4-1 31.9-1 72.6V316h20v-62h89v62h19.1l-.3-70.8-.3-70.7-2.6-5.5c-4.7-10.1-13.5-16.1-28.4-19.5-8.4-1.9-45.4-2.9-55.9-1.4zm45.4 16.4c11.7 2.5 16.4 5.5 19.7 13 1.5 3.4 1.8 8 2.1 31.2l.4 27.3h-89.4l.4-27.3c.3-23.3.6-27.8 2.1-31.2 3.3-7.3 8.2-10.6 19.1-13 8.7-1.9 36.6-1.9 45.6 0zM1076.6 148.1c-20.8 2.8-32.4 9.3-37.7 21.2-2.3 4.9-2.4 6.4-2.4 24.2 0 21.5.6 23.7 8.6 31.5 8 7.8 12.3 9 58.4 16.4 12.1 2 23.6 4.1 25.6 4.6 5.7 1.6 10.2 5.1 12.7 10 1.9 3.8 2.2 6 2.2 15.7 0 12.4-1.2 16.8-5.7 21.5-6 6.2-21.6 9.4-41.6 8.5-34-1.6-40.6-7-40.7-33V259h-20v10.2c0 24.6 4.9 35.1 19.5 41.9 10.7 5.1 19.3 6.3 45 6.3 18.6.1 24.6-.2 31.3-1.7 10.6-2.3 17.9-5.5 23.1-10.3 8.3-7.4 10.6-16.3 9.9-38.7-.4-12.9-.6-14.7-3-19.3-4.1-7.9-11.9-14.1-21.8-17.3-1.9-.6-18.3-3.6-36.5-6.6-35.6-5.9-40.2-7.3-44.2-13.3-1.2-1.8-2.5-5.8-2.9-8.8-.8-6.8.3-20.8 2.1-24.9 1.9-4.7 6.9-8.2 14.8-10.7 6.5-2.1 9.2-2.3 27.2-2.3s20.7.2 27.2 2.3c12.4 3.9 16.3 9.6 16.3 23.9v7.3H1164.3l-.5-11.3c-.3-8.7-.9-12.3-2.7-16.2-4.6-10.3-13.7-16.6-29.1-20-8.9-2-44.6-2.9-55.4-1.4zM646 209.7c.1 33.4.5 65.4 1 71.1 1.9 21 9.4 29.9 29.6 34.8 8.8 2.2 33.4 2.5 41.4.5 8.2-2 16.7-6.7 22-12l4.8-4.8 4.7 4.7c10.1 10.3 20.3 13.5 42 13.3 22.6-.2 34.8-4 42.9-13.4 7.4-8.6 7-5.2 7.4-84.2l.3-70.7h-20l-.3 68.2-.3 68.3-2.5 4.5c-3.4 6.1-10.4 9.6-22 11-14.3 1.7-28.5-.9-34.7-6.3-7.1-6.2-6.8-2.7-7.1-78l-.3-67.8-10.2.3-10.2.3-.5 68c-.5 63.8-.6 68.2-2.4 71.8-4.4 8.8-12.9 12.2-31.1 12.2-18.2 0-26.1-3-30.8-11.8-2.2-4.2-2.2-4.3-2.7-72.2l-.5-68-10.2-.3-10.3-.3v60.8zM1197 232.5V316h20v-47.8l35.8-.5c28.8-.3 36.9-.7 42-2 18.2-4.8 28.3-15.8 30.3-33.1 1.1-9.6 1.1-41.4-.1-50.3-1.7-13.1-7.5-21.5-18.8-27.2-11.1-5.6-16.5-6.1-65.2-6.1h-44v83.5zm93.5-64.7c6.1 2.8 10 6.4 12.8 11.7 2 3.6 2.2 5.9 2.5 23.4.5 25.5-1 33.2-7.7 40.4-6.9 7.6-13.7 8.7-51.3 8.7H1217v-87.1l34.3.3c33.2.3 34.3.4 39.2 2.6z"/></svg>