<svg version="1.0" xmlns="http://www.w3.org/2000/svg" width="682.667" height="682.667" viewBox="0 0 512 512"><path d="M246 66.2c-3.6 1.8-5.1 3.5-7.4 8.1-5.5 10.8-3.6 27.4 5.9 51.3l4.5 11.2-3.9 13.8c-6.9 24.4-15.5 48.3-28.1 78.5-2.3 5.4-2.5 5.6-12.9 10.9-21.9 11.3-37.1 23.4-41.7 33.4-4.9 10.4-2.1 21.1 7.1 27.3 11.6 8 22.8 1.6 38.1-21.7 3.4-5.2 8.8-14.7 11.9-21l5.8-11.6 5.6-2.3c22.6-9.4 67-23.1 74.7-23.1.8 0 4.7 2.7 8.6 6.1 18.6 15.5 36.1 18.2 47.3 7.1 5.2-5.1 8.9-13.3 8.2-18.2-1.8-13.7-18.4-17.5-54.3-12.4l-4.1.6-7.1-8.3c-12.5-14.8-25.9-34.8-35.1-52.6l-4.3-8.2 3.3-16.3c2.5-12.6 3.3-19 3.3-28.3.1-13.5-.4-15.2-7.3-22.3-3.7-3.8-4.6-4.2-8.9-4.2-3 0-6.5.9-9.2 2.2zm10.3 17.3c2.2 4.6 2.2 14.6.1 20.9-1.4 4-1.8 4.5-3.2 3.4-2.3-2-5.2-8.9-5.2-12.8 0-6 3.5-15 5.8-15 .5 0 1.6 1.6 2.5 3.5zm18.4 98.1c3.3 4.9 9 12.7 12.7 17.4 5.8 7.3 6.5 8.6 4.9 9.2-1 .3-8.5 2.5-16.8 4.8-8.2 2.3-20.5 6.2-27.4 8.6-6.8 2.4-12.6 4.2-12.9 4-.2-.3 2.3-7.4 5.6-15.8s8.5-23.2 11.6-32.8c3.2-9.6 5.9-18.1 6.2-18.9.3-.9 2.4 1.7 5.3 6.6 2.7 4.4 7.5 12 10.8 16.9zm78.7 35.7c1.8 1.3 1.7 1.5-1.1 4.7-2.5 2.8-3.8 3.4-8.4 3.8-5.2.4-5.7.2-10.9-3.9-5.3-4.2-5.4-4.3-3-5 4.7-1.3 21.5-1 23.4.4zm-153 45.4c-7.4 13.1-18.5 26.3-21.9 26.3-.8 0-2.1-1.4-3-3-1.9-3.7-.8-6.4 5.5-12.8 3.8-4 19.5-15.1 21.3-15.2.4 0-.4 2.1-1.9 4.7zM60 429.5c0 79.1-.2 76.1 5.7 80.1 2.7 1.8 7.8 1.9 190.3 1.9s187.6-.1 190.3-1.9c5.9-4 5.7-1 5.7-80.1V357H60v72.5zm123.5-35c7.6 2.8 15.9 11.5 18.1 19.1 2.4 8.2.8 17.8-4.1 24.9-6.1 8.9-13.3 12.1-29.2 13.2l-9.3.6V485h-15v-93.2l17.3.4c13.4.4 18.3.9 22.2 2.3zm74-1.5c19.4 2.8 33.9 17.5 36.8 37.5 2.1 14.5-3.3 34.2-11.7 42.7-9.4 9.6-17.6 11.8-43.5 11.8H220v-93h15.3c8.3 0 18.4.5 22.2 1zm116.5 5v6h-42v28h38v11h-38v42h-16v-93h58v6z"/><path d="M159 422v18.2l9.5-.4c10.5-.4 13.4-1.8 16.9-7.7 2.7-4.7 2.7-15.5 0-20.1-3.1-5.4-7.4-7.3-17.6-7.8l-8.8-.4V422zM236 438.5V473h10.1c13 0 17.2-1.3 23-7 6.2-6.2 8-11.7 8.6-26.1.6-13.4-.7-19-5.8-25.2-5.6-6.8-16.8-10.7-30.6-10.7H236v34.5z"/></svg>