<svg version="1.0" xmlns="http://www.w3.org/2000/svg" width="682.667" height="682.667" viewBox="0 0 512 512"><path d="M187.1 1.1c-12.8 2.5-25.7 12.5-31.1 24.1-3.7 7.9-5 14.6-5 25.8v8.8l-29.2.5C91 60.7 88.9 61 77 66c-17.1 7.2-32.7 22.8-40 40-4.1 9.7-5.1 15.2-5.7 29.7l-.6 14.3h450.6l-.6-14.3c-.6-14.5-1.6-20-5.7-29.7-7.3-17.2-22.9-32.8-40-40-11.9-5-14-5.3-44.7-5.7l-29.3-.5V51c0-4.8-.5-11.1-1-14.1-3.4-18-17.9-32.5-35.9-35.9-6.6-1.2-130.6-1.2-137 .1zM323 32c6 3.1 8 7.8 8 19v9H181v-9c0-11 2-15.9 7.8-18.9 3.6-1.9 6-2 67-2.1 61.5 0 63.4.1 67.2 2zM62.6 183.7c.3 2.1 6.3 68.4 13.4 147.3 13.6 151.8 13.5 150.5 19.4 159.9 6.4 10 18 17.9 29.5 20.1 7.3 1.4 254.9 1.4 262.2 0 11.5-2.2 23.1-10.1 29.5-20.1 5.9-9.4 5.8-8.1 19.4-159.9 7.1-78.9 13.1-145.2 13.4-147.3l.4-3.7H62.2l.4 3.7zM176 212c4.3 2.2 6.5 5.5 7.4 11 1.1 6.9 9.9 215.6 9.2 218.5-1 4-6.9 9.3-11.2 10.1-8.3 1.5-16.7-4.5-17.8-12.8-.6-4.6-9.6-204.9-9.6-213.4 0-11.8 11.5-18.8 22-13.4zm87 0c2.6 1.3 4.7 3.4 6 6 2 3.9 2 5.7 2 113s0 109.1-2 113c-2.3 4.5-8 8-13 8s-10.7-3.5-13-8c-2-3.9-2-5.7-2-113s0-109.1 2-113c3.7-7.3 12.4-9.9 20-6zm89.3 1.3c6.6 5 6.6-2 1.3 116.6-2.6 59.2-5.2 109.2-5.7 111.3-1.8 6.9-9.9 11.8-17.4 10.4-4.2-.8-10.1-6.2-11.1-10.1-.7-2.9 8.1-211.6 9.2-218.5.9-5.4 3.5-9.1 7.9-11.2 5.2-2.5 11.4-1.9 15.8 1.5z"/></svg>