<svg version="1.0" xmlns="http://www.w3.org/2000/svg" width="682.667" height="682.667" viewBox="0 0 512 512"><path d="M234 1C154.4 8.5 84.7 50.6 41 117.6c-8.2 12.6-21.4 38.8-22.9 45.4-4.4 19.1 5.2 38.8 22.9 46.9 16.2 7.5 34.1 4.1 46.3-8.8 4-4.2 7-9 11.9-19.1 16.9-34.6 41.1-60.4 73.5-78.3 50.4-27.8 113.1-28.4 163.3-1.5 8.9 4.7 24 14.6 24 15.7 0 .4-5 1.5-11.2 2.4-18.1 2.7-23.8 6.8-24.6 17.8-.5 6.8 1.6 11.9 6.2 15.3 5.1 3.8 130.6 59.8 135.3 60.4 7.8.9 16-4.9 18.3-12.9.5-1.7 1-35.7 1.1-75.5l.1-72.3-2.4-4.3c-5.2-9.5-18.7-11.8-26.7-4.5-1.3 1.2-6.3 8.2-11.2 15.4C440 67 435.7 73 435.4 73c-.3 0-3.6-2.8-7.2-6.1C396.1 37.4 354.2 15.6 311 6c-21.7-4.8-55.4-7-77-5zM37.2 300.1c-4.6 2.3-7.8 6.2-9.2 11-.5 1.7-1 35.7-1.1 75.5l-.1 72.3 2.4 4.3c5.2 9.5 18.7 11.8 26.7 4.5 1.3-1.2 6.3-8.2 11.2-15.4C72 445 76.3 439 76.6 439c.3 0 3.6 2.8 7.2 6.1 27.2 25 63.1 45.4 98.4 55.9 61.4 18.3 125.9 13.3 183.8-14.1 51.9-24.7 93.6-66 119.5-118.4 7.8-15.8 9.5-20.8 9.5-29 0-25.6-24.4-45.9-48.9-40.6-15.1 3.2-23.7 11.3-33.3 31.1-16.9 34.6-41.1 60.4-73.5 78.3-50.4 27.8-113.1 28.4-163.3 1.5-8.9-4.7-24-14.6-24-15.7 0-.4 5-1.5 11.2-2.4 18.1-2.7 23.8-6.8 24.6-17.8.5-6.8-1.6-11.9-6.2-15.3-1.7-1.3-31.9-15.3-67.1-31.1-44.8-20.2-65.3-28.9-68.5-29.2-3.3-.3-5.7.2-8.8 1.8z"/></svg>