<svg version="1.0" xmlns="http://www.w3.org/2000/svg" width="682.667" height="682.667" viewBox="0 0 512 512"><path d="M144.5 18.4c-5.4 2.5-10 7.1-12.2 12.3-1.9 4.8-1.9 206.8 0 211.6 2.2 5.2 6.8 9.8 12.2 12.3l5 2.4h213l5-2.4c5.4-2.5 10-7.1 12.2-12.3 1.9-4.8 1.9-206.8 0-211.6-2.2-5.2-6.8-9.8-12.2-12.3l-5-2.4h-213l-5 2.4zm63.4 61.2c1.7 1.2 2.1 2.2 1.6 4.1-1.4 5.9-10.2 13.8-21 19.1-8.7 4.2-11.1 4.6-13.5 2.2-4-4-2.2-6.5 7.5-10.5 5.2-2.2 8.7-4.6 14-9.7 3.8-3.7 7.5-6.8 8-6.8.6 0 2.1.7 3.4 1.6zm107.2 4.9c6 5.9 17 12.5 20.6 12.5 1.8 0 3.5 3.8 2.8 6-1.1 3.3-3.8 4.1-8.5 2.5-12.2-4.3-25.8-14.8-27.4-21-.6-2.4-.3-3.3 1.4-4.7 1.2-1 2.7-1.8 3.3-1.8.6 0 4.1 2.9 7.8 6.5zm-107.8 22.6c8.2 2.2 13.1 9.5 12.9 19.1-.4 18.7-26.9 24.5-35.1 7.6-7.4-15.4 5.7-31.3 22.2-26.7zm108.8.1c8.7 3 13.4 10.2 12.7 19.3-1.6 18.8-26.8 23.9-35.5 7.1-2.1-4-2.1-13.2-.1-17.1 4.4-8.3 14.3-12.3 22.9-9.3zm-47.6 66.9c7.2 2.7 16.5 11.2 20 18.3 1.4 2.9 3.1 8 3.7 11.3 1 5.3.9 6.5-.6 8.7-.9 1.4-2.2 2.6-3 2.6-.7 0-4.7-2.2-8.9-5-10.6-7-14.8-8.5-23.7-8.5-6.4 0-8.5.5-14.4 3.3-3.8 1.7-9.1 4.8-11.8 6.8-4.3 3.2-5.2 3.5-7.3 2.6-1.4-.6-2.7-2.2-3.1-3.6-.8-3.4 1.1-12 4.2-18.3 3.2-6.7 12.7-15.5 19.6-18.2 7.3-2.8 17.9-2.8 25.3 0z"/><path d="M195.9 118.9c-4.1 4.1-4 9 .2 12.5 3.9 3.3 8.2 3.4 11.4.2 3.3-3.3 4-6.7 2-10.5-2.9-5.7-9.1-6.6-13.6-2.2zM306.3 117c-3 1.2-5.6 6.5-4.8 10 .8 3.7 3.4 6 7.8 6.7 3.1.5 4 .1 6.7-2.5 4-4.1 4.1-8.3.1-12.3-3-2.9-5.8-3.5-9.8-1.9zM247.2 183.3c-4 1.2-11.7 7.9-13.7 11.8l-1.5 2.8 5.2-2.4c8.1-3.7 17.4-5.1 25.6-3.6 3.8.7 9.2 2.3 12 3.6l5.2 2.4-1.5-2.8c-2.1-4.2-9.8-10.6-14.3-11.9-4.7-1.4-12.5-1.4-17 .1zM120.1 102.7c-5.7 4.5-6.1 6.5-6.1 33.8 0 27.1.4 29.1 5.9 33.8 6.3 5.3 6.1 6.4 6.1-33.8 0-28.5-.3-36.5-1.2-36.5-.7 0-2.8 1.2-4.7 2.7zM386 136.5c0 40.2-.2 39.1 6.1 33.8 5.5-4.7 5.9-6.7 5.9-33.8 0-18.7-.3-25.4-1.4-27.9-1.4-3.3-7.2-8.6-9.4-8.6-.9 0-1.2 9.6-1.2 36.5zM12.8 159.2c-1.7 1.7-2 2.9-1.5 7.5 1.2 11.7 9.9 24.5 20.6 30.2 3.3 1.7 6.3 4 6.6 5.1 1.2 3.7 6.3 7 10.8 7 5.4 0 8.6-1.7 11.5-6 1.3-1.9 4.2-4.5 6.5-5.6 7.4-3.8 13.4-10 17.2-17.7 4.3-8.8 5.5-16.5 3.1-20.2-3.3-5-7.9-1.7-9 6.5-1.2 8.9-5.9 16.4-13.1 20.6l-4.5 2.6-3-2.5c-5.3-4.5-11.5-4.3-16.7.5l-2.2 2.1-4.5-2.7c-7.1-4.2-11.9-11.5-13.1-20.1-.4-2.8-1.1-5.7-1.6-6.6-1.4-2.7-4.8-3-7.1-.7zM424.4 159.5c-2.4 3.7-1.2 11.4 3 20 4 8 8.9 13.2 16.3 17.3 2.9 1.5 6.3 4.4 7.5 6.2 2.9 4.3 6.1 6 11.5 6 4.5 0 9.6-3.3 10.8-7 .3-1.1 3.3-3.4 6.6-5.1 10.7-5.7 19.4-18.5 20.6-30.2.5-4.6.2-5.8-1.5-7.5-2.3-2.3-5.7-2-7.1.7-.5.9-1.2 3.8-1.6 6.6-1.2 8.6-6 15.9-13 20.1l-4.5 2.6-3-2.5c-5.3-4.5-11.5-4.3-16.7.5l-2.2 2.1-4.5-2.7c-7.3-4.2-12-11.7-13.2-20.6-1.1-8.2-5.7-11.5-9-6.5zM39.4 220.2c.9 12.7 3.9 31.9 6.6 41.8 1.1 4.1 4.6 12.7 7.7 19 5.1 10.2 6.7 12.5 14.7 20.5 7.3 7.3 10.9 10 18.1 13.7 15.9 8.1 32.7 12.2 54.7 13.5l11.7.6.3 4.6.3 4.6h65l.3-9c.4-13.4-2.3-12.5 37.2-12.5s36.8-.9 37.2 12.5l.3 9h65l.3-4.6.3-4.6 11.7-.6c60.5-3.4 90.9-30.3 99.6-88.2 1.6-11.1 3.1-30.5 2.3-30.5-.2 0-1.8.7-3.3 1.5-1.6.8-4.9 1.5-7.4 1.5s-5.8-.7-7.4-1.5c-1.5-.8-2.9-1.5-3.1-1.5-.1 0-.5 4.6-.9 10.2-1.6 23.3-4.6 36.9-11.1 50.5-11.1 22.8-31.7 33.7-68.7 36.3-8.4.6-16.2 1.2-17.3 1.5-1.3.2-3.1-.7-5-2.7-6.8-6.9-12.4-7.8-47.4-7.8-23.8-.1-27.1-.3-24-1.4 7.2-2.5 12-7.4 14.8-14.9l1.1-2.7h-74l1.5 3.7c2.5 6 6.1 9.9 11.5 12.6l5.1 2.6-30.8.3c-29.7.3-31 .4-35.3 2.6-2.5 1.2-5.9 3.5-7.6 5l-3.1 2.8-9.9-.8c-29-2.3-37.1-3.9-49.3-9.4-25-11.5-37-34.8-39.7-77.7-.4-5.9-.8-10.7-.9-10.7-.2 0-1.6.7-3.1 1.5-1.6.8-4.9 1.5-7.4 1.5s-5.8-.7-7.4-1.5c-1.5-.8-3.1-1.5-3.3-1.5-.3 0-.3 4.6.1 10.2z"/><path d="M172.7 262.7c1.4 4 4.8 7.6 8.7 9.4 3.9 1.8 8 1.9 74.6 1.9s70.7-.1 74.6-1.9c3.9-1.8 7.3-5.4 8.7-9.4.6-1.6-3.8-1.7-83.3-1.7s-83.9.1-83.3 1.7zM225 331v8l15.3 23c8.3 12.6 15.4 22.9 15.7 22.9.3 0 7.4-10.3 15.8-22.9l15.2-23v-16h-62v8z"/><path d="M99 347.6c-2.3 7 2.1 14.7 9.2 16.1l2.8.5V402h108v5H117v4.9c0 3.3.5 5.3 1.7 6.2 1.3 1.1 10.2 1.5 46 1.7l44.3.3v10.1l-46-.4-46-.3v29.3c0 32.1.1 32.6 6.1 35.8 3.8 1.9 85 2.1 88.8.1 4-2 6.4-6.2 6.9-11.9l.4-5.3-46.1.3-46.1.2v-10h44.4c24.4 0 45.1-.3 46-.6 1.4-.5 1.6-3.7 1.6-25V418h74v24.4c0 21.3.2 24.5 1.6 25 .9.3 21.6.6 46 .6H385v10l-46.1-.2-46.1-.3.5 5.6c.3 3.1 1.1 6.5 1.8 7.7 2.8 4.5 4.1 4.7 46.9 5 22.3.2 42 0 43.9-.3 1.9-.4 4.7-2 6.3-3.7l2.8-3v-59.3l-46 .3-46 .3v-10l44.3-.3c35.8-.2 44.7-.6 46-1.7 1.2-.9 1.7-2.9 1.7-6.2V407H293v-5h108v-37.8l2.8-.5c7.1-1.4 11.4-8.8 9.3-15.8l-1.2-3.9H291l-14.1 21.2c-15 22.6-18.3 26.8-20.9 26.8-2.6 0-5.9-4.2-20.9-26.8L221 344H100.2l-1.2 3.6zM209 449v5h-82v-10h82v5zm176 0v5h-82v-10h82v5z"/><path d="M106.9 428.4c-5.2 3.6-6.9 8.6-6.9 20.3 0 13.1 2.7 18.8 10.3 21.6 1.6.6 1.7-.9 1.7-21.8 0-12.4-.3-22.5-.8-22.5-.4 0-2.4 1.1-4.3 2.4zM245.6 428.2c-1.3 1.8-1.6 5.3-1.6 17.8 0 20.2-.1 20 12 20s12 .2 12-20 .1-20-12-20c-8 0-9 .2-10.4 2.2zM400 448.5c0 20.9.1 22.4 1.8 21.8 7.5-2.8 10.2-8.5 10.2-21.9 0-11.8-1.9-16.9-7.2-20.2-2-1.2-3.8-2.2-4.2-2.2-.3 0-.6 10.1-.6 22.5zM225 445.5V459h15v-27h-15v13.5zM272 445.5V459h15v-27h-15v13.5z"/></svg>