<svg version="1.0" xmlns="http://www.w3.org/2000/svg" width="682.667" height="682.667" viewBox="0 0 512 512"><path d="M339.3 1.6c-5.4 2-12.8 8.5-15.5 13.8-1.7 3.2-2.3 6.6-2.7 14.9l-.6 10.9-5.6 2.4c-6.5 2.7-15.2 7.7-22.3 12.8l-4.9 3.5-5.1-3c-9.9-5.8-11.6-6.4-20.7-6.4-13.5 0-17.3 3-29.1 22.9-2.4 4.1-3.1 4.5-4.7 3.6-1.1-.5-6.2-2.2-11.3-3.6-7.8-2.2-12.1-2.7-26.3-3.1-14.8-.4-18.4-.2-27.5 1.7-28.3 5.8-53.4 21.7-71.1 44.9-6.8 9-15.3 26.6-18.3 38.1-10.2 38.5-.2 79.3 26.3 108.5 6.6 7.2 15.7 15.1 22.4 19.2 3.1 2 5.7 3.9 5.7 4.2 0 .4-3.1 1.7-6.9 2.9-3.8 1.3-11.8 4.7-17.8 7.6C59.4 319 27.6 359.4 17 407c-3.1 14.1-4 27.6-4 62.1 0 36.9.2 38.4 6.3 41.2 3.2 1.6 16.3 1.7 167.7 1.7h164.2l3.5-3.5 3.4-3.4-.4-43.3c-.3-39.8-.6-44.1-2.5-53-8.8-39.3-31.9-74.8-63.2-97.1-10.9-7.7-31.2-18.2-41.8-21.6l-7.3-2.4 4.5-2.6c16-9.4 33.2-27.5 41.5-43.8l2.1-4.3 6.5 4.4c3.5 2.4 10.2 6 14.9 8.2l8.4 3.9.4 10.5c.3 9.4.7 11.1 3.3 15.9 3.1 5.6 8.8 10.6 14.8 12.8 2 .7 10.2 1.2 21.7 1.2 17.4.1 18.8-.1 23.5-2.3 5.6-2.6 11.7-8.7 14.1-14.3 1-2.3 1.8-7.8 2.1-13.9l.6-10.1 7.4-3.3c4.1-1.8 11.1-5.7 15.6-8.8 4.5-3 8.7-5.6 9.3-5.9.6-.2 4.2 1.4 8 3.6 9 5.2 15.5 6.6 22.9 5.1 9-1.9 14.1-6.1 20.7-17 11.9-19.6 13.2-22.8 13.2-30.5 0-11.7-5.2-19.4-18.1-26.7-7-4-7.2-4.2-6.5-7.2.9-4 .9-27.2 0-31.2-.7-3.1-.5-3.3 7.1-7.7 11.5-6.7 16.1-12.6 17.6-22.8 1-6.7-.8-11.9-9.2-26.4-8.6-15-11.9-18.8-18.8-22.1-9.6-4.5-19.6-3-32.1 4.9l-4.1 2.5-6.4-4.5c-3.5-2.5-11-6.7-16.5-9.4L401.3 41l-.5-9.8c-.7-14.7-5-22.7-15.2-28C380.6.6 380 .5 362 .3c-14.5-.2-19.4.1-22.7 1.3zm38.3 22.5c1.6 1.8 2 4.2 2.4 15.9.6 16.2 1.2 17.5 10.8 20.4 8 2.5 19.5 8.7 27.6 14.9 9.5 7.2 12.6 8.9 15.8 8.3 1.5-.3 7.4-3.2 13.2-6.6 10.4-6 12-6.6 15.1-5.4 2.2.9 15.5 23.6 15.5 26.6 0 3.2-1.5 4.4-12.7 10.7-5.1 2.9-10.2 6.4-11.3 7.9-2.4 2.9-2.4 2.9 0 20.4 1.1 8.1 1.1 11.5 0 19.5-2.4 18-2.4 17.7.2 20.6 1.2 1.4 6.4 4.9 11.3 7.7 11.1 6.3 12.5 7.6 12.5 11 0 2.4-10.2 21.2-13.8 25.2-2.5 2.9-5.8 2.1-17-4.2-14-7.8-15.7-7.8-24.6-.6-10.4 8.6-21.2 14.5-33.7 18.5-2 .6-4.7 2.3-6 3.7-2.3 2.4-2.4 3.4-2.7 16.5-.5 18.3-.1 17.9-18.7 17.9-18.5 0-18.2.3-18.7-17.4-.4-16.7-1-17.9-11.9-21.7-14.9-5.2-32.5-16.2-31.5-19.7.3-.9.9-4.4 1.5-7.7 6-35.9-4-70.5-28.4-98.1-5.2-5.9-17.7-16.7-22.2-19.2-1.4-.9-1.1-1.9 2.8-8.8 6.3-11.2 7-11.3 20.6-3.6 6 3.3 12.1 6.4 13.5 6.7 3.5.9 8.1-1.4 15.8-8 6.6-5.6 20.2-12.9 29.8-16 8.2-2.6 9.2-5 9.2-20.8 0-17.3-.7-16.7 18.8-16.7 13.9 0 15 .1 16.8 2.1zM203.2 92.4c29.7 5.7 54.3 24.6 67.8 51.9 7.5 15.3 9.3 23.1 9.4 41.2 0 12.6-.3 16.4-2.2 23.4-12.3 45.7-50.6 74-97.2 71.8-13.7-.7-23.9-3.1-35.6-8.6C100.2 250.9 79 199.7 96 152.7c11-30.3 38.6-53.8 70.9-60.2 8.9-1.8 27.3-1.8 36.3-.1zm21.2 212.5c28.3 5.8 49.9 17.4 70.8 38.1 24.3 24 37.8 52.8 40.8 87 .5 6.3 1 22.4 1 35.7V490H34v-24.8c0-13.6.5-29.7 1-35.7 3.3-35.2 17.3-64.2 42.8-88.6 23-22.1 49.8-34.3 84.2-38.3 1.9-.2 14.5-.3 28-.1 19.8.3 26.4.8 34.4 2.4z"/><path d="M348.5 89.4c-9.8 2.3-16.6 5.3-23.7 10.6-24.1 17.8-30.7 51.3-15.3 77.6 4.1 7 13.9 16.5 21.6 20.7 12 6.7 28.1 9.3 41.1 6.6 7.9-1.6 20.6-8.1 26.9-13.8 15-13.4 22.6-35.9 18.5-55.1-4.6-21.8-20.5-39.2-41.6-45.4-7.8-2.3-20.3-2.8-27.5-1.2zm24 22.3c6.4 2.2 14.1 8 17.9 13.6 5.2 7.6 6.8 13 6.9 22.4.1 7.4-.2 8.7-3.6 15.6-11.4 23-40.6 28.8-59.1 11.7-22.5-20.8-12.3-58.9 17.4-64.9 5.4-1.1 14.9-.4 20.5 1.6z"/></svg>