<svg xmlns="http://www.w3.org/2000/svg" width="512" height="512" shape-rendering="geometricPrecision" text-rendering="geometricPrecision" image-rendering="optimizeQuality" fill-rule="evenodd" clip-rule="evenodd"><path d="M100.5 20.5c11.224-1.468 19.724 2.532 25.5 12A9817.982 9817.982 0 0 1 192.5 213c-2.671 15.686-12.005 22.686-28 21-5.241-1.239-9.408-4.072-12.5-8.5a1431.776 1431.776 0 0 1-13.5-33.5 704.916 704.916 0 0 0-65 .5 1861.02 1861.02 0 0 1-12.5 32c-8.653 10.614-19.153 12.78-31.5 6.5-9.827-9.34-11.66-20.173-5.5-32.5a25770.311 25770.311 0 0 1 64-169c3.3-4.382 7.466-7.382 12.5-9Zm5 85c.617.111 1.117.444 1.5 1a1011.296 1011.296 0 0 0 15.5 41 182.078 182.078 0 0 1-33 .5 651.552 651.552 0 0 0 16-42.5ZM292.5 20.5c7.805-1.119 14.805.715 21 5.5l85.5 85.5c8.783 11.826 7.95 22.992-2.5 33.5-10.051 5.83-19.717 5.163-29-2L320 95.5l-1 188c-4.902 11.706-13.735 16.539-26.5 14.5-7.833-2.5-13-7.667-15.5-15.5l-1-187-48.5 48.5c-9.646 7.321-19.313 7.321-29 0-7.901-8.948-9.068-18.781-3.5-29.5L285.5 24l7-3.5Z" opacity=".977"/><path d="M376.5 191.5c14.459-2.363 23.959 3.304 28.5 17l1 207a1908.49 1908.49 0 0 1 52.5-51.5c13.163-5.005 23.33-1.505 30.5 10.5 2.68 8.198 1.68 15.865-3 23L397.5 486c-9.333 6-18.667 6-28 0L281 397.5c-8.889-19.221-3.056-31.221 17.5-36 4.686.449 9.019 1.949 13 4.5l49.5 49.5 1-207c2.169-7.998 7.003-13.665 14.5-17Z" opacity=".971"/><path d="M36.5 276.5c46.335-.167 92.668 0 139 .5 15.374 6.088 19.874 16.921 13.5 32.5l-102.5 137a4145.33 4145.33 0 0 0 91 1.5c11.818 5.471 16.318 14.637 13.5 27.5-2.258 7.889-7.425 12.722-15.5 14.5-46.333.667-92.667.667-139 0-15.602-6.797-19.768-17.964-12.5-33.5L126.5 320a2282.18 2282.18 0 0 1-94-2c-12.394-8.201-15.227-19.034-8.5-32.5 3.3-4.382 7.466-7.382 12.5-9Z" opacity=".979"/></svg>