<svg version="1.0" xmlns="http://www.w3.org/2000/svg" viewBox="0 0 512 512">
<path d="M101.5 1.5C84.9 4 68 10.6 52.7 20.6c-9.3 6.1-26 22.8-32.1 32.1C-4 90.2-6.5 135.1 13.7 174.3c18 34.9 52.7 58.9 91.8 63.6 12.5 1.5 288.5 1.5 301 0 39.1-4.7 73.8-28.7 91.8-63.6 20.2-39.2 17.7-84.1-6.9-121.6-6.1-9.3-22.8-26-32.1-32.1C443.6 10.3 427 4 409.5 1.5c-14.2-2.1-294.2-2-308 0zm312 35.5c48.7 12.5 76.2 64.3 59.2 111.4-8.8 24.2-29.7 44.4-54 52.1-39.8 12.7-81.8-4.5-101.6-41.6-17.4-32.7-11.3-72.7 15.4-99.4 21.7-21.7 51.8-30.1 81-22.5zM102.5 274.5c-38 5.5-71.2 29.1-88.8 63.2-20.2 39.2-17.7 84.1 6.9 121.6 6.1 9.3 22.8 26 32.1 32.1 15.7 10.3 32.3 16.6 49.8 19.1 14.8 2.2 292.2 2.2 307 0 17.5-2.5 34.1-8.8 49.8-19.1 9.3-6.1 26-22.8 32.1-32.1 24.6-37.5 27.1-82.4 6.9-121.6-18-34.9-52.7-58.9-91.8-63.6-14-1.7-292.1-1.3-304 .4zm304.8 17c23 3.5 43.2 13.9 58.9 30.3 12.5 13.2 20.7 27.9 25.5 45.7 2.3 8.7 2.6 12 2.6 25s-.3 16.3-2.6 25c-1.5 5.5-4.9 14.5-7.6 20-13.5 27.3-36.4 45.9-66.6 54.2l-10 2.8h-303l-10-2.8c-30.2-8.3-53.1-26.9-66.6-54.2-2.7-5.5-6.1-14.5-7.6-20-2.3-8.7-2.6-12-2.6-25s.3-16.3 2.6-25c4.8-17.8 13-32.5 25.5-45.7 15.4-16.1 35.9-26.8 58-30.3 13.5-2 289.6-2.1 303.5 0z"/>
<path d="M108 308c-30.8 4.3-58 26.3-68.7 55.6-11.3 31.4-2.8 67.6 21.3 90.5 34.1 32.2 85.9 31.5 118.9-1.6 52.1-52.2 18-140.9-55.6-144.9-5.2-.2-12.3-.1-15.9.4zm30.3 19.1C181 339 200.7 389 177.9 427.7c-4.6 7.7-16 18.9-23.9 23.6-3.6 2.1-10.1 4.9-14.5 6.4-6.8 2.2-9.8 2.6-20 2.6-10.1 0-13.2-.4-19.7-2.5-22.4-7.4-38.2-23.2-45.6-45.6-2.1-6.5-2.5-9.6-2.5-19.7 0-10.2.4-13.2 2.6-20 3.7-11.1 9-19.8 17.2-28 18-17.9 42.1-24.2 66.8-17.4z"/></svg>