<svg version="1.0" xmlns="http://www.w3.org/2000/svg" width="682.667" height="682.667" viewBox="0 0 512 512"><path d="M243.3 1.5c-3.5.8-9.3 2.8-13 4.6-9.3 4.5-21.7 16.9-26.1 26.1-15.5 32 .8 70.6 34.3 81.1 9.8 3.1 25.2 3.1 35 0 33.5-10.5 49.8-49.1 34.3-81.1-4.4-9.2-16.8-21.6-26-26-12-5.9-25.6-7.5-38.5-4.7zM120.5 28.4C98.2 33.9 81 55.9 81 78.5c.1 26 19.7 48.2 45.8 51.9 4.2.6 4.5.5 11-5.4 9.2-8.5 19.8-14.8 31.1-18.6 9-3 9.7-3.4 11.5-7 1-2.2 2.6-7.4 3.4-11.8 7.1-35.7-27.6-68.1-63.3-59.2zM366.3 28.5c-20.1 5.4-35.5 22.8-38.5 43.2-1 6.7-.9 9.4.4 15.9.8 4.4 2.4 9.6 3.4 11.8 1.8 3.6 2.5 4 11.5 7 11.3 3.8 21.9 10.1 31.1 18.6 6.5 5.9 6.8 6 11 5.4 26.1-3.7 45.7-25.9 45.8-51.9 0-23.1-18.1-45.6-40.8-50.4-7.1-1.5-17.5-1.3-23.9.4zM184.1 133.1c-7.1 1.4-18.6 7.4-24.2 12.6-6.8 6.2-12.4 15-14.9 23.1-1.9 6-2 9.3-2 47.3V257h226v-40.9c0-38-.1-41.3-2-47.3-5.4-17.5-22-32.4-39.9-35.8-6.6-1.2-136.6-1.2-143 .1zM72 145.7c-18.4 2.8-31.9 14-38.5 31.9-1.6 4.3-1.9 9.4-2.3 42.1l-.4 37.3H113v-41.4c0-48.5.2-50.1 8.7-69.4.4-.9-4.6-1.2-23.3-1.1-13.2.1-25 .3-26.4.6zM390.3 146.2c8.6 19.6 8.7 20.7 8.7 69.4V257h82.2l-.4-37.3c-.4-32.7-.7-37.8-2.3-42.1-5.5-14.8-16.2-25.6-30.3-30.3-6.6-2.2-58.8-3.2-57.9-1.1zM31.7 287.7c-1 .9-.9 31.1.1 31.6.4.3 15 2 32.4 3.8l31.8 3.3 1.5 5.6c2.7 9.5 6.6 19.1 12.1 30.3L115 373l-20 24.7c-11 13.6-20 25.2-20 25.8 0 .5 10.1 11.1 22.4 23.4l22.4 22.4 25.2-20.5 25.3-20.5 11.4 5.8c6.3 3.2 16.7 7.4 23.1 9.5 6.5 2 11.8 3.8 11.9 3.8.1.1 1.5 13.6 3.3 30.1 1.7 16.5 3.3 31 3.6 32.3l.4 2.2h64l.4-2.3c.3-1.2 1.9-15.7 3.6-32.2 1.8-16.5 3.2-30 3.3-30.1.1 0 5.4-1.8 11.9-3.8 6.4-2.1 16.8-6.3 23.1-9.5l11.4-5.8 25.3 20.5 25.2 20.5 22.4-22.4c12.3-12.3 22.4-22.9 22.4-23.4 0-.6-9-12.2-20-25.8L397 373l5.4-10.7c5.5-11.2 9.4-20.8 12.1-30.3l1.5-5.6 31.8-3.3c17.4-1.8 32-3.6 32.5-4 .4-.4.6-7.7.5-16.2l-.3-15.4-74.2-.3-74.2-.2-.6 4.7c-2.9 24.2-12.8 42.9-29.3 55.4-14.5 11-27.6 15.3-46.2 15.3-14.1 0-21.2-1.5-32.5-6.9-24.6-11.7-39.4-33.7-43-63.8l-.6-4.7h-73.8c-40.6 0-74.1.3-74.4.7z"/></svg>