<svg version="1.0" xmlns="http://www.w3.org/2000/svg" width="682.667" height="682.667" viewBox="0 0 512 512"><path d="M186.1 23.1c-23.5 4.6-41.1 29.7-37.2 53.1.6 3.8 1.8 8.5 2.6 10.4l1.4 3.3-42.6.3-42.5.3-1.9 2.4C64 95.2 64 99.2 64 253.1V411H4.1L2 413.7C0 416.2-.2 417.3.3 424c1.3 17.2 8.1 31.5 21.2 44.5 9.9 10 17.5 14.6 30.5 18.7l7.5 2.3h393l7.5-2.3c13-4.1 20.6-8.7 30.5-18.7 9.7-9.7 14.3-17 18.7-30l2.3-7 .3-168.3.2-168.3-2.4-2.4-2.5-2.5h-61.2l-2.4 2.5c-3.2 3.1-3.3 7.4-.2 10.3 2.3 2.1 3 2.2 28 2.2H497v159.2c0 132.8-.3 160.4-1.4 165.9-2.2 10.1-7.8 20.3-15.5 28-21.8 21.8-55.8 22.4-77.9 1.4-11-10.4-16.4-21.3-18.1-36.7-.7-6.6-1.4-8.6-3.1-10-2.1-1.7-7.5-1.8-94.7-1.8-63.2 0-93.1.3-94.4 1.1-4.8 2.5-4.4 10.5.7 12.8 1.8.8 26.9 1.1 89.4 1.1h86.9l1.1 5.7c2.9 14.2 9.9 27.2 20.3 37.5l5.7 5.8H231.3c-181.6 0-171.8.3-185-6.4-15-7.5-27.5-23.6-29.9-38.5l-.7-4.1h73c72.4 0 73.1 0 75.7-2.1 3.3-2.6 3.6-7.9.6-10.9-1.9-1.9-3.3-2-44-2H79V105h85l4.8 3.4c13.6 9.8 32.1 11.3 48 3.8 2.9-1.3 5.5-2.9 5.8-3.4.4-.6 10.8 9.2 23.3 21.6 19.8 19.7 23.1 22.6 25.8 22.6 4.3 0 7.4-2.8 7.5-6.8.1-3.1-1.5-5-18-21.5-10-10-18.2-18.6-18.2-19 0-.4 38.9-.7 86.5-.7 85.2 0 86.5 0 88.5-2 3-3 2.7-8.3-.6-10.9-2.7-2.1-3.2-2.1-90.4-2.1h-87.8l2-6.3c1.5-4.9 1.9-8.3 1.6-16.2-.3-9.1-.7-10.7-4-17.8-9.6-20.2-30.8-30.9-52.7-26.6zM210.6 41c12 5.9 18 16.7 17.2 30.9-.5 8.6-2.7 13.8-8.4 20.1-8.2 9-23.1 12.4-34.9 7.9-8.1-3-16.5-11.3-19.1-18.9-5.3-15.5.9-31.9 14.7-39.5 7-3.7 10.1-4.5 17.7-4.1 4.6.3 8.1 1.3 12.8 3.6z"/><path d="M302 210.7c-.8.3-2.3 1.2-3.2 2.1-1.7 1.4-1.8 4.6-1.8 41.2 0 46.8-.8 43.7 11.3 43.2 17-.6 33.9-7.3 42.5-16.7 6.4-6.9 8.7-13.3 8.6-23.5-.1-12.6-6.1-23.1-17.9-31.5-7.4-5.3-16.2-9.5-26-12.3-9-2.6-11.7-3.1-13.5-2.5zm20.5 21.2c14.6 6.8 21.8 15.5 21.8 26.3 0 9.8-6 16.4-19 20.6-3.2 1.1-7.5 2.3-9.5 2.6l-3.8.7V255c0-19 .3-27 1.1-27 .6 0 4.8 1.8 9.4 3.9zM141.4 219c-2.6 1-5.4 4.8-5.4 7.1 0 .9.9 2.8 2.1 4.3 2 2.5 2.4 2.6 12 2.6h9.9v29.4c0 29.5 0 29.5 2.3 32.2 2.8 3.2 7.8 3.7 10.5 1 1.5-1.5 1.8-5.2 2.2-31.9l.5-30.2 10.3-.5c8.8-.4 10.6-.8 11.8-2.4 2.1-2.9 1.8-8-.7-10.2-1.9-1.8-4.1-1.9-27.8-2.1-14.1-.1-26.6.2-27.7.7zM227.3 219.1c-15.5 2.9-26.6 19-26.6 38.9 0 22.2 13.6 39.2 31.5 39.2 11.4 0 21-7.1 27.2-20.1 3-6.3 3.1-7.2 3.1-19.1 0-11.9-.1-12.8-3.1-19.1-7-14.7-19.1-22.2-32.1-19.8zm12.3 17.5c7.3 5.4 10.6 21.1 6.9 32.5-2 5.9-7.8 12.3-12 13.1-10.2 2-18.8-9.1-18.8-24.2 0-5.4.6-8.9 2-12.1 5.4-12 13.6-15.5 21.9-9.3zM403.3 219.1c-15.1 2.8-26.3 19.3-26.3 38.9 0 21.9 13.6 39.1 31 39.3 15.2.1 27.9-13 31.2-32.1 4.4-25.8-14.5-50.1-35.9-46.1zm14.8 19.9c7.1 7.7 8.6 20.8 3.9 31.8-3.9 9.1-10.4 13.1-17.3 10.7-4.9-1.7-5.9-2.6-9.3-8.7-2.6-4.8-2.9-6.2-2.9-14.8 0-8.6.3-10 2.9-14.8 3.4-6.1 4.4-7 9.3-8.7 5-1.7 9-.4 13.4 4.5zM210.5 325c-2.5 2.8-2.3 7.6.4 10.3l2.2 2.2 82.5.3 82.5.2 3-2.9c3.4-3.5 3.7-5.9.8-9.5l-2-2.6h-83.8c-82.7 0-83.8 0-85.6 2zM227.1 364.8c-3.3 2.6-3.1 7.9.3 10.9l2.7 2.3h108.1l3-3c2.4-2.5 2.9-3.6 2.4-5.8-.4-1.5-1.6-3.5-2.8-4.5-1.9-1.6-6.1-1.7-56.8-1.7-50.8 0-54.9.1-56.9 1.8z"/></svg>