<svg xmlns="http://www.w3.org/2000/svg" width="512" height="512" style="shape-rendering:geometricPrecision;text-rendering:geometricPrecision;image-rendering:optimizeQuality;fill-rule:evenodd;clip-rule:evenodd"><path style="opacity:.991" d="M251.5-.5h9a32770.126 32770.126 0 0 1 153.5 151c3.176 7.467 1.343 13.3-5.5 17.5-27.331.5-54.665.667-82 .5a6606.235 6606.235 0 0 1-1.5 197c-.685 2.557-2.185 4.391-4.5 5.5-43.333.667-86.667.667-130 0-4.855-1.505-8.688-4.338-11.5-8.5a6340.473 6340.473 0 0 1-1.5-194c-25.002.167-50.002 0-75-.5-6.843-4.2-8.676-10.033-5.5-17.5A10983.862 10983.862 0 0 1 251.5-.5Z"/><path style="opacity:.966" d="M188.5 394.5c44.668-.167 89.335 0 134 .5 7.927 5.197 9.427 11.697 4.5 19.5-1.8 1.817-3.966 2.984-6.5 3.5-43.333.667-86.667.667-130 0-9.042-3.578-11.542-9.745-7.5-18.5a37.84 37.84 0 0 1 5.5-5Z"/><path style="opacity:.931" d="M192.5 440.5c42.001-.167 84.001 0 126 .5 7.333.667 11.333 4.667 12 12-.7 6.742-4.367 10.742-11 12-42.667.667-85.333.667-128 0-6.633-1.258-10.3-5.258-11-12 .845-7.343 4.845-11.51 12-12.5Z"/><path style="opacity:.967" d="M322.5 511.5h-134c-9.887-7.279-10.22-14.779-1-22.5a1182.464 1182.464 0 0 1 68-1.5c22.728-.151 45.395.349 68 1.5 9.22 7.721 8.887 15.221-1 22.5Z"/></svg>