<svg xmlns="http://www.w3.org/2000/svg" viewBox="0 0 512 512" fill="#187e3d">
  <path d="M188.3 1.6C185 3.2 182 8.2 182 12c0 3.1 2.5 7.5 5.4 9.4 2.3 1.4 8.9 1.6 68.6 1.6 72.7 0 69.2.3 72.6-6.1 1.8-3.6 1.8-6.3-.2-10.4-3.1-6.7-1.2-6.5-72.6-6.5-56.3 0-64.7.2-67.5 1.6zM187.8 48.6c-5.3 2.8-7.2 9.8-4.3 15.4 3.2 6.2 1.1 6 72.5 6s69.3.2 72.5-6c3-5.7 1-12.7-4.5-15.5-4.3-2.2-132.1-2.2-136.2.1zM186.8 96.3c-5 4.2-5.9 8.5-3.2 14.2 3.1 6.7 1.2 6.5 72.4 6.5s69.3.2 72.4-6.5c2-4.1 2-6.8.2-10.4-3.4-6.4.1-6.1-72.8-6.1h-66.3l-2.7 2.3zM190.5 141.2c-5 1.8-8.2 4.6-10.4 9.1-2.1 4.3-2.1 5.1-2.1 98.5v94.1l-36.9.3c-35.7.3-37.1.4-39.8 2.4-3.7 2.8-5.5 8.1-4.2 12.7.7 2.8 16.1 18.3 76.4 77.3 41.5 40.6 76.5 74.4 77.7 75.1 2.9 1.6 6.7 1.6 9.6 0 1.2-.7 36.2-34.5 77.7-75.1 54.3-53.1 75.7-74.7 76.5-77 1.4-4.4-.5-10.2-4.3-13-2.8-2-4-2.1-43.8-2.4l-40.9-.3-.1-96.7c0-72.2-.3-97.6-1.2-100.2-.7-1.9-2.3-4-3.7-4.7-3.3-1.7-125.8-1.7-130.5-.1z"/>
</svg>
