<svg version="1.0" xmlns="http://www.w3.org/2000/svg" width="682.667" height="682.667" viewBox="0 0 512 512"><path d="M231.5 38.1c-48.3 5.9-88.5 39-102.9 84.7-9.2 29.3-7 62.3 6 89.7 6.9 14.7 19.1 30.8 30.3 40 3.3 2.7 6.1 5.2 6.1 5.5 0 .3-3.8 1.8-8.5 3.3-10.9 3.6-29.6 12.9-41 20.4-48.7 32.1-78.8 83.5-83.5 142.6-1.2 14-.5 18.5 3.2 23.2 5.9 7.6 19.4 7.1 25-.8 1.8-2.4 2.4-5.6 3.4-17.6 2.3-24.8 6.8-41.9 16-60.2 21.4-42.9 58.5-71.6 106.9-83 7.9-1.9 13.3-2.2 44-2.8 33.6-.6 35.1-.7 38.5-2.8 1.9-1.2 6.4-3.1 10-4.3 3.6-1.3 11-4.5 16.4-7.3 58.3-29.7 82.6-100.5 55.1-160.4-10.2-22.3-30.1-43.6-51.6-55.5C283.6 41 255 35.3 231.5 38.1zm33.2 33.5c27.1 6.1 49.7 23.9 61.8 48.7 7 14.5 8.8 22.5 8.8 39.7 0 16.5-1.7 25-7.8 37.8-11.4 24.1-29.9 40.4-55.5 48.7-7.3 2.5-10.5 2.9-23.5 3.3-12.8.3-16.3.1-23.9-1.7-28.7-6.9-53-27.9-63.6-55.3-7.8-20.2-8-43.9-.6-64.4 5.6-15.3 18.6-32.3 32-41.9 21.2-15 47.8-20.5 72.3-14.9zM452.5 273.4c-4.2 1.9-4.6 2.4-76 84.1-35.1 40.1-64.9 74.1-66.1 75.5l-2.4 2.5-36.8-36.7c-31.6-31.6-37.2-36.7-40.4-37.3-4.9-.9-9.2.2-12.9 3.2-4.1 3.5-5.9 7.4-5.9 13v4.7l44.7 44.8c49.4 49.4 49.5 49.5 57.7 46.7 3.6-1.2 12.9-11.5 80.4-88.4 41.9-47.9 77-88.4 77.9-90 2.3-4.2 2.1-11.4-.3-15.6-3.9-6.6-13-9.6-19.9-6.5z"/></svg>