<svg version="1.0" xmlns="http://www.w3.org/2000/svg" width="682.667" height="682.667" viewBox="0 0 512 512"><path d="M25.3 35.8c-9 3.2-14.9 8.8-17.8 17.3C6.2 56.8 6 82.5 6 256c0 220.2-.5 203.5 6.6 211.8 1.9 2.3 6 5.3 9.2 6.9l5.7 2.8h457l5.7-2.8c3.2-1.6 7.3-4.6 9.2-6.9 7.1-8.3 6.6 8.4 6.6-211.8 0-220.3.5-203.5-6.6-211.8-1.9-2.3-6-5.3-9.2-6.9l-5.7-2.8-227-.2c-215.9-.2-227.3-.2-232.2 1.5zm462.6 13.1c6.7 4.8 7.1 7 7.1 40.8V120H17V89.7c0-27.3.2-30.6 1.9-34.3 1.7-3.8 5.4-7.3 9.1-8.7.8-.3 103.9-.5 229-.4l227.5.2 3.4 2.4zm7.1 242.8c0 154.7-.1 161-1.9 164.9-1 2.3-3.4 5.2-5.2 6.5l-3.4 2.4h-457l-3.4-2.4c-1.8-1.3-4.2-4.2-5.2-6.5-1.8-3.9-1.9-10.2-1.9-164.9V131h478v160.7z"/><path d="M63.5 66.9c-4.6 2.1-7.9 5.4-9.4 9.4-2.7 7.2 0 16.5 6.1 20.8 4.7 3.4 13.4 3.8 18.5 1 12.6-7.1 12-25.3-1.1-31.2-5.2-2.3-9-2.3-14.1 0zm12.4 13.5c1.2 2.5 1.1 3.1-.6 5.5-2.6 3.3-6.5 3.9-9.2 1.2-2.5-2.5-2.7-4.9-.5-7.9 2.4-3.5 8.4-2.8 10.3 1.2zM120.5 66.1c-6.6 1.9-11.7 9.3-11.7 17 .1 10.3 7.1 16.9 17.8 16.9 5.3 0 9.2-1.8 12.7-5.9 11.4-13.7-1.6-33.1-18.8-28zm9.9 12.5c3.5 3.4.8 10.4-4.1 10.4-2.9 0-6.3-3.3-6.3-6.2 0-4.9 6.9-7.8 10.4-4.2zM174.2 67.1c-11.3 5.6-13.2 20.5-3.6 28.8 4.2 3.7 6.9 4.5 13.5 3.9 9-.9 14.9-7.4 14.9-16.5 0-6.1-1.5-9.5-5.7-13.6-5.3-5-12.3-5.9-19.1-2.6zm12 11.6c2.4 2.1 2.3 5.8-.2 8.3-3.9 3.9-10 1.4-10-4.1 0-5.3 6.1-7.9 10.2-4.2zM122.8 178c-32.2 3.9-59.3 28.5-66.3 60.4-2.6 11.6-1.7 29.3 1.9 40.1 8.4 24.9 29.3 44.5 54.6 51.2 9.8 2.7 29.1 2.4 39.3-.5 25.2-7.2 44.8-26.1 53.4-51.7 2.4-7.1 2.7-9.5 2.7-22 .1-16.2-1.3-22.4-7.4-35-7.6-15.5-19.6-27.3-35.5-35-13.9-6.7-28.2-9.2-42.7-7.5zm3.2 44.3c0 28.5.2 33.6 1.6 35.5 1.5 2.2 1.5 2.2 35.5 2.2H197v3.4c0 1.9-.9 6.5-2.1 10.2-9.2 30.4-40.1 50.6-70.9 46.4-16.2-2.2-28.5-8.5-39.7-20.3-25.7-27.1-24-68.9 3.8-94 6.9-6.3 19.4-12.9 28.4-15.1 10.6-2.5 9.5-6.1 9.5 31.7zm27.3-29.8c15.3 5.2 29.1 17 36.4 31.1 4.1 7.9 7.3 17.8 7.3 22.8v2.6h-59v-60l4.3.6c2.3.3 7.3 1.7 11 2.9zM316 180.6c-10.9 4.7-16.6 16.9-13.7 29.4l.8 3.6-12.8 10.7c-7.7 6.5-13.4 10.6-14.3 10.3-.8-.3-3.3-1.2-5.5-2-10.6-4-23.7 1.2-29.1 11.6-4 7.8-2.6 18.9 3.3 25.8 14.4 16.7 41.3 7.1 41.3-14.8 0-3.3-.4-7.2-.9-8.5-.9-2.3 0-3.2 12.4-13.6l13.3-11.1 4.4 2c2.5 1.1 6.6 2 9.8 2h5.5l11.3 22 11.3 22-3 3.8c-11.6 14.8-2 36.6 16.8 38 10.2.7 19.9-5.3 23.8-14.7 1.1-2.6 1.4-5.7 1-11.3l-.5-7.8 13.3-10.5c7.3-5.8 13.8-10.5 14.3-10.5s2.9.9 5.3 2c15.4 6.9 32.9-4.4 32.9-21.3 0-9.8-5-17.9-13.5-21.8-4.8-2.2-14.2-2.5-18.9-.5-9.1 3.8-15.2 13.7-14.3 23.5.2 3.1.7 6.3 1 7.1.4 1.1-3.6 4.7-13.4 12.4l-14 10.8-4.9-2.1c-3-1.3-7-2.1-10.4-2.1H363l-11-22-11-22 2.9-4.1c11.6-15.9.5-37.9-18.9-37.8-3 0-7.1.7-9 1.5zm14 10.9c6.5 3.4 8.9 10.9 5.5 17.4-1.9 3.8-7.7 6.5-12.4 5.7-5.4-.8-10.1-6.3-10.1-11.9 0-4.9 1.9-8 6.4-10.8 3.7-2.3 6.7-2.4 10.6-.4zm109.1 35c1.6.9 3.9 3 4.9 4.8 7.5 12.2-9.4 25-19.1 14.6-3.6-3.9-4.5-8.5-2.5-13.2 2.7-6.6 10.4-9.4 16.7-6.2zm-169.3 18.3c7.2 4.7 6.5 16.6-1.2 20.7-4.2 2.3-10.9 1.6-14.2-1.6-10.9-10.2 2.8-27.3 15.4-19.1zm104.3 32.7c1.6.9 3.9 3 4.9 4.8 7.4 12.1-9.1 24.8-19.1 14.8-9.7-9.8 2-25.9 14.2-19.6zM56.7 366.8c-2.2 2.4-2.1 5.5.1 7.5 1.7 1.6 17 1.7 199.5 1.7 178.3 0 197.7-.2 199.1-1.6 2.3-2.2 2-7.1-.3-8.4-1.3-.7-65.2-1-199.4-1-190 0-197.5.1-199 1.8zM56.7 410.8c-2.1 2.3-2.2 5.6-.1 7.6 1.4 1.4 20.9 1.6 199.8 1.6 152.8 0 198.5-.3 199.4-1.2 1.7-1.7 1.5-6.4-.4-8.2-1.4-1.4-20.9-1.6-199.3-1.6-190.3 0-197.9.1-199.4 1.8z"/></svg>